<svg xmlns="http://www.w3.org/2000/svg" width="214.896" height="214.896" viewBox="0 0 214.896 214.896">
  <g id="b2b-img" transform="translate(-1078.152 58.411)">
    <g id="Shape" transform="translate(-70.153 -3318.496)" fill="#375c8d">
      <path d="M 1251.586791992188 3472.981201171875 L 1243.973388671875 3458.4990234375 L 1243.323974609375 3457.263916015625 L 1242.363159179688 3458.27587890625 L 1231.095336914062 3470.141845703125 L 1226.453857421875 3454.453857421875 L 1226.057861328125 3453.11572265625 L 1224.918090820312 3453.920654296875 L 1211.547485351562 3463.361572265625 L 1210.055786132812 3447.067626953125 L 1209.928588867188 3445.677978515625 L 1208.653686523438 3446.244873046875 L 1193.703125 3452.89306640625 L 1195.41845703125 3436.62548828125 L 1195.564697265625 3435.23779296875 L 1194.203735351562 3435.545166015625 L 1178.243774414062 3439.14794921875 L 1183.100708007812 3423.524169921875 L 1183.514892578125 3422.19140625 L 1182.119873046875 3422.2275390625 L 1165.760864257812 3422.651123046875 L 1173.572631835938 3408.272705078125 L 1174.238891601562 3407.04638671875 L 1172.863525390625 3406.809814453125 L 1156.73681640625 3404.0361328125 L 1167.203125 3391.458740234375 L 1168.095703125 3390.38623046875 L 1166.793090820312 3389.8857421875 L 1151.518188476562 3384.0166015625 L 1164.236450195312 3373.720703125 L 1165.321166992188 3372.842529296875 L 1164.140991210938 3372.09765625 L 1150.30419921875 3363.3642578125 L 1164.7880859375 3355.748291015625 L 1166.023071289062 3355.098876953125 L 1165.01123046875 3354.13818359375 L 1153.145263671875 3342.870361328125 L 1168.835083007812 3338.23095703125 L 1170.173706054688 3337.835205078125 L 1169.368286132812 3336.695068359375 L 1159.924926757812 3323.32763671875 L 1176.2216796875 3321.832763671875 L 1177.611206054688 3321.705322265625 L 1177.044067382812 3320.430419921875 L 1170.392822265625 3305.47998046875 L 1186.662353515625 3307.197021484375 L 1188.050170898438 3307.343505859375 L 1187.742797851562 3305.982421875 L 1184.138305664062 3290.020751953125 L 1199.764892578125 3294.876953125 L 1201.097412109375 3295.291259765625 L 1201.061279296875 3293.896240234375 L 1200.637817382812 3277.53759765625 L 1215.014526367188 3285.351318359375 L 1216.240966796875 3286.017822265625 L 1216.477661132812 3284.64208984375 L 1219.251953125 3268.514892578125 L 1231.829345703125 3278.981689453125 L 1232.901977539062 3279.87451171875 L 1233.402465820312 3278.57177734375 L 1239.27099609375 3263.296875 L 1249.567016601562 3276.015380859375 L 1250.445068359375 3277.10009765625 L 1251.18994140625 3275.919921875 L 1259.923828125 3262.082763671875 L 1267.538940429688 3276.56640625 L 1268.1884765625 3277.8017578125 L 1269.149291992188 3276.78955078125 L 1280.415405273438 3264.922607421875 L 1285.058837890625 3280.612060546875 L 1285.454833984375 3281.9501953125 L 1286.594604492188 3281.145263671875 L 1299.958374023438 3271.705322265625 L 1301.453857421875 3288.002197265625 L 1301.581420898438 3289.39208984375 L 1302.8564453125 3288.824462890625 L 1317.805419921875 3282.17041015625 L 1316.090942382812 3298.44482421875 L 1315.944702148438 3299.83251953125 L 1317.305786132812 3299.52490234375 L 1333.268432617188 3295.91845703125 L 1328.411865234375 3311.541015625 L 1327.997680664062 3312.873779296875 L 1329.392700195312 3312.837646484375 L 1345.75146484375 3312.413818359375 L 1337.937744140625 3326.791259765625 L 1337.271484375 3328.017333984375 L 1338.646606445312 3328.254150390625 L 1354.773071289062 3331.033203125 L 1344.307373046875 3343.605712890625 L 1343.414794921875 3344.677978515625 L 1344.717041015625 3345.1787109375 L 1359.991577148438 3351.052978515625 L 1347.274169921875 3361.343505859375 L 1346.189453125 3362.22119140625 L 1347.369140625 3362.96630859375 L 1361.203491210938 3371.704345703125 L 1346.72265625 3379.315673828125 L 1345.487182617188 3379.965087890625 L 1346.499267578125 3380.926025390625 L 1358.365478515625 3392.193115234375 L 1342.677124023438 3396.83544921875 L 1341.339233398438 3397.2314453125 L 1342.143920898438 3398.37109375 L 1351.5810546875 3411.73876953125 L 1335.288940429688 3413.232177734375 L 1333.8994140625 3413.359619140625 L 1334.466552734375 3414.634521484375 L 1341.117431640625 3429.583740234375 L 1324.84619140625 3427.86572265625 L 1323.458251953125 3427.718994140625 L 1323.765747070312 3429.08056640625 L 1327.371948242188 3445.04345703125 L 1311.74755859375 3440.188232421875 L 1310.415161132812 3439.7744140625 L 1310.451171875 3441.169189453125 L 1310.872924804688 3457.52685546875 L 1296.498046875 3449.714111328125 L 1295.27197265625 3449.0478515625 L 1295.035034179688 3450.423095703125 L 1292.25634765625 3466.552734375 L 1279.68359375 3456.084228515625 L 1278.611083984375 3455.19140625 L 1278.1103515625 3456.493896484375 L 1272.236938476562 3471.770751953125 L 1261.945434570312 3459.05078125 L 1261.067626953125 3457.9658203125 L 1260.322509765625 3459.145751953125 L 1251.586791992188 3472.981201171875 Z" stroke="none"/>
      <path d="M 1251.666015625 3470.98291015625 L 1260.96728515625 3456.251708984375 L 1271.925048828125 3469.79541015625 L 1278.178588867188 3453.52978515625 L 1291.56494140625 3464.67578125 L 1294.523315429688 3447.502685546875 L 1309.82861328125 3455.8212890625 L 1309.379638671875 3438.4052734375 L 1326.014892578125 3443.574462890625 L 1322.17529296875 3426.578125 L 1339.499633789062 3428.4072265625 L 1332.41845703125 3412.4912109375 L 1349.765502929688 3410.90087890625 L 1339.717651367188 3396.66845703125 L 1356.4208984375 3391.725830078125 L 1343.78662109375 3379.729248046875 L 1359.205322265625 3371.625 L 1344.475708007812 3362.321533203125 L 1358.016479492188 3351.36474609375 L 1341.753540039062 3345.1103515625 L 1352.896362304688 3331.724609375 L 1335.7265625 3328.765869140625 L 1344.045776367188 3313.458251953125 L 1326.62841796875 3313.909423828125 L 1331.799438476562 3297.275634765625 L 1314.804077148438 3301.115478515625 L 1316.62939453125 3283.788330078125 L 1300.713256835938 3290.873046875 L 1299.120849609375 3273.521240234375 L 1284.89208984375 3283.572265625 L 1279.947998046875 3266.867431640625 L 1267.952758789062 3279.502197265625 L 1259.844848632812 3264.08154296875 L 1250.545776367188 3278.813720703125 L 1239.583374023438 3265.272216796875 L 1233.3349609375 3281.53564453125 L 1219.943725585938 3270.3916015625 L 1216.989868164062 3287.56298828125 L 1201.682250976562 3279.243408203125 L 1202.133178710938 3296.660400390625 L 1185.4951171875 3291.48974609375 L 1189.3330078125 3308.484619140625 L 1172.010620117188 3306.65625 L 1179.091918945312 3322.57373046875 L 1161.741088867188 3324.165283203125 L 1171.7958984375 3338.398193359375 L 1155.090087890625 3343.338134765625 L 1167.723510742188 3355.334716796875 L 1152.302856445312 3363.443115234375 L 1167.034912109375 3372.74169921875 L 1153.493286132812 3383.7041015625 L 1169.7568359375 3389.953125 L 1158.613525390625 3403.34423828125 L 1175.783935546875 3406.297607421875 L 1167.46630859375 3421.606689453125 L 1184.884155273438 3421.15576171875 L 1179.712768554688 3437.791015625 L 1196.70556640625 3433.955078125 L 1194.879150390625 3451.275634765625 L 1210.797241210938 3444.197265625 L 1212.385498046875 3461.5458984375 L 1226.620971679688 3451.494140625 L 1231.562866210938 3468.197265625 L 1243.559814453125 3455.563232421875 L 1251.666015625 3470.98291015625 M 1251.507568359375 3474.979736328125 L 1243.088256835938 3458.96435546875 L 1230.627807617188 3472.08642578125 L 1225.494873046875 3454.737548828125 L 1210.709594726562 3465.177490234375 L 1209.059936523438 3447.15869140625 L 1192.526977539062 3454.510498046875 L 1194.423950195312 3436.5205078125 L 1176.774780273438 3440.504638671875 L 1182.145751953125 3423.227294921875 L 1164.055297851562 3423.695556640625 L 1172.693969726562 3407.79541015625 L 1154.860107421875 3404.72802734375 L 1166.434448242188 3390.819091796875 L 1149.54296875 3384.328857421875 L 1163.607299804688 3372.943359375 L 1148.3056640625 3363.285400390625 L 1164.322631835938 3354.86328125 L 1151.200439453125 3342.402587890625 L 1168.551513671875 3337.27197265625 L 1158.10888671875 3322.489990234375 L 1176.13037109375 3320.8369140625 L 1168.775024414062 3304.3037109375 L 1186.767333984375 3306.20263671875 L 1182.781372070312 3288.552001953125 L 1200.061645507812 3293.922119140625 L 1199.59326171875 3275.831787109375 L 1215.492065429688 3284.47265625 L 1218.56005859375 3266.63818359375 L 1232.468994140625 3278.213134765625 L 1238.958618164062 3261.32177734375 L 1250.34423828125 3275.38623046875 L 1260.002807617188 3260.084228515625 L 1268.424072265625 3276.10107421875 L 1280.882690429688 3262.97802734375 L 1286.017700195312 3280.328369140625 L 1300.7958984375 3269.889404296875 L 1302.44970703125 3287.910888671875 L 1318.9814453125 3280.55224609375 L 1317.08544921875 3298.549560546875 L 1334.737548828125 3294.561279296875 L 1329.366821289062 3311.837890625 L 1347.457275390625 3311.369384765625 L 1338.81640625 3327.268798828125 L 1356.649658203125 3330.341796875 L 1345.075927734375 3344.245361328125 L 1361.966674804688 3350.7412109375 L 1347.903198242188 3362.120849609375 L 1363.201782226562 3371.78369140625 L 1347.187866210938 3380.200927734375 L 1360.31005859375 3392.66064453125 L 1342.960815429688 3397.79443359375 L 1353.396606445312 3412.576416015625 L 1335.380249023438 3414.22802734375 L 1342.7353515625 3430.760009765625 L 1324.7412109375 3428.860107421875 L 1328.72900390625 3446.51220703125 L 1311.450805664062 3441.143310546875 L 1311.917236328125 3459.232666015625 L 1296.0205078125 3450.5927734375 L 1292.94775390625 3468.4296875 L 1279.043701171875 3456.852783203125 L 1272.548828125 3473.74609375 L 1261.168090820312 3459.6796875 L 1251.507568359375 3474.979736328125 Z" stroke="none" fill="#e8e7d9"/>
    </g>
    <text id="B2B" transform="matrix(0.927, 0.375, -0.375, 0.927, 1175.461, 59.345)" fill="#eae8d7" font-size="42" font-family="SegoeUI, Segoe UI" letter-spacing="-0.04em"><tspan x="-33.716" y="0">B2B</tspan></text>
  </g>
</svg>
