<svg xmlns="http://www.w3.org/2000/svg" width="36.154" height="23.865" viewBox="0 0 36.154 23.865">
  <path id="behance" d="M14.6,16.79s3.421-.266,3.421-4.446-2.8-6.222-6.346-6.222H0V29.494H11.669s7.126.233,7.126-6.9c0,0,.309-5.8-4.2-5.8ZM5.142,10.274h6.527s1.587,0,1.587,2.43-.933,2.786-1.993,2.786H5.142Zm6.2,15.065h-6.2V19.092h6.527s2.365-.032,2.365,3.209c0,2.734-1.767,3.017-2.7,3.038ZM28.295,12.066c-8.627,0-8.62,8.981-8.62,8.981s-.59,8.934,8.62,8.934c0,0,7.671.459,7.671-6.215H32.021s.131,2.515-3.594,2.515a3.7,3.7,0,0,1-3.949-4.068H36.091s1.282-10.147-7.8-10.147Zm3.51,7.026H24.438s.481-3.6,3.946-3.6,3.421,3.6,3.421,3.6Zm.917-11.6H23.469v2.882h9.252V7.494Z" transform="translate(0 -6.122)" fill="#fff"/>
</svg>
