<svg xmlns="http://www.w3.org/2000/svg" width="33" height="33" viewBox="0 0 33 33">
  <g id="close" transform="translate(-1.5 -1.5)">
    <path id="Path_1" data-name="Path 1" d="M24.51,13.983a1.5,1.5,0,1,0-2.046-2.195L18.075,15.88l-4.092-4.39a1.5,1.5,0,0,0-2.193,2.046l4.092,4.389-4.391,4.092a1.5,1.5,0,1,0,2.046,2.193l4.389-4.09,4.092,4.389a1.5,1.5,0,1,0,2.193-2.045l-4.09-4.389,4.389-4.092Z" fill="#fff"/>
    <path id="Path_2" data-name="Path 2" d="M1.5,18A16.5,16.5,0,1,1,18,34.5,16.5,16.5,0,0,1,1.5,18ZM18,31.5A13.5,13.5,0,1,1,31.5,18,13.5,13.5,0,0,1,18,31.5Z" fill="#fff" fill-rule="evenodd"/>
  </g>
</svg>
