<svg xmlns="http://www.w3.org/2000/svg" width="30.06" height="30.082" viewBox="0 0 30.06 30.082">
  <path id="instagram" d="M22.6.039H7.564A7.509,7.509,0,0,0,.052,7.526V22.633a7.509,7.509,0,0,0,7.512,7.487H22.6a7.509,7.509,0,0,0,7.512-7.487V7.526A7.508,7.508,0,0,0,22.6.04Zm4.73,22.594a4.727,4.727,0,0,1-4.73,4.714H7.564a4.727,4.727,0,0,1-4.73-4.714V12.877H8.778A7.053,7.053,0,0,0,8.1,15.9a7.136,7.136,0,0,0,14.271,0,7.041,7.041,0,0,0-.678-3.021h5.636v9.757ZM12.273,15.9a2.962,2.962,0,1,1,2.962,2.952A2.96,2.96,0,0,1,12.273,15.9ZM27.329,10.1H19.365a7.131,7.131,0,0,0-8.259,0H2.835V7.526a4.727,4.727,0,0,1,4.73-4.714H22.6a4.727,4.727,0,0,1,4.73,4.714V10.1ZM24.315,4.494H21.735a.836.836,0,0,0-.835.832V7.9a.835.835,0,0,0,.835.832h2.579a.836.836,0,0,0,.835-.832V5.326A.835.835,0,0,0,24.315,4.494Z" transform="translate(-0.052 -0.039)" fill="#fff"/>
</svg>
