<svg xmlns="http://www.w3.org/2000/svg" width="149.43" height="149.429" viewBox="0 0 149.43 149.429">
  <g id="logo" transform="translate(54.695) rotate(30)">
    <path id="Place_Your_Logo_Here_Double_Click_to_Edit_" data-name="Place Your Logo Here (Double Click to Edit)" d="M101.419,59.3l7.972-4.6-7.97-4.6,6.919-6.067-8.714-2.961,5.6-7.3-9.125-1.2,4.071-8.252-9.184.6,2.383-8.888L84.48,18.4l.6-9.181-8.256,4.069-1.2-9.125-7.3,5.6L65.368,1.052,59.3,7.972,54.7,0l-4.6,7.972-6.07-6.92L41.067,9.766l-7.3-5.6-1.2,9.125L24.309,9.217l.6,9.184L16.021,16.02,18.4,24.91l-9.184-.6,4.071,8.255-9.125,1.2,5.6,7.3L1.052,44.024l6.919,6.07L0,54.693l7.97,4.6-6.92,6.07,8.717,2.958-5.6,7.3,9.125,1.2L9.217,85.081l9.184-.6L16.02,93.369l8.89-2.382-.6,9.184L32.563,96.1l1.2,9.125,7.3-5.6,2.957,8.714,6.07-6.917,4.6,7.969,4.6-7.969,6.067,6.92,2.961-8.717,7.3,5.6,1.2-9.125,8.254,4.071-.6-9.184,8.889,2.384-2.38-8.893,9.183.6L96.1,76.826l9.124-1.2-5.6-7.3,8.714-2.958Z" transform="translate(0 0)" fill="#0b5e98"/>
    <text id="Nuecial" transform="translate(56.383 62.587) rotate(-13.98)" fill="#eae8d7" font-size="21" font-family="SegoeUI, Segoe UI" letter-spacing="-0.04em"><tspan x="-32.046" y="0">Nuecial</tspan></text>
    <text id="MEDIA_AGENCY" data-name="MEDIA AGENCY" transform="translate(56.42 73.71) rotate(-13.98)" fill="#eae8d7" font-size="5" font-family="SegoeUI, Segoe UI"><tspan x="-17.568" y="0">MEDIA AGENCY</tspan></text>
  </g>
</svg>
