<svg xmlns="http://www.w3.org/2000/svg" width="26" height="26" viewBox="0 0 26 26">
  <path id="search" d="M18,11a6.741,6.741,0,0,0-2.055-4.945A6.744,6.744,0,0,0,11,4,6.74,6.74,0,0,0,6.054,6.054,6.74,6.74,0,0,0,4,11a6.745,6.745,0,0,0,2.055,4.945A6.741,6.741,0,0,0,11,18a6.738,6.738,0,0,0,4.945-2.055A6.749,6.749,0,0,0,18,11Zm8,13a2.028,2.028,0,0,1-2,2,1.857,1.857,0,0,1-1.406-.594l-5.36-5.344A10.7,10.7,0,0,1,11,22a10.805,10.805,0,0,1-4.273-.867A10.77,10.77,0,0,1,.867,15.274a10.961,10.961,0,0,1,0-8.547A10.77,10.77,0,0,1,6.727.867a10.961,10.961,0,0,1,8.547,0,10.77,10.77,0,0,1,5.859,5.859A10.792,10.792,0,0,1,22,11a10.7,10.7,0,0,1-1.938,6.234l5.36,5.36A1.914,1.914,0,0,1,26,24Z" fill="#355e98"/>
</svg>
