<svg xmlns="http://www.w3.org/2000/svg" width="328.628" height="127.751" viewBox="0 0 328.628 127.751">
  <path id="Sketch-form" d="M215,126.314a7.337,7.337,0,0,0,2.516,1.085l-2.239.35Zm-6.39-.885,1.174.18,1.742,1.365Zm.014-1.786c-2.162-.808-4.378-1.616-5.358-1.326l-8.068-4.431c.106.528-1.534.627-.221,1.3-2.113-.779-3.973-1.419-1.449.242-19.252-10.636-41.223-15.81-60.677-24.98-1.393-.415-.767.282-.346.744-2.108-1.608-3.055-1.468-4.017-1.327a3.8,3.8,0,0,1-1.81-.063l-4.8-3.632c-2.372-.366-.843.766-1.122,1.021C110.408,87.606,101.03,82.276,92.4,80.054c-2.069-1.342.2-1.144-1.2-2-.184-.024-.374-.047-.574-.069.744.821-.483.587-2.238.059l1.6-6.182c2.939.2,7.4.847,6.554.136,3.557,2.142,12.872,2.127,10.954,4.379,4.395.767,3.806-.572,2.566-.977a64.434,64.434,0,0,0,13.536,1.184c2.7.98,23.17,2.58,27.69,5.082-1.914-1.1-.953-.941.825-.784a20.857,20.857,0,0,0,2.671.1l-2.547-1.465,6.73,1.042c1.389.084,1.769.182,1.749.279,1.137.21-.358.6,2.509,1.269,4.584.695,4.89.123,7.492-.1l-.68-.257,3.129.32c2.29.345-8.257-.012-.853,1.567.15-.288,4.746-1.137,6.647-.079-3.812-.574-3.435.254-2.074.768l5.345.8-1.58-1.627c15.344,2.149,31.191,5.27,47.6,7.32-.383,1.19,11.605,1.568,9.894,3.163l-.608-.253c-4.052-.344.986,1.563,4.292,1.782-3.356-1.009,6.381-1-1.922-2.338l6.553-.021c4.014-2.97,17.152,2.47,27.059,2.54-.706.049-.908.21-1.006.307a69.673,69.673,0,0,1,12.723,1.454c4.243.8,7.628,1.6,8.711,1.432l.667,1.029c1.289-.111,2.384-.2,3.358-.272a2.5,2.5,0,0,1-.689-.827c-2.03.31-8.86-1.3-11.957-1.78.014-.126-.138-.306-.6-.582-3.966.491-10.049-3.432-14-4.395-2.655-.379-1.694.42-.723,1.223-4.692-2.651-14.283-2.782-15.975-3.824-3.652-1.21-1.054-1.483-1.88-2.4-2.363-.579-2.687-.156-2.818.266-.176.571,0,1.141-4.035-.753.89.131,2.5.5,1.936.154-2.741-1.063-6.782-5.8-9.766-5.991l1.693,1.058c-5.328-.815-11.4-5.925-12.79-4.28l.213,1.024c-8.451-3.82-3.84-.772-12.446-4.5l.155-.112c-3.939-1.013-5.71-2.752-8.044-1.918l1.279.6c-4.857-1.357-5.257-1.594-10.147-3.158a10.705,10.705,0,0,1-3.651-1.058c-.581,1.105-11.563-2.955-13.729-3.7,3.941,1.021,2.253-.043,1.3-.86-2.584.256-4.2-.131-7.155-1.8-.9,1.321-2.014,2.683-8.3.847,1.038.08,2.6.421,2.065-.069a5.649,5.649,0,0,0-2.626-.655c-.531-.49,1.553-.106,1.007-.83-4.657.095-7.333-2.154-13.609-3.547,2.078.16.494-.64-.049-1.36-.451.687-2.142-.091-3.69-.868-1.844-.926-3.484-1.852-2.577-.3-11.6-4.976-30.407-9.525-34.652-12.346-1.072-.99-4.711-1.059-6.807-1.682l.509-.635c-6.249-.506-4.7-.927-11.975-1.741,3.112.024,2.048-.742-.6-2.317l-5.183.039-.567-1.4a21.9,21.9,0,0,1-6.213-1.844c-1.2.329-3.8-.182-6.19-.693a20.561,20.561,0,0,0-4.793-.77c-1.633-2.173-5.764-1.377-6.862-3.282A19.127,19.127,0,0,1,60.3,28.3c.806.979.946,1.837-.851.917l-.456-.115.491,1.023c.035.905-2.325-.984-4.519-2.414a17.414,17.414,0,0,0,4.028,1.39L58.44,27.96c-2-.4-4.006-.918-5.314-1.309a14.96,14.96,0,0,1,1.835,1.057q-1.154-.612-2.208-1.17l-.69-.229a2.333,2.333,0,0,1,.432.09A11.575,11.575,0,0,0,48.4,25.1c-6.351-3.467-15.644-2.878-22.531-7.072,1.062.542,2.622,1.122,3.146.941-6.278-1.877-12.09-5.09-16.253-5.66l.024.907c-4.7-1.072-8.323-1.923-12-3.144l-.5.864L0,11.83,2.9,0c5.59,1.276,17.38,1.851,20.375,4.378,1.488-.526,7.62,1.574,10.813,1.873l.671.873a55.245,55.245,0,0,0,9.131,1.365c8.058,3,16.036,2.844,23.3,4.234l.03.225,7.476.775c-.892.139-.718.12-.057.1a14.785,14.785,0,0,1,3.779.273,33.2,33.2,0,0,1,8.88,1.881l4.7.866c-5.318-.423.184,1.122.331,2.022l3.126-.149c1.14.62-2.054.321.134.894a36.436,36.436,0,0,1,4.088.289c2.3.23,4.792.458,5.962.14a5.939,5.939,0,0,0-1.8-.915c-.263.008-.247,0-.074-.03l-.2-.082.247.073a4.5,4.5,0,0,0,.88-.191c3.708.846,2.4.256,2.333-.148,3.806,1.963,6.281,1.638,9.063,3.408-1.172-.9,1.234-.457,3.712-.014,2.573.46,5.225.921,4.035-.122,2.931,1.9,2.156.445,3.982,1.945a36.812,36.812,0,0,0-9.955-.774c-.969.015-1.9.031-2.777.02l3.383,1.424c-1.45.626-3.757-.081-5.885-.789a13.984,13.984,0,0,0-4.114-1.025,10.361,10.361,0,0,1,4.6,1.1l-.7-1.258c-4.947-1.347-9.112-1.149-12.785-1.2,3.3.975-4.212-.024-1.909,1.223l2.688.327c1.149.624-1.494.521-3.05.6C89.05,21.279,73.5,19.3,70.65,17.858a21.713,21.713,0,0,0,6.438.824l-3.863-1.175c3.213.525,5.564,2,10.364,2.447-.668-.872,2.941-1.271-.473-2.918a18.391,18.391,0,0,0-8.88-.975,28.572,28.572,0,0,1-9.76-.626c-1.049.049,2.493-.8-3.385-1.423-7.438-.551-13.088.173-13.354,1.766,3.158.076,9.475.227,10.216,1.547-3.154-.074-8.509-.725-8.914-.025a3.586,3.586,0,0,1-.427-.312,131.821,131.821,0,0,0-18.049,1.005l5.224.888,1.063,1c6.781,1.242,13.936-.925,15.985-1.439,3.671,1.435,1.672,3.211.646,3.355a16.673,16.673,0,0,0,7.683.843,16.017,16.017,0,0,1,7.914.986l-2.643-1.35c1.82.346,8.061,2.779,7.5,2.163,1.193.962,2.074,2.567.813,2.693l6.752,0c-.907.076-.849,1.876-1.338,2.053,2.5.852,4.9-.481,3.753-1.309,4.543,2.731,3.559,1.709,7.235,4.463,1.566.355.441-1.906-.617-2.444a26.538,26.538,0,0,1,7.139,2.157c-5.943-1.022-2.782,3.453-4.28,4.451l13.91-1.41a6.412,6.412,0,0,0-2,1.778c1.51-1.232,15.643,2.937,22.46,5.286l-1.039-.31c-1.559.1,4.228,2.373,6.819,2.578-.507.185-1.036-.083-2.078-.389a8.128,8.128,0,0,0,5.371,1.08,7.96,7.96,0,0,1,5.587,1.241c-4.2-1.46-5.231-1.1-5.206-.411,3.654.521,11.535,3.617,10.412,1.265,2.117,1.074,4.2,1.462,3.719,2.329l8.9,1.549c-.7-.006-1.413.364,1.052,1.263-4.723-1.725-9.9-1.447-12.051-3.428-.476,1.1,1.141,2.258-1.453,2.506,9.427,2.318,15.1,1.953,21.336,2.436l7.9,3.317.5-.412,1.016,1.739c.255,0,.49,0,.7,0,.715,0,1.18,0,1.313.142.151.174-.159.267-.621.337a10.682,10.682,0,0,0,2.141.311c.11.783-1.572,1.129-3.331,1.368l.63.458-2.491-.2,1.861-.261-2.025-1.411c-1.8.164-3.162.486-1.066,1.6l1.229.07c-1.172.175-1.924.384-1.229.809l6.43,1.283c-.656-.4-1.6-1.092-2.709-1.9,4.171.344,8.951.671,5.729-1.28l4.516,2.226c5.972.418,4.923.383,12.012,1.489.235.568-1.693.4-.574,1.106,5.4.041,11.571,5.391,13.043,4.429,2.279.5,2.645.252,2.976,0,.266-.2.509-.4,1.688-.212-.165.107-.491.322.242.57l3.3-.018c1.121.7-2.98-.189.308,1.241,6.043,1.055,9.607,1.606,14.345,3.522,3.478.927,2.905.252,2.161-.422s-1.687-1.367,1.233-.385c.63,1.024,1.116,2.162,4.74,3.379a7.957,7.957,0,0,0,1.667-.13,8.824,8.824,0,0,1,3.729.142l-.558,1.112c3.054.851,5.547,1.355,5.306,2.248a16.11,16.11,0,0,1,5.566,1.408c4.793.747-2.686-3.39-3.624-4.171,4.271,2.228,7.553,2.645,9.72,4.826l-4.1-.872c8.132,4,8.609.733,11.849,4.383-2.911-.946-6.62-1.343-5.078-.194l4.432.631c.175.2-.259.134-.666.073-.543-.082-1.039-.164.017.365,1.289.095,3.949.211,5.159.137l-.078.057,7.035,1.847c-.854-.158-.953.132.227.519l5.215.828c-1.626-.135-.152.671,2.057,1.5a9.914,9.914,0,0,0,5.81.572c1.339-.257,2.389-.514,4.828.841-.726-.231-.886-.116-1.621-.349l2.445,1.255c.652-1.148,4.426-.223,8.228.7s7.653,1.854,8.41.694c2.728,1.514,1.576,1.2-1.049.876a31.852,31.852,0,0,0-4.024-.265l3.821,1.752c-1.729-.329-2.975-.863-4.748-1.065a26.623,26.623,0,0,0,7.51,2.181c.634.115,1.285.236,2.049.436a5.626,5.626,0,0,1,1.9.887c.178.131.349.272.513.419l.265.258a5.355,5.355,0,0,1,.676.967,4.957,4.957,0,0,1,.631,2.427,5.247,5.247,0,0,1-1.42,3.5,5.859,5.859,0,0,1-1.924,1.294c-.247.1-.5.191-.754.268-1.442.4-1.757.425-2.41.576l-1.408.283c-2.2-.459,1.679-1.833-4.408-1.726-4.255-.061-3.853.454-3.057.969s1.945,1.014-.572.973l-3.518-1.657c-6.475.437-11.111-1-16.421-1.752a6.778,6.778,0,0,0-2.134.156l.184.03-.391.113a.44.44,0,0,1,.2-.143,42.306,42.306,0,0,0-9.141-.6,33.49,33.49,0,0,1-7.1-.411c1.032-.155-2.336-1.135-2.809-1.521l-7.566-.112c3.215.03,3.18-.739,3.878-1.392a22.446,22.446,0,0,0-3.217-.049,18.938,18.938,0,0,1-2.025.013c1.032-.148,2.074-.3.846-.8l-8.225.265a12.845,12.845,0,0,0,2.151.488c-2.016-.243-6.439-.309-9.242-1.3.293-.263,1.318-.414,1.6-.681a5.857,5.857,0,0,0,5.109.188c-5.579-.569-1.363-.369-3.969-1.252-3.927-.467-5.666.344-4.719,1.12-4.395-.857-5.776-1.238-10.4-1.048l.993-.931-4.2-.21,3.534-.835c-3.94-.871-4.364-.471-4.9-.071s-1.186.8-5.573-.068l.1-.919a14.152,14.152,0,0,0-2.952.254c-1.576.273-2.732.546-4.372-.4-3.379.12,5.484,2.037-2.308,1.2a35.464,35.464,0,0,0-6.415-1.868c-2.308.08,1.023,1.119,2.852,1.367-11.149-1.153-6.511-4.044-16.988-4.231,3.5,1.136-3.232,1.371,5.26,2.475a20.582,20.582,0,0,1-5.505-1.006,17.89,17.89,0,0,0-6.65-.954l2.909-.8a21.812,21.812,0,0,0-4.13,0l.466-.855a18.411,18.411,0,0,1-6.667-.377c-2.394-.466-4.477-.933-6.322-.032,2.38-1.336-3.9-.431-5.89-1.347a30.8,30.8,0,0,1,6.854.329c3.078.374,5.79.749,6.229-.059-1.939-.725-3.825-.229-5.7-.933a18.69,18.69,0,0,0,3.953-.407,29.414,29.414,0,0,0-10.595-.788,37.455,37.455,0,0,1-3.945.14l7.115.612c-.425.779-1.346.654-2.445.529a5.665,5.665,0,0,0-2.913.2c-3.426-1.287-6.353-.5-9.167-1.386a3.917,3.917,0,0,0,.8.042,3.741,3.741,0,0,1,.635.021c-7.567-1.033-9.368-3.738-12.4-4.2-2.981-.608-8.79-.575-6.815.346-2.523.079,10.292.959,5.621,2.3-4.085-2.856-9.162-.4-18.531-3.268,4.307-.219-2.288-1.608,1.541-1.694-4.591-.448-4.808-.138-6.929.216l-1.277-.894c-1.009.122-1.732.236-2.274.34,2.589.958,5.125,1.865,7.566,2.667l-3.3-1.6c1.671.7,7.323,2.084,10.17,3.83a23.647,23.647,0,0,1-2.491-.76c-.076.486.962,1.641,3.477,2.727l1.246-.307.832.924c1.948.749,1.754.394,1.562.04s-.384-.708,1.564.04c1.526,2.828,16.693,6.659,19.4,9.666,3.191-.408-7.3-3.016-3.9-3.193a22.041,22.041,0,0,0,4.032,2.212l-.551-1.181c11.617,4.98,15.845,7.42,26.419,11.243l-.492.022c3.614,1.753,5.689,2.369,7.64,2.271.292.325-.159.318-.587.31-.486-.008-.941-.017-.238.464,7.42.338,12.559,6.611,17.156,6.622-1.178,1.515,6.808,6.429,2.711,6.4l2.775.824a.975.975,0,0,1-.5.1A18.677,18.677,0,0,1,208.625,123.644Zm113.062-16.868,0,0-.006,0C321.672,106.789,321.678,106.786,321.687,106.776ZM160,88.578ZM265.23,82.625c-.676-.768-3.109-.866-4.3-1.018C262.779,82.474,263.636,83.258,265.23,82.625Zm-113.848-.9Zm9.7-.246-1.026-.385C159.359,81.266,158.657,81.411,161.085,81.475ZM171.3,56.787a16.2,16.2,0,0,0,3.56,1.3,7.991,7.991,0,0,0-3.473-1.3ZM81.309,33.1a1.19,1.19,0,0,1-.43.206C81.825,33.584,81.311,33.318,81.309,33.1Zm31.806-9.119Zm3.438-1.519ZM49.162,17.006Zm1.232-.334c1.329.162,2.515.323.537-.595a11.8,11.8,0,0,0-3.4-.093,6.163,6.163,0,0,0,.939.648.937.937,0,0,1,.492-.084A13.541,13.541,0,0,1,50.394,16.673Zm33.05-.781.132-.023c-.98-.269-1.693-.482-1.708-.481S82.3,15.527,83.444,15.891ZM44.424,14.8a21.661,21.661,0,0,1,2.636.888,24.752,24.752,0,0,0-2.7-1.335l-.047-.008C44.1,14.4,44.09,14.539,44.424,14.8ZM48.2,15.01ZM27.8,12.878c6.485,2.263,13.355,2.176,13.952.987-2.042-.408-3.853-.822-5.659-1.246l-5.236-.975a.221.221,0,0,1,.138-.212c-.567-.127-1.151-.255-1.756-.384C28.307,11.5,26.609,12.1,27.8,12.878ZM17.047,11.131ZM9.089,11a2.06,2.06,0,0,0,1.1-.767l-.27-.055A6.083,6.083,0,0,0,7.23,10.05C8.216,10.556,8.937,10.918,9.089,11Zm1.236-.948a3.682,3.682,0,0,0,.229-.388c-.47-.07-1.007-.13-1.654-.178C9.514,9.725,9.981,9.91,10.325,10.048Zm15.026-.176c-.221-.224-.364-.457-.218-.61a18.6,18.6,0,0,0-1.979-.033C23.7,9.425,24.494,9.655,25.351,9.872Zm.237-.707ZM1.365,8.72a.376.376,0,0,1,.023-.055l.378-1.542c.368.212.763.433,1.172.658C4.146,7.3,5.4,6.792,4.108,5.96A15.42,15.42,0,0,0,2.262,5.1l.432-1.76-.01,0L2.254,5.1,2.019,5,1.532,6.987l.226.131ZM194.979,119.182c1.028.38,2.113.792,2.8,1A18.182,18.182,0,0,1,194.979,119.182ZM317.5,111.47c-.177-.713.221-.678,1.114-.472a14.087,14.087,0,0,0,3.054.448c-.96.043-1.789.074-2.572.074C318.553,111.521,318.031,111.506,317.5,111.47Zm4.168-.023,1.685-.078c-.574.056-1.074.079-1.514.079Zm-33.386-3.735,2.11-.612c-.232.3.538.721-.628.721A14.248,14.248,0,0,1,288.284,107.712ZM263.751,104.3l.228,0Zm-51.224-6.926.5.049C212.877,97.419,212.71,97.4,212.527,97.378Zm71.231-.274c-.161-.259.476-.239,1.563-.071-.012.108-.179.165-.522.165A7.8,7.8,0,0,1,283.758,97.1ZM294.489,89.7l.726.23.338,1.237Zm-3.564.291a15.689,15.689,0,0,1,1.72.259Zm-114.863-.524c.119.044.23.086.334.124-.313.009-.591.014-.811.014C174.9,89.6,174.8,89.555,176.063,89.463Zm109.421-.822a5.573,5.573,0,0,1,.7.185ZM133.2,86.605c.35.113.581.208.49.293Zm145.724-.143c.485.159.215.238-.4.274ZM122.709,82.617l.324.157A2.645,2.645,0,0,1,122.709,82.617Zm129.9-5.781.325-.217,2.251,1.4C253.728,77.532,253,77.29,252.608,76.837ZM96.248,71.809a1.808,1.808,0,0,1,.286.186Q96.384,71.9,96.248,71.809ZM182.1,58.36a26.692,26.692,0,0,1,3.019,1.487Zm-.346.31c.891.448.828.616.337.63A.89.89,0,0,0,181.752,58.669Zm92.492-9.423c.012.107-.267-.114-.26-.335s.318-.453,1.55-.327c-.2.087.034.732-.752.732A2.474,2.474,0,0,1,274.244,49.246Zm-27.189-2.454,3.635-.175-.476.248Zm-7.074-1.474c-3.866-1.175-10.081-.658-11.939-2.372,3.315.971,9.678,1.35,14.51,2.024l-1.974.769Zm-13.318-1.179c-.04-.255,1.027.023,2.145.3a10.313,10.313,0,0,0,2.168.4l-2.075.1Zm-13.944-4.991c3.169.078.973-.5-.7-1.1,4.41.632,5.923,1.4,3.959,1.4A25,25,0,0,1,212.719,39.148Zm-23.89-.688c.005.062-.014.118.19.228C188.179,38.518,188.362,38.48,188.83,38.461Zm14.336.012,6.845.126-5.766.049Zm13.157-.194c.067,0,.728,0,.41-.326l2.253.428c-.8-.391,0-.238.476-.084.391.125.573.251-.476.084l.476.221C216.782,38.278,216.257,38.278,216.323,38.278Zm-27.445-.486a5.9,5.9,0,0,0-2.637-.1,9.766,9.766,0,0,1-2.883-2.351,28.169,28.169,0,0,0,5.494,2.227l.512-.024c3.042.942.5.875-.534.914C188.8,38.18,190.263,38.287,188.878,37.792Zm17.809-.459,3.454.177c-1.487.03-2.223.3-1.876-.055a2.185,2.185,0,0,1-.909.311C207.027,37.766,206.944,37.52,206.687,37.333Zm-11.225-.984c-3.126.149-.887.947-2.418,1.246C189.136,36.2,193.385,36.448,195.462,36.349Zm9.6.9c.959-.215,1.372-.1,1.629.084Zm3.09-.468c-1.7-.825-2.3-1.248.9-.947-1.057.045,1.67.6,2.257,1.019Zm-24.965-1.659c.059.074.117.147.175.219C183.146,35.21,183.072,35.129,183.182,35.123ZM97.893,32.148a9.743,9.743,0,0,0,5.719,1.059l-4.59,1.8Zm84.847,2.008,3.977.121c-1.029.049-.433.474-.4.7Zm3.947-.2,3.487.107c.069.178-.05.3-.581.3A17.465,17.465,0,0,1,186.686,33.955Zm-5.76.146.486-.248,1.327.3Zm9.247-.04c-.165-.408-1.307-1.1-1.064-1.352.079.451,2.261,1.021,3.394,1.423ZM164.4,32.623l5.872.624c-.468.252.153.9-3.117.151l.075.45Zm16.516.17.336.063a.294.294,0,0,1-.138.042A.306.306,0,0,1,180.921,32.793Zm-1.337-.247L178.39,31.5a4.823,4.823,0,0,1,2.531,1.29C180.453,32.707,179.992,32.621,179.584,32.547Zm-2.881-.555,2.881.555.042.034C177.952,32.244,177.072,32.067,176.7,31.991Zm-79.03.058.188.016.032.084C97.83,32.119,97.743,32.081,97.673,32.049Zm50.049-.328a3.892,3.892,0,0,0-.8-.076c-2.2-.572-.63-.649,1.532-.3l.063.446-.093,0A4.423,4.423,0,0,1,147.722,31.721Zm23.446-.677c.106,0,.242.009.355.015.006.061-.022.086-.073.086A.746.746,0,0,1,171.168,31.044Zm-2.629-.187a15.767,15.767,0,0,1,2.144-.129c-.19-.161-.237-.256.24.005l-.237,0a2.607,2.607,0,0,0,.483.316C170.388,31.028,169.5,30.961,168.539,30.857Zm-3.416-.3c-.507-.049-.469-.12-.32-.212,1.321.227,2.561.391,3.736.513a10.079,10.079,0,0,1-1.029.059A8.583,8.583,0,0,1,165.123,30.556Zm-24.151.015c-3.382-1.422-7.587-1.45-7.992-.752-1.117-.4.445-.472.4-.7l-4.229-.248c-.787-1.551,7.254-.571,5.465-1.847,2.228.8,1.26,1.3,6.055,1.746,3.129-.146-3.442-1.866-4.62-2.494,3.647.188,3.7-.114,3.865-.42,2.761,1.89,4.586,4.713,1.142,4.713Zm37.2-.509-2.044.324-1.566.073ZM158.616,29a28.285,28.285,0,0,0,5.271.478c2.218.362,1.247.66.916.861C162.774,29.988,160.654,29.526,158.616,29Zm-6.7,1.048c-2.005-1.26,1.583-.985,2.873-1.6-3.289-.483-5.139-.787-6.592-1.158l7.044.781.023.015c-.014.042-.076.07-.106.105a.812.812,0,0,0,.148.009c.328.119.239.04-.042-.114l.009-.013-.032,0L155.085,28c1.111.35,2.3.685,3.531,1-1.166-.17-2.4-.345-3.793-.447,4.943,1.346-4.124.425,2.866,1.447a5.925,5.925,0,0,0-1.864.159,4.642,4.642,0,0,1-1.272.168A17.222,17.222,0,0,1,151.912,30.052Zm2.874-1.6a.849.849,0,0,0,.368-.251c-.325-.008-.917-.076-1.174-.076S153.8,28.191,154.786,28.451Zm6.179-.9a32.069,32.069,0,0,1,6.311.086c-1.567.074,1.747,1.048.224,1.346A22.378,22.378,0,0,0,160.964,27.554Zm-8.49-.469c.324-.16,1.866.522,2.611.916C154.146,27.7,153.254,27.4,152.474,27.085Zm-68.756.67a1.525,1.525,0,0,1,.2.119Zm74.116-.114a17.986,17.986,0,0,1,3.129-.086c-.891.049-1.726.1-2.522.1Q158.135,27.65,157.835,27.64Zm-11.128-.508.522-.022-7.212-1.378c.212-.219.768-.407,3.275-.341a26.4,26.4,0,0,0,4.9,1.907ZM119.844,26.6l1.495-.522.7,1.1ZM81.5,27.13a.751.751,0,0,1,.123,0Zm31.351-1.556,2.726.55,1.111.4ZM125.9,25.6c1.353.127,2.606,0,2.246.376C127.421,25.811,126.654,25.7,125.9,25.6Zm13.743.058.374.073-.1.127Zm-19.12-1.354c2.637.1,5.286.2,4.381,1.147l.429.076C122.881,25.242,120.661,25.119,120.523,24.305Zm15.884.731,3.565-.622-.921.723ZM107.93,23.91c1.019.062,2.473.284,3.148.394q-.08,0-.167,0A18.36,18.36,0,0,1,107.93,23.91ZM103,23.1c-.042-.3,2.543.353,4.927.806-.618-.035-1.127-.029-1.1.14Zm26.834.21,2.069-.1-.41.7ZM108.4,22.823a1.052,1.052,0,0,0-.679.282C107.795,22.928,108.06,22.856,108.4,22.823Zm.008,0h0Zm.022,0-.022,0Zm5.91-2.476,3.123.333c-.531-.01-.088.324-.056.516A11.925,11.925,0,0,0,114.342,20.344Zm3.123.333a2.863,2.863,0,0,1,.385.041Zm-45.515-1.3a4.661,4.661,0,0,0,1.74,1.048l-2.075.1Zm-13.857.455c1.288-.014-3.436-1.509-2.157-1.592,1.781.816,2.237.8,2.526.649-.747-.189-.206-.232.6-.25a1.367,1.367,0,0,1,.155,0,11.456,11.456,0,0,0,2.084-.112c2.992.741,1.056.617-.177.642q.252.1.542.219c.449.768.373,1.016-.15,1.016C60.917,20.4,59.736,20.075,58.093,19.832Zm-1.586-.185c.567.044,1.093.111,1.586.185A10.033,10.033,0,0,1,56.507,19.648Zm45.06-1.241c.743.192,1.419.4,2,.6C102.494,18.717,101.887,18.529,101.568,18.407Zm1.746.159c1.445.108,1.609.225,1.383.325Zm-4.319-.7c1.1.171,1.764.275,2.235.347-.089.013.034.082.338.194C100.757,18.2,99.911,18.014,98.995,17.866Zm2.235.348a2.511,2.511,0,0,1,.563.043c.153.024.259.048.2.048S101.715,18.283,101.229,18.214Zm-5.365-.3c-6.39-.6,2.948-1.173,1.491-.425-.3-.215-.393,0-.555.207a.637.637,0,0,1-.538.3A1.19,1.19,0,0,1,95.864,17.917Zm-38.8-2.809,4.28.473c.441.318-.325.315-1.18.313-.3,0-.6,0-.871.012C57.7,15.757,56.58,15.356,57.068,15.108ZM48.983,9.183a44.277,44.277,0,0,1,5.257,1.436,1,1,0,0,1-.585.156C52.667,10.774,51,9.93,48.983,9.183Zm-5.09-.7c-.374-.133-.72-.257-1.1-.391a14.291,14.291,0,0,1,6.188,1.086A42.961,42.961,0,0,0,43.893,8.487ZM1.758,7.118l.5-2.02.008,0-.5,2.021Z" transform="translate(0 0.001)" fill="#355e98"/>
</svg>
