<svg xmlns="http://www.w3.org/2000/svg" width="285.122" height="79.842" viewBox="0 0 285.122 79.842">
  <path id="Sketch-left-side" d="M226.178,78.945c1.206.171.65.744.808.9C225.014,79.314,226.261,78.784,226.178,78.945Zm-21.928-6.14,2.485.879.3.334Zm-15.966-2.639c1.958-.783,6.651,1.459,10.013,1.69l.591-.15,1.31,1.182C196.231,71.981,191.157,70.393,188.284,70.166Zm-8.416.866c.748.156.718.209.476.209C179.96,71.242,179.044,71.107,179.868,71.032Zm-1.884-.334c.692-.319-2.056-.78,2.32.3l-.436.03Zm-7.04-1.632,2.484.877a5.725,5.725,0,0,1-1.292,0c-.673-.04-1.238-.081-.769.12C168.781,69.354,169.369,69.2,170.943,69.067Zm3.4.158c1.483.033,3.366.234.872-.643,3.1.694,3.869,1.208,2.766,1.208A19.566,19.566,0,0,1,174.338,69.224Zm13.226-.393,1.982.04,1.588.692C190.341,69.22,187.378,69.158,187.565,68.831Zm-17.6-.625c.405-.109.514-.464,1.267.371-.166-.375.329.05,1.479.513Zm-1.295-.419,1.295.419a.819.819,0,0,1-.2.025A2.09,2.09,0,0,1,168.673,67.788Zm-1.112-1.51.893.183,4.481,1.746Zm-11.44-.419-2.751-.949c2.536.434,2.961.717,2.751.949l1.838.635c-1-.024-2.873-.227-3.07.1C154.775,66.327,155.872,66.127,156.121,65.86Zm3.287-1.9c1.1.686-.877.643,1.516,1.683C159.334,64.956,155.948,63.893,159.408,63.964Zm-16.524.074,1.2.519,1.5.858Zm7.47-.453,3.034.422c-.093.165-.684.319.1.661Zm-4.179.773,1.24-.455L145,63.481l2.454.408-.044.015,1.116.2a3.228,3.228,0,0,1-1.549.291C146.75,64.4,146.483,64.386,146.175,64.359Zm2.356-.252c.119-.045.188-.055.28.051ZM131.416,62.27a18.717,18.717,0,0,0,5.52.821c1.1.682-1.774.459-.574.979A26.729,26.729,0,0,1,131.416,62.27Zm17.813,1.159-.306-.337,1.431.494Zm1.96-.581-.2.119C150.9,62.93,150.984,62.888,151.189,62.848Zm5.336.066-.392-.17a23.482,23.482,0,0,0-4.944.1,8.138,8.138,0,0,1,2.945-.973,4.958,4.958,0,0,0,2.086.7c1.227.025.056-.324.161-.534.709.3,2.391.894.828.894C157.027,62.939,156.8,62.931,156.525,62.913Zm-16.589-.233a12.976,12.976,0,0,1-1.633-.734c.775.2,1.491.414,2.1.633a2.152,2.152,0,0,0-.471.1l.188.067a2.248,2.248,0,0,1-.276.027C139.724,62.774,139.8,62.73,139.937,62.68Zm.471-.1c.189-.023.335-.013.282.092C140.6,62.643,140.492,62.606,140.407,62.58ZM129,61.278c.773.261,1.558.614,2.415.993A14.99,14.99,0,0,1,129,61.278Zm27.594.646c-.191.025-.192.075-.215.121C156.022,61.891,155.891,61.807,156.6,61.923Zm-21.359-.684c.2.255.868.774-.97.4a23.715,23.715,0,0,0-4.252-1.189c1.744.2,3.535.466,5.221.791-.089-.115-.1-.182.313-.069a6.95,6.95,0,0,1,2.753.777C137.35,61.694,136.335,61.454,135.237,61.239Zm.368-1.888,2.569-.114-.192.328c2.771.387,2.1.705,2.384,1.04Zm-8.64.834.141-.017-5.724-1.479c1.244.142,2.776.455,5.483,1.052-.824-.857-3.7-1.7-1.766-2.089,3.576.733,2.4,1.044,4.49,1.745-3.315-.734-2.284-.392-1.626-.05.483.251.764.5-1.039.326,1.115.333,2.131.563,3.091.775C128.959,60.33,127.935,60.24,126.965,60.184Zm.167-.01,0-.012c.266-.036.358-.072.067-.078a.807.807,0,0,0-.118-.036.725.725,0,0,0-.212-.3c-1.7-.182-.3.124.212.3.013.036.052.078.051.114l-.023,0Zm-2.475-.052c.7-.011,1.485.017,2.308.062a12.39,12.39,0,0,1-1.364.083A1.8,1.8,0,0,1,124.657,60.123Zm-10.114-2.637,6.032,1.065-.4-.172,1.207.309a22.2,22.2,0,0,0-4.387.033C115.021,58.031,114.644,57.719,114.543,57.486Zm-3.021-.528,2.092.705.5.834Zm2.708.474.275-.073c-.038-.288.011-.536-2.888-1.471a18.174,18.174,0,0,1,1.977.015c1.863.064,4.014.13,2.366-.585-2.751-.762-3.242-.642-4-.523a6.551,6.551,0,0,1-1.236.087c1.773-.461-4.787-2.08-3.713-3.052l3.372,1.059c.1-.164-1.1-.684-.109-.663.109.663,3.4,1.884,6.454,1.781,2.8,1.017.518,2.694-2.219,3.35l.038.126ZM262.958,53.27l-2.279.25c.643.038.733.173,1.368.21-4.441.637-3.081-1.85-8.715-2.051-1.967-.013-3.356.177-2.048.553l-4.311-.9c-1.036-.049-1.044.206-.328.336l-6.036-.648.045.068c-.921-.416-3.03-1.113-4.063-1.421-1.716.172.829.3.375.531l-3.643-.821c-1.545.437,1.466,1.227,4.015,1.353-2.073,1.078-2.758.653-4.389.228a16.707,16.707,0,0,0-6.15-.33l3.458.536c-2.338,1.054-5.019.407-9.011.872.962-.328,8.023-1.329,4.064-2.167a13.506,13.506,0,0,1-4.758-.552c-.078.764-2.171.417-4.8.176l.1,1.029c-2.83-.507-2.565-1.011-4.211-1.587-3.188-.127-3.9.613-4.7,1.223-5.1-.2,3.606-1.011-2.406-1.632-4.263.086-7.206-.541-12.23-1.511-2.989.14.474.659-.609.874l-2.571-.991c-.644-.025-.454.238-.358.371-2.193-.466-.112-1.028-3.575-1.542-.409-.562-2.063-.334-4.14-.1-2.3.254-5.124.507-7.344-.315-1.081.216.47.658.119,1.029a74.445,74.445,0,0,1-9.808-2.4l-4.183.392c3.092-.562-.732-1.722-4.086-2.689,1.1-.3,2.046-.558,2.676-.671l-5.395-.905c-.667.124-.143.508.718.991l-.979-.309c-1.966.248-1,.9.356,1.56l2-.5c1.3.707,2.509,1.473,2.19,2.05a8.79,8.79,0,0,0-1.762-.392c.34.191.553.356.385.445-.192.1-.743-.166-1.614-.485l-1.309,1.052-.269-.471-7.148.239c-5.008-1.472-9.32-3.434-17.358-4.423,1.948.96.342,1.384.387,2.377,2.269-.9,6.22.846,10.415.9-2.189-.03-1.74.47-1.2.669l-7.4-1.428c.117.815-1.622.5-3.592.709,1.575-1.495-5.49-1.422-8.493-2.1-.222.523.47,1.111,4.18,1.221a6.672,6.672,0,0,1-4.731-.693,6.786,6.786,0,0,0-4.5-.746c.9.07,1.4.018,1.736.313-2.082-.609-7.267-.558-6.083-.016l.9.067c-6.014-.193-18.269-1.138-19.081-2.541a5.29,5.29,0,0,0,1.031,1.973L81.391,35.321c.871,1.219-2.922,3.76,2.014,4.725A22.177,22.177,0,0,1,77.2,39.61c.984-.1,2.534-1.528,1.207-1.716-3.684,1.05-2.612.548-6.968,1.326,1.144-.3-.333-2.05-2.537-2.13.329.283-.25,1.664.434,1.991l-5.263-2c.943.471-.22,1.457-1.436,1.851.618-.314-4.971-.272-6.493-.542l2.462-.266c-6.506-.126-6.258-2.9-12.7-3.2.757.416,1.789,2.388-1.5,2.416-1.445-1.006-6.379-4.806-12.036-5.849l-1.124.457L26.908,31.1a110.067,110.067,0,0,0,13.775,6.123,3,3,0,0,1,.425-.115c.107.663,4.476,1.742,6.957,2.619-.97.806-5.94-.946-8.425-1.823-.266,1.318,3.924,3.552,9.888,5.324,2.814.739,3.093.448,3.014.158-.056-.2-.283-.4.046-.261,9.121,1.506,7.29,3.783,15.009,4.274,3.152-.269.456-1.648,1.236-2.127-3.876-1.071-6.146-.622-8.807-1.166l3.361.231a18.122,18.122,0,0,0-5.264-1.264c2.651-.275,15.361,2.788,22.5,3.43,1.189.519,3.281,1.222,2.2,1.366l-2.193-.541c-2.167.288,3.99,1.735,1.124,1.514a39.221,39.221,0,0,0,10.326,2.849L93,50.925a8.688,8.688,0,0,1-3.916-.51c1.662.76,6.664-.07,8.334,1.551l-3.06.1c2.892,1.053,6.385,2.776,10.151,3.184a2.194,2.194,0,0,1-1.482.171,4.889,4.889,0,0,0-2.2.16c2.431-.9-8.409-1.68-6-2.4a12.1,12.1,0,0,1-3.918.02,18.06,18.06,0,0,0-4.162-.055c.171-.295,1.369-.365-1.774-.8.146.144-.017.188-1.176-.157l1.176.157a3.747,3.747,0,0,0-.63-.409l-.215-.017.18,0c-.126-.073-.136-.085.066,0a4.949,4.949,0,0,0,1.678-.178c-1.405-1.022-6.36-1.945-7.961-2.642-1.876-.2.7.511-.37.655L75.329,48.71c-.383.655-5.132.228-.859,1.473l-3.923-.718A27.818,27.818,0,0,1,63.065,48.3c-1.877-.2-4.516-1.67-3.013-.812l-6.059-1.611-.091.166c-6.077-1.071-12.252-3.55-19.424-3.607a35.7,35.7,0,0,0,4.175.966,11.961,11.961,0,0,1-5.147-.987l.972.021a46.32,46.32,0,0,0-7.524-1.642l-.781.481c-2.579-.713-7.983-.9-8.988-1.746C14.1,40.6,4.736,37.56,0,36.9l1.25-10.05h.262l.13.817c3.229.142,6.306.552,10.29,1.11l-.288.7a33.746,33.746,0,0,0,7.487.331c2.184-.045,4.527-.089,6.866.082a5.521,5.521,0,0,0-2.733-.2c3.466-.639,7.057-.063,10.551.513,3.174.524,6.269,1.047,9.116.66a9.684,9.684,0,0,0,3.575.206,1.842,1.842,0,0,1-.364-.058l.605.027,2.07-.255a12.655,12.655,0,0,1-1.745.278c1.135.083,2.853.275,4.531.556l.767-.722.39.045c1.675-.182,1.31.443.391.966a16.142,16.142,0,0,1,2.206.6c.7-.573,1.793-.409,2.946-.245a5,5,0,0,0,3.378-.273c1.018.659,7.41.957,9,2.115a18.322,18.322,0,0,1,5.391.406l.86-.923,4.03,1.563c2.535-.437,3.592-.717,1.158-1.62,5.918,1.523,4.832.734,9.854,2.191l-.209-.644c1.819.137,4.675,1.16,5.806.709,2.265-.511,8.072-.136,14.589.238,5.414.312,11.319.622,16.094.427-1.11.889.239.721,1.847.553,1.5-.158,3.231-.314,3.387.393.637-.4,2.11-.553.442-1.042,5.307.775,8.061-.18,11.665,1.272.639-.4-1.1-.718-.539-.942a4.748,4.748,0,0,0,2.241.268c.561-.224-.756-.42-1.588-.666,5.445.434,5.907,1.821,6.219,3.115,2.8-.417,4.173-.241,6.112.722.989-.352,2.621-.678-.755-1.052,1.909.066,11.677.163,11.8,1.193a8.94,8.94,0,0,1,3.16.258c4.277.232,4.66.166,8.849.55l-1.175.086c1.01.859,2.154.825,3.736.792a22.078,22.078,0,0,1,3.105.1l-.087-.132a22.161,22.161,0,0,1,5.458.116c.855.154,1.568.309,5.583.068l-.471.733c.33.934,2.392.687,4.913.438a21.651,21.651,0,0,1,6.33.022l-1.634.322c2.384.734,6.941-1.75,9.394-1.764.541-.1-.823-.292-1.556-.453,6.451-.487.752,1.059,5.488,1.649.917-.472-1.028-1.454,2.179-1.313.768-.146,2.847.387,5.3.92,2.742.6,5.947,1.193,8.295.838-1,.337-1.982.673.2,1.164a29.564,29.564,0,0,0,4.548.007c2.819-.126,5.828-.251,7.676.723.439-.079.61-.174.637-.275,2.559.542,8.362,1.314,9.852,2.156a2.086,2.086,0,0,1,.783-.439c-.739-.342-1.566-.738-2.538-1.205l-.825.6c-1.52-.874-10.711-1.465-17.568-4.1.047.1.158.289.693.536-7.744-2.877-19.6-2.54-21.85-6.037l-5.1-1.955c4,.825,3.1.2,2.221-.432-.63-.451-1.246-.9-.027-.815-2.643-.808-7.137-.818-3.876.115l.55-.017c.462.938-2.062.43-4.5-.078-2.094-.437-4.128-.874-4.152-.393-13.4-3.267-26.687-5.532-39.288-8.4l1.716-.8-4.406-.959c-1.215,0-1.755.528,1.388,1.21-1.8.26-5.127-1.761-5.159-2.029-3.366-.521-2.495.067-1.274.655,1.044.5,2.343,1,1.474.815l-2.535-.678h.607c-1.962-.944-2.031-1.478-5.811-2.3-1.311-.176-1.613-.041-1.758.092-.126.115-.138.231-.575.15-.013.083-.339.046-1.446-.3L140.04,19.32l2.421-.385c-2.322-1-5.147-1.152-2.524-1.565-4.268.605-20.7-4.21-23.1-4.247a53.946,53.946,0,0,0-10.905-3.088c1.087.052,1.944-.813-1.71-1.517.5,1.391-1.926.948-4.677.5a17.631,17.631,0,0,0-5.163-.345c.864-.3-2.8-1.12-5.151-1.834l.592-5.275c1.525.109,2.551.291,1.726.708q.243.062.467.116c1.358-.25-.476-.769,1.536-1.2a90.284,90.284,0,0,0,13.907-.013C111.187,1,115.057.817,118.969.936c.142.28-1.387.709.572,1.126l4.822-1.4c1.8.137,1.66,1.616,4.956.644-.466.235-1.16.591.05.681,7.738-.591,15.623-.461,23.55-.332,10.4.17,20.866.34,31.175-1.114-2.461.542-.82.6,1.058.616-1.221.13.028.692-.211,1.071l7.606-1.054c1.386,1.053,8.154.072,8.949,1.078l-2.409-.18c3.2,1.188-4.482,2.642-4.014,4.167-1.689-.637-3.884-.231-6.349.176-2.77.456-5.88.914-8.994-.109-1.3.311,1.108.491.414.846-1.492-.655-3.293-.79-6.631-.5l.377.161c-9.379-.159-13.4.485-23.937.915l.78-.754a18.545,18.545,0,0,0-3.8.525c-2.6-1.144,6.36-.064,3.992-1.325-3,1.535-15.966.023-18,1.767-1.741,0-1.488-.214-1.232-.432s.512-.437-1.229-.431l-.923.472-.88-.608c-2.284.1-3.435.69-3.521,1.09a20.11,20.11,0,0,1,2.17.146,29.743,29.743,0,0,1-6.318.086c-1.179-.069-2.18-.138-2.739-.12l3.038-.264c-2.141-.1-4.389-.145-6.691-.167.392.241.921.543,1.671.936l1.261-.317a14.284,14.284,0,0,0,5.339,2.218c-2.961-1.2,2.594-.328-.7-1.77,8.155.547,11.384,3.956,15.418,2.947,1.9,1.418-.83.942-3.027.464-1.554-.339-2.844-.676-2.039-.341-1.814.13,2.706,1.876,5.21,2.286a9.944,9.944,0,0,0,3.246-.05,20.729,20.729,0,0,1,7.669.458c-.5-.125-.556-.247-1.135-.374,2.458.141,4.505,1.624,7.558,1.637,1.4,1.34,3.779.819,3.961,2.155l-5.729-1.63c3.211,1.084,5.954,3.235,11.527,3.8a15.581,15.581,0,0,0-2.961-1.486c1.667.007,2.991.95,4.718.961-.18-1.338-6.978-1.909-10.28-3.662a8.951,8.951,0,0,1,2.838.649c1.642.559,3.051,1.119,2.154.047,2.147,2.282,6.275,1.235,10.249,3.526l-.109-.8a18.321,18.321,0,0,0,3.22,1.222l-2.031-1.482c3.271,1.624,6.842.851,10.059,2.075-4.322-1.03-3.952-.579-3.793-.126.1.275.116.55-1.042.493,4.292,1.541,5.593,1.294,7.141,1.045,1.417-.227,3.042-.455,7.366.7-1.5-.349-4.414-.529-2.637.218a29.665,29.665,0,0,0,5.556.447c6.323,1.659-1.156.525,1.444,1.619,2.377-.383,3.035,1.1,5.753,2.053l.2-.743c7.358,1.246,1.548,2.013,8.206,2.991l-2.507-1.694,3.336,1.08-.5-1.018a28.729,28.729,0,0,0,8.419,2.264c-.97.323.146,1.468,3.345,2.267.777.029.906-.078.914-.183.016-.207-.436-.415,2.553.386a4.9,4.9,0,0,0-4.039-1.366c-.143-.292-.9-.713-1.048-1,2.479.058,5.948,1.317,7.592,1.724a10.646,10.646,0,0,0-1.823-.258l6.334,2.64c1.105-.027.339-.453-.421-.872,1.314.408,2.153.977,4.1,1.523-.35-.714-.093-1.3-2.615-2.231l5.936,2.155c.485-.16,3.4.075,2.642-.351,3.571.508,8.239,3.307,12.968,4.019a.368.368,0,0,1-.118-.172l.271.2-.153-.03a5.651,5.651,0,0,0,1.619.754c4.365.984,8.4,1.244,13.322,3.5l3.235-.245c3.984,1.437-4.363.177,2.253,2.582,2.923,1.169,3.026.76,3.126.352.059-.25.119-.5.824-.388l1.013.637c.464.312.7.423,1.708,1.161.175.135.345.28.507.432a4.854,4.854,0,0,1,1.116,1.575,4.339,4.339,0,0,1,.068,3.135,4.139,4.139,0,0,1-1.212,1.7,4.469,4.469,0,0,1-.814.55l-.284.123c-.171.066-.346.125-.524.175a4.68,4.68,0,0,1-1.746.126c-.654-.07-1.2-.17-1.727-.267a22.26,22.26,0,0,0-6.5-.529c1.443.368,2.572.322,4.019.579l-3.5.231c3.839,1.484,7.463,1.446,3.775,1.975C275.854,54.862,263.3,55.444,262.958,53.27Zm-37.549-3.4c.973.234,2.9.879,3.655.481a2.291,2.291,0,0,0-1.69-.649C226.829,49.7,226.207,49.806,225.409,49.866Zm-157.8-1.422-.1-.056c-.932-.051-1.334-.075-1.374-.075C66.082,48.313,66.721,48.359,67.609,48.443Zm212.64-.148h0c0-.011-.008-.015-.01,0ZM148.157,42.62a6.431,6.431,0,0,0,3.16.047,13.191,13.191,0,0,0-1.767-.118A13.873,13.873,0,0,0,148.157,42.62Zm-105.938-4c2.944-.208-1.45-.672-1.754-1.159a5.18,5.18,0,0,0-.925.225A9.823,9.823,0,0,0,42.22,38.62Zm-5.634-.607a21.126,21.126,0,0,0,2.5-.239,18.177,18.177,0,0,1-2.318-.09c-.34.107-.374.217-.219.322Zm-2.18-.39c-.112-1.1-5.442-3.2-11.171-3.363-1.158.25-.015,1.224.579,1.847.511.079,1,.152,1.484.221a.183.183,0,0,1-.045-.2l4.36.79C31.15,37.119,32.688,37.334,34.406,37.623ZM20.082,36.28c-.068-.162.111-.3.349-.41-.731-.084-1.418-.141-1.9-.15A15.584,15.584,0,0,0,20.082,36.28ZM70.96,34.387c.066-.169.547-.223-.274-.287A.99.99,0,0,1,70.96,34.387ZM.821,34.232l.007.007.186-1.5a13.173,13.173,0,0,0,1.7-.12c1.253-.265.426-1.027-.371-1.761-.386.054-.759.109-1.11.165l.163-1.308a.311.311,0,0,1,0-.054l-.17,1.363-.214.035L.8,32.748l.211,0Zm6.67-2.927c.518.154.955.266,1.342.351a3.05,3.05,0,0,0-.064-.369C8.461,31.293,8.042,31.3,7.492,31.305Zm1.228-.2a1.715,1.715,0,0,0-.633-.923c-.141.016-.81.083-1.728.185A5.683,5.683,0,0,0,8.72,31.107ZM146.612,20.413l.914,0a6.848,6.848,0,0,0-1.316-.391C146.043,20.027,146.329,20.217,146.612,20.413ZM105.888,56.351l1.471.025.113.664Zm15.8-1.414c.4.174.892.182,1.289.354l-.182.329C121,55.254,119.8,54.733,121.685,54.938Zm-26.232-.2.317.083A2.356,2.356,0,0,1,95.454,54.738Zm-2.527-.664a8.963,8.963,0,0,0,2.247.245c.13,0,.258,0,.4,0-.083.139-.524.267-.115.415ZM103.5,53.41c.616.148,1.249.286,1.864.373.046.11.009.155-.092.155A17.984,17.984,0,0,1,103.5,53.41Zm-4.577-.585c.351-.592,2.117-.03,4.113.473l-.357-.068c.151.358-.019.5-.4.5A14.989,14.989,0,0,1,98.92,52.825Zm155.055.689,1.267-.825-.632.86Zm-2.691-1.281,1.417.308A12.955,12.955,0,0,1,251.284,52.233ZM82.07,51.847a2.833,2.833,0,0,1,.627.162A2.664,2.664,0,0,1,82.07,51.847Zm.32-.05c.285,0,.815.033,1.74.124C83.614,51.909,83.027,51.868,82.39,51.8Zm-2.166-.342c.758.156,1.474.261,2.166.342-.269,0-.386.013-.32.05C81.681,51.763,81.133,51.648,80.224,51.455Zm166.42.215.6.065A4.686,4.686,0,0,1,246.644,51.67ZM99.072,50.844l1.884.2-.874.646Zm-22.2-.055c-1.113-.523-1.773-1.047.928-.3.989.021.445.927,1.036.772.128.142.1.2-.034.2A7.262,7.262,0,0,1,76.87,50.789Zm164.012.631-.229-.33c.437.2.629.332.3.332ZM217.5,51.108a5.121,5.121,0,0,1,2.359-.154l-2.171.419ZM88.585,49.969a.9.9,0,0,0,.468.432C88.785,50.271,88.588,50.132,88.585,49.969Zm.4-.564a13.7,13.7,0,0,1,2.572.626C91,49.915,89.8,49.658,88.985,49.4Zm6.622.544-2.289-.379,3.274.4ZM84.9,48.571l3.268.4c-.074.123.322.278.813.433C86.993,49.05,84.784,48.789,84.9,48.571Zm196.728-3.908a12.67,12.67,0,0,1,1.285.557Zm-33.822-.08c.871.2,1.236.366,1.2.518C248.109,44.91,247.608,44.738,247.811,44.584Zm31.3-.478c-.758-.1-1.079-.2-.729-.7a30.465,30.465,0,0,1,3.248,1.254A11.79,11.79,0,0,0,279.113,44.105Zm-119.276.227a22.088,22.088,0,0,1-2.794.262Zm-2.523-.471c.38.155.377.3-.45.388A.738.738,0,0,0,157.315,43.862ZM38.654,43.4c.5,0,.991,0,1.446-.015,1.542-.032,2.724-.064,3.078.456A37.081,37.081,0,0,1,38.654,43.4Zm21.013-2.114,1.588.694a3.9,3.9,0,0,0-1.667.3Zm-12.95-.1c-.307-.337.684-.318,1.974.04.807.348,2.093.7,1.5.859Zm107.035-.131,2,.585-.627.169ZM83.607,40.034l1.729-1.888L88.38,40.9A8.159,8.159,0,0,0,83.607,40.034Zm-.2.012.2-.012-.049.055ZM51.03,39.788a9.591,9.591,0,0,0-1.6-.706,1.146,1.146,0,0,1-.113-.045c-.623-.252-1.033-.447-.394-.372-.181-.2-.53-.351-2.163-.244-.972-.443,3.155-.206,2.155-.6,2.535.557,3.893.41,2.651,1.4q-.264.008-.49.01c.739.3,1.837.652,1.105.652A11.029,11.029,0,0,1,51.03,39.788ZM71.44,39.22a1.277,1.277,0,0,1-.189.034Zm-2.1-.139.1.037A.632.632,0,0,1,69.337,39.082Zm185.153-1.4c2.562.658,1.346.714,1.462,1.1ZM47.628,37.5a8.461,8.461,0,0,1,1.291.325C48.513,37.734,48.083,37.629,47.628,37.5ZM234.35,33.068l.174.063ZM1.22,31.028h.008l-.214,1.717H1.007Zm47.6-.249c2.134-.461,4.536-1.23,4.24-.539l-.687.65A14.533,14.533,0,0,0,48.817,30.778ZM192.362,23.29c.148.034.282.07.4.107Zm-30.787-4.645c-1.266-.59-.692-.409.3,0ZM94.385,8.677a1.505,1.505,0,0,1-.279.06Q94.24,8.7,94.385,8.677Zm32.927-.5.468-.081c.033.067-.069.089-.246.089C127.47,8.187,127.394,8.184,127.312,8.18Zm-9.058-.034-.309.027A2.225,2.225,0,0,1,118.255,8.146ZM203.523.507l1.642.936a6.154,6.154,0,0,0-2.285.1Zm-18.372.649a15.32,15.32,0,0,1,2.477.053C187.034,1.166,186.065,1.166,185.151,1.156ZM197.636.339,200.369,0l-1.763.545Z" fill="#0b5e98"/>
</svg>
