<svg xmlns="http://www.w3.org/2000/svg" width="417.309" height="116.648" viewBox="0 0 417.309 116.648">
  <path id="Sketch-right" d="M.606,114.855l1.194.718c-.514,0-1.362.711-1.8,1.075Zm7.054.767c-1.812.061-3.517.12-2.617-1.465l-1.7,1.423c-.085-1.431,5.722-3.918,6.054-5.7l6.492-2.845c-.44-.262.124-1.474-.893-.978,1.412-.988,2.62-1.886.382-1.171,15.538-6.749,28.006-18.877,42.514-26.7.857-.713.086-.716-.427-.716,3.163-.71,2.045-2.137,3.32-3.206L65.392,73.2c1.2-1.432-.251-1.08-.335-1.437a117.2,117.2,0,0,1,10.366-6.538l3.009-1.847,3.026-1.963a64.989,64.989,0,0,0,5.7-4.265c.962-.323.924.07.827.462-.12.49-.33.98,1.205.082-3.365.226,8.006-6.515,7.306-7.308.97.332,3.347-1.161,5.186-2.188,1.935-1.08,3.082-1.516.719,1.664,2.839-1.739,4.306-4.263,3.643-4.1A90.392,90.392,0,0,0,118,36.805c.467.051,5.5-3.559,10.392-6.869,4.707-3.186,9.15-6,7.664-3.9,2.129-2.837,2.5-2.4,6.908-6.043l1.989-2.708,5.355-3.486c1.624-1.23,1.767-1.272,1.34-.859l0,0c.16.056-2.835,2.7-2.816,3.22,1.605-.7,4.015-2.995,6.834-5.253l.353-.473,1.309-.687a24.837,24.837,0,0,1-2.878,2.366c-1.645,1.337-3.524,3.021-2.892,3.1.539-.512,2.478-2.181,3.917-3.319,1.457-1.156,2.417-1.787,1.633-.842a12.575,12.575,0,0,0-3.8,3.32l2.1-1.04,3.055-3.286,5.309-1.875a69.175,69.175,0,0,0,6.449-2.9L166.74,9.62a22.791,22.791,0,0,0-2.73,2.758,18.322,18.322,0,0,1-3.893,3.4l.619-.524c.687-.792-.022-.261-1.207.741-1.166.99-2.9,2.511-3.555,3.223a5.683,5.683,0,0,1,2.354-1.486,10.624,10.624,0,0,0,3.258-2.7,1.194,1.194,0,0,0-.012,1.046c3.854-2.356,3.818-1.7,1.935.336-1.741,1.941-5.9,5.648-5.821,6.372-.841.891-1.672,1.77-2.506,2.651.638-.809.079-.527-.273-.337-2.278,2.606-6.174,6.5-10.149,10.329L138.8,41.066l-2.831,2.616-1.347,1.235-.329.3-.072.049-.13.087c-1.369.9-2.979,1.938-2.927,2.278l-1.6.206c-.617,2.666.389,1.865-4,5.3a5.128,5.128,0,0,0-1.789.851c1.1-.072,2.723-.655.49,1.239l-.974.523-1,1.069L111.041,67.77v.017l0,.025.033.03a2.288,2.288,0,0,0-1.842.363c-.237.227-.166.454.2.385a1.291,1.291,0,0,0,.467-.117c.615-.239.831-.478-4.853,3.267A60.586,60.586,0,0,0,111,67.926c1.288-.962,1.984-1.5,2.224-1.688a.786.786,0,0,1-.068.08l1.919-1.438-1.919,1.438c-.569.605-3.91,3.457-2.192,2.305,3.257-2.382,5.637-4.39,8.353-6.6-2.992,2.517.326.132,3.311-2.161,3.075-2.347,5.912-4.658,4.893-3.741.2.022-4.617,4.076-7.148,6.35,3.012-2.122,10.744-9.527,7.794-6.392-.653.539-1.445,1.133-1.962,1.644-.267.355-5.035,5.048-6.24,6.722-.659.863-.615,1.092.518.154.177-.313.386-.643.624-.991,2.323-1.83,1.962-.909,2.36-.62.321.334,1.084.226,3.105-2.147l1.5-1.979a2.646,2.646,0,0,0,2.195-.822,5.5,5.5,0,0,1,2.8-1.314l-.167.279a9.976,9.976,0,0,1,2.347-1.12,3.147,3.147,0,0,0,1.723-1.9l-.6.12c1.088-.716,1.656-1.056,2.257-1.387l3.115-1.729a6.182,6.182,0,0,1,2.472-1.53c-.48-1.164,7.541-5.156,9.083-5.986-2.58,1.746-1.044,1.453-.027,1.438,1.057-1.814,2.091-2.551,4.645-3.213a3.507,3.507,0,0,1-.089-2.506,3.81,3.81,0,0,1,1.238-1.627,38.79,38.79,0,0,1,4.287-2.941c-1.135.946-2.837,2.114-2.019,2s2.338-1.426,2.914-1.9c.7-.047-1.487,1.545-.64,1.668,3.15-3.118,6.117-4.4,9.69-6.386a6.942,6.942,0,0,0,2.093.462c-1.107.264-.518.869-.364,1.335.5-.883,1.315-.292,2.151-.17s1.551.113,1.067-.136a8.721,8.721,0,0,0,.983.142,13.04,13.04,0,0,0-3.567,1.3,3.236,3.236,0,0,0-1.486,2.327,55.76,55.76,0,0,0-5.087,4.412,28.584,28.584,0,0,0-4.553,5.583,8.818,8.818,0,0,0-1.645.473l-3.025,1.295.044.615-1.68-.616c-.54.691-.847,1.2-1.059,1.167-.192-.029-.108-.294.064-.636a6.292,6.292,0,0,0-1.234,1.127c-.591-.5-.027-1.809.647-3.092l1.935-.256c.745-1.253,1.173-2.346-.593-1.83-.182.208-.4.461-.635.724.438-.866.653-1.491.032-1.359L153.43,46c.585-.127,1.513-.221,2.594-.337-2.224,2.381-4.729,5.161-1.852,4.538l-3.683,1.239c-3.136,3.468-2.611,2.83-6.761,6.489-.5-.263.533-1.355-.485-1.161a11.366,11.366,0,0,1-3.473,2.525,31.247,31.247,0,0,1-4.042,1.767c-2.42.882-3.867,1.16-4.784,2.5-4.037,2.8-2.458,2.858-5.5,5.113.284-.348.819-1.022.075-.608L121.1,71.856c-.349.033.271-.506.882-1.045.842-.743,1.667-1.484-.09-.728-6.975,5.018-12.412,8.845-16.563,10.759-4.107,2.58-4.81,3.575-4.981,4.189-.189.627.085.914-3.355,2.845.885-1.183,2.108-2.654,1.593-2.787.315-.47.376-.745.091-.757-2.288,1.712-4.012,3.443-5.729,4.254L96.215,85.5c-1.153.332-2.382.9-.383-1.035-2.059,1.349-2.348,1.188-2.492,1a6.8,6.8,0,0,0-2.712,2.632c-.666,1.039-1.5,2.426-1.959,3a2.476,2.476,0,0,0,.44-1.928c-.045-.386.06-.852.688-1.784q.768-.224,1.638-.548c-.161-.934-1.63-.041-2.3.228-.785.381-.961.32-.722-.4.908-.125,3.014-1.249,3.04-1.708q-1.316.724-2.424,1.246c.01-.134,1.235-.568.66-.506-.8.457-2.2,1.169-2.721,1.381l.05-.033-1.457.387,1.721-2.2c-.616.792-.681.918.027.048q1.243-1.6,2.434-3.265c-.707,1.025.161.029,1.382-1.362,3.508-3.951,1.711-4.008,4.643-6.986-.371.476-.368.607-.745,1.086l1.516-1.5c-.334-.522.771-2.334,2.154-4.392a17.639,17.639,0,0,0,2.984-2.776,7.415,7.415,0,0,0,1.464-1.91l-.931.9L99.475,67.7l.234-.342c.571-.834,1.143-1.668,1.632-2.454-.174.111-.355.23-.539.352-2.023,1.33-4.553,3.186-2.469.945l3.789-2.662c.55-1.088.787-1.992.412-2.539,1.968-1.517,1.131-.33-.077,2.3l2.974-2.09a50.906,50.906,0,0,1,7.046-7.442l1.486-1.319q-.9.512-1.973,1.2c.574-.368,1.454-.957,2.516-1.678l1.182-1.048c.069.034.183.017.366-.078l-.387.337c1.61-1.1,3.482-2.385,5.3-3.624.235-.341-1.752.989-1.96,1.047,1.29-.865,2.483-1.63,4.7-3.3q-2.326,1.352-5.425,3.457l-1.459,1.15,2.5-2.218,5.122-3.791c-5.989,4.615-1.594,1.372,1.5-.813.751-.919,1.571-1.249,5.879-4.656,1.229-1.236-5.284,3.64-9.908,7.209,2.854-2.355,4.934-4.089.038-.437l7.624-5.918-1.454.942,8.754-6.69c4.2-3.563.6-.748-2.991,2.068-3.428,2.684-6.85,5.368-3.5,2.523l7.619-6.093c-1.732,1.179-15.055,11.917-4.8,3.518-4.351,3.536-5.169,4.2-7.887,6.408-1.316,1.079-2.482,2.029-3.352,2.724l.011-.032-.188.167.058-.135-1.449,1.193c.145-.074.713-.511,1.567-1.194a8.247,8.247,0,0,1-1.434,1.928L119.323,47.7l-.251.186c-3.262,2.53-2.924,2.372-2.6,2.215.127-.063.254-.126.144-.017l.211-.166-1.135,1.007c-.123-.061-.1-.287-.051-.531.047-.355.124-.729-1.04.205a78.564,78.564,0,0,1,5.924-5.609l.726-.6-.009,0-.624.526.61-.533c-.152-.094.122-.528,1.8-2.161l-.489,1.028c.94-.806,1.863-1.587,2.718-2.3L127.92,38.7l-.2.219-5.227,4.4-.039.081c.447-.348.327-.208-.083.174l-.09.189c.453-.384.95-.8,1.477-1.248.919-.775,1.946-1.636,2.974-2.5l-.644.717q-.382.409-.769.808c-1.236,1.041-2.39,2.013-3.308,2.79l-.053.11a.126.126,0,0,0-.034-.037c-1.709,1.449-2.552,2.187-1.479,1.365-.055.03.537-.481,1.5-1.289l.017-.039.011.015c.723-.61,1.651-1.385,2.666-2.224-.409.406-.827.806-1.258,1.2l-.1.08L122,44.572a.437.437,0,0,1-.016.087c.484-.4.948-.812,1.4-1.225,2.588-2.148,4.175-3.517,4.965-4.229-1.23.989-2.527,2.051-3.707,3.027q.345-.343.684-.692c1.279-1.077,2.646-2.228,3.93-3.315,5.181-4.366,8.994-7.682,2.63-2.617-1.21,1.089-3.179,2.753-5.147,4.407l.987-1.1,1.1-.925c-.342.2-3.775,3.059-4.922,4.013l6.149-5.288c-6.164,5.162-5.458,4.45-5.4,4.253.141-.254-.254-.067-6.441,5.414,4.865-4.309,4.465-4.009,3.2-2.967s-3.177,2.676-1.836,1.372a58.911,58.911,0,0,1,5.659-4.585c1.078-.778,2.272-1.688,7.079-5.883.968-.942.146-.294-.678.355s-1.624,1.277-.728.4l7.2-6.029c.881-1.126-1.958,1.081-5.062,3.661l-8.366,7.06L129.3,36.2c-4.186,3.771-4.786,4.258-5.247,4.6a46.255,46.255,0,0,0-4.03,3.472c2.409-2.49-2,1.439-2.278,1.53-.119.064-.137.031-.016-.141.24-.154.716-.6,1.053-.864l.143-.108-.107.072c-1.487.984-.075-.783,1.381-2.548,1.343-1.628,2.724-3.256,1.913-2.73-1.132.525-6.961,5.5-7.844,6.884-.977.857-.271.346.5-.164,1.278-.843,2.742-1.687-2.873,3.629,3.025-3.447,1.059-1.853-1.17.03-2.325,1.949-4.725,4.059-4.9,3.227a15.749,15.749,0,0,0,2.95-3.253,10.192,10.192,0,0,1,2.472-2.747,47.765,47.765,0,0,0-6.352,5.742l.82-1.428c-3.245,3.178-3.993,4.118-4.85,5.02-.809.868-1.693,1.671-4.249,3.928,2.229-2.193-.057-1.224,1.722-3.046a22.079,22.079,0,0,0-4.025,3.458l.271-.308a11.831,11.831,0,0,1-3.714,2.259c-.713.274-1.566.707-3.688,2.634l.256.352c-1.324,1.252-2.569,2.307-3.821,3.28l-1.884,1.406L79.49,71.952c-3.961,2.717-8,5.389-11.451,8.06l2.493-1.3c-1.182.727-4.427,3.814-6.857,4.7a13.985,13.985,0,0,1,1.546-1.264c-.337-.362-1.615-.368-3.416.706l-.252,1.07-1.023,0c-2.649,1.781,1.371.359-1.278,2.143-1.424-.379-4.492,1.666-7.578,3.711-2.838,1.882-5.691,3.763-7.284,3.758-.468,1.25.813.448,2.063-.354s2.466-1.6,1.871-.354a13.032,13.032,0,0,0-3.243,1.422l1.108.364C37.9,99.6,34.409,101.014,27.4,106l.176-.358c-2.734,1.42-4.007,2.485-4.692,3.917-.769,0,.934-1.423-.265-1.07-3.143,4.992-9.888,4.612-11.686,7.829C10.628,115.525,9.11,115.573,7.659,115.622ZM91.447,86.167c-.527.716,1.084-.252,1.881-.729-.061-.172-.04-.37-.2-.37C92.936,85.068,92.509,85.325,91.447,86.167ZM109.429,69.1l1.144-.849Zm1.8-1.337c.2-.146.4-.3.622-.462ZM101.8,66.3a15.753,15.753,0,0,0,2.222-2.264c.322-.4.619-.813.892-1.23l.391-.631.093-.158.022-.04.011-.021-.643.621L103.726,63.6A24.188,24.188,0,0,0,101.8,66.3Zm-.193-1.006q.7-.643,1.417-1.267a3.53,3.53,0,0,0-1.118.526Q101.759,64.907,101.61,65.289Zm19.752-20.8c-1.561,1.4-3.826,3.345-1.343,1.326-.6.42.137-.24,1.545-1.44l-.023,0-.061.007ZM160.276,45c1.148-.268,2.278-.761,2.443-1.222A7.841,7.841,0,0,0,160.276,45ZM148.983,15.526l.383-.288.261-.337.078-.224C148.153,16.033,146.713,17.285,148.983,15.526ZM4.958,111.653l-.595.709-1.71.354Zm10.031-5.6c-.687.479-1.421.979-1.842,1.329A10.514,10.514,0,0,1,14.989,106.057Zm76.54-17.288c.208.177.315.262-.383,1.062l-.775.684Zm-4.563-1.7-.246.155a.376.376,0,0,1-.051.005C86.607,87.234,86.729,87.18,86.967,87.074Zm.451-2.026-.138.177ZM63.264,83.571l.411-.158a.853.853,0,0,1-.352.209A.058.058,0,0,1,63.264,83.571ZM90.521,80.9l-.78,1.107C89.927,81.743,90.162,81.41,90.521,80.9Zm.859-1.679L92.013,79l-.994.709Zm-20.6-.638-.245.128A1.533,1.533,0,0,1,70.778,78.584Zm16.33-2.573c-.372.383-.765.773-1.2,1.179C86.264,76.809,86.673,76.411,87.108,76.01Zm3.491-3.6c4.314-2.444-.3.661-3.491,3.6C88.269,74.815,89.225,73.695,90.6,72.411Zm2.3.036a30.468,30.468,0,0,1,4.534-2.778l-5.612,5.41A8.115,8.115,0,0,0,92.895,72.447Zm6.581-4.75c-.266.389-.53.776-.785,1.155-.433.312-.851.576-1.261.817Zm13.762-1.482c.113-.082.116-.079-.012.023A.07.07,0,0,0,113.238,66.215Zm87.267-.539a5.127,5.127,0,0,1-2.906-2.242,9.588,9.588,0,0,1-.6-1.186l-.3-.92a9.638,9.638,0,0,1-.308-1.625,6.982,6.982,0,0,1,.247-2.751,24.294,24.294,0,0,0,.41,3.066,58.169,58.169,0,0,0,.6-6.739c.428.015,1.553,2.97,2.412,1.662a22.635,22.635,0,0,0,.841-3.817,5.625,5.625,0,0,0-.141-2.36c-.373-1.1-1.38-.963-2.241-.49a6.273,6.273,0,0,1,.194,1.4l.02,1-.019.616-.158,1.116c-.284,0-.377-.4-.377-1.006a6.887,6.887,0,0,0-.12-1.17c-.11-.612-.323-.962-1.1-.723l1.235-2.132c-.032.153.044.769,1.01-.107.433-1.221.513-.792,1.712-2.447.743-.11,1.88.137,2.583,1.787.767,1.52,1.107,4.5,1.4,6.372l1-5.075,1.236-1.449c.863-3.359.318-5.375-1.141-5.348-1.242-.214-3.177,1.2-4.012,1.854,1.11-1.928,5.3-6.3,5.778-6.4,1.129-2.454.406-2.228-.683-1.3a27.078,27.078,0,0,0-2.62,2.562,13.373,13.373,0,0,1-2.584,2.319,1.412,1.412,0,0,1,.034.6c-.892.886-2.213,1.235-2.575,2.011a17.367,17.367,0,0,1,2.247-4.467,62.7,62.7,0,0,0-4.342,5.524c.484-.784,1.359-3.474,1.745-4.131a7.279,7.279,0,0,0-2.049,2.759,3.445,3.445,0,0,0-.5,1.971,1.7,1.7,0,0,0-1.141-.242c-.082.007-.159.013-.227.013-.376.039-.593-.067-1.875-.141-.709.654.791,1.869,1.08,1.915a4.576,4.576,0,0,1-1.2,1.2,17.188,17.188,0,0,1-2.024,1.127c3.28-3.268-1.377-4.151-1.463-5.827l-2.449,5.106-1.224,2.553-.613,1.278c-.251.457-.689,1.047-1.073,1.6a5.036,5.036,0,0,0-.007-2.838c.03.426-.524,1.175-1.562,2.187a16.6,16.6,0,0,1-1.877,1.573c-.728.465-1.53,1.526-2.477.717a22.113,22.113,0,0,1-5.741-3.447,14.544,14.544,0,0,1-2.264-2.262l-.911-1.213c-.239-.4-.563-1.069-.588-1.131a5.08,5.08,0,0,1-.345-1.176l.147.454c.4.143.243-.643.353-1.751a6.413,6.413,0,0,1,.235-1.376c.426-.947.765-1.441.813-1.637.146-.15.1.025,0,.248-.133.362-.491,1.073.663-.163a.266.266,0,0,1,.027-.181c-.652.5-.568.239-.212-.333Q168.7,42.232,167.42,43.5l-.211.21c.3-.413.97-1.48.073-1.1a3.819,3.819,0,0,0,.7-.411c.828-.59,1.957-1.671,2.973-2.5.789-.646,1.472-1.11,1.5-.815.106-.059.21-.116.309-.169.645-.855,1.047-1.493,1.466-2.116a8.034,8.034,0,0,0,.2.86,28.453,28.453,0,0,0,2.018,4.577c-2.849,2.239-1.633,1.708-1.79,1.971a1.625,1.625,0,0,0,.284.455,10.546,10.546,0,0,0,.667.886c.564.637.825.926,1.2,1.3a15.976,15.976,0,0,1,1.781,1.938,1.032,1.032,0,0,0,.621.544,5.78,5.78,0,0,0,.784-.754,14.168,14.168,0,0,1,1.419-1.553l.241.772a12.565,12.565,0,0,1,1.546-1.923c.453-.482.809-.811,1.188-1.154a34.179,34.179,0,0,0,3.45-3.589c-1.326,2.043-.371,1.893,2.015,1.115q1.507-2.029,3.675-4.517a6.657,6.657,0,0,1,.948.792,22.705,22.705,0,0,1,5.369-3.861c2.283-3.171,9.5-8.065,11.742-10.519-.051,1.021,1.383-.106,2.922-1.318,1.5-1.19,3.091-2.45,2.289-.968q.839-.766,1.764-1.608l.94-.819.551-.359a28.967,28.967,0,0,1,1.711-2.549c.618-.746,1.052-1.124,1.314-.931l.4-.239-.663.973-1.855,2.537c-.573,1.739-1.546,4.082-2.3,5.752.541-.972,1.359-2.3,2.315-3.845l-2.536,4.329-.449.938a1.873,1.873,0,0,1,.156-.445,21.626,21.626,0,0,0-2.507,5.388,53.293,53.293,0,0,0-5.89,13.831c-.711,2.284-1.425,4.743-2.252,7.179l-.607,1.769c-.2.541-.275.727-.441,1.1a12.709,12.709,0,0,1-1.036,1.868c.385-.733.794-1.835.572-2.239-.248.874-.535,1.774-.8,2.619a63.392,63.392,0,0,1,7.289-2.244l-.084-1c4.241-.71,12.753-4.53,15.811-3.229.818-1.028,5.8-1.267,8.1-2.137l.79.579a31.617,31.617,0,0,0,6.758-2.022c6.647-.106,12.038-3.133,17.53-4.469l.106.2,5.4-1.985c-1.278,1.046.971-.745,2.684-1a19.234,19.234,0,0,1,6.781-1.463l3.541-.9c-3.792,1.534.556.982,1,1.77l2.076-1.274c1.017.166-1.278,1.047.434.787,1.391-.852,5.86-2.006,7.022-3.249a3.766,3.766,0,0,0-1.581-.2c-.177.1-.169.089-.062,0l-.167,0c.078-.008.109-.013.2-.022a3.036,3.036,0,0,0,.528-.5c2.855-.554,1.734-.63,1.535-.985a12.857,12.857,0,0,0,3.849-.1,8.685,8.685,0,0,1,3.641-.009c-2.327-.846,7.615-1.881,5.235-2.945a3.575,3.575,0,0,0,2.063.175c.3-.089.482-.177,1.4.2-3.438.523-6.439,2.633-8.976,3.929l2.854.1c-1.324,1.972-6.082,1.012-7.518,1.943a6.034,6.034,0,0,1,3.564-.648l-.964-.921c-3.893.54-6.659,2.238-9.187,3.523,2.628-.288-2.885,1.507-.834,1.838l1.96-.671c1.023.166-.82,1.03-1.853,1.667-6.533.834-17.908,4.626-20.407,4.306a12.532,12.532,0,0,0,4.712-1.562l-3.087.3c2.394-.676,4.565-.146,8.013-1.469-.79-.573,1.52-2.259-1.442-2.559-7.1.644-5.083,3.382-13.34,5.263-.285.172-.1-.07-.08-.314.035-.352-.26-.7-2.775.209-5.289,2.182-8.876,4.9-8.452,6.488,2.189-1.073,6.563-3.213,7.573-2.248-2.183,1.075-6.093,2.4-6.1,3.2-2.736-.71,4.252-1.537.829-1.829a8.678,8.678,0,0,0-2.887,1.5c.934-.836-1.7-.55-2.261-.735-5.252,1.368-8.425,1.574-14.087,2.917.225.078.294.092-.1.024l.1-.024c-.349-.118-1.077-.382-1-.752-2.656,1.082-6.067,4.1-4.827,4.666-3.216.891-3.552.3-6.21,1.37,4.7.075-.91.021-1.054,1.429-1.731.546-1.747.267-1.846-.013-.059-.169-.151-.337-.665-.324-.433.258-1.448.974-1.434,1.34-1.973-.535,2.708-3.407.392-4.026-1.588-.339-7.937-.154-8.386-.143-1.073,1.422.379,5.83,2.762,6.783-.046.483-1.042.336-2.144.188a8.218,8.218,0,0,0-2.087-.109,8.591,8.591,0,0,0-2.772.192,3.768,3.768,0,0,1-1.215.152A5.11,5.11,0,0,1,200.5,65.676Zm73.186-26.226.081-.068C272.373,39.57,271.644,39.613,273.691,39.451Zm23.351-3.214Zm-97.634-1.054a5.293,5.293,0,0,1,.434-.706C199.024,35.067,199.452,34.9,199.408,35.182Zm99.4-1.616ZM215.286,62.807a4.986,4.986,0,0,0,1.735.058,6.46,6.46,0,0,1-1.223.164C215.434,63.029,215.292,62.941,215.286,62.807ZM211.5,58.767l.593,1.9-.808.216ZM111.99,53.648l-.112.071Zm76.3-6.438,2.6,1.161a5.786,5.786,0,0,0-3.225,3.1Zm71.286,2.736c2.989-.5-.122.607-.36,1.014a8.948,8.948,0,0,1-1.642.378C256.965,51.34,259.4,50.258,259.576,49.947Zm-163.212.379a.234.234,0,0,1,.136.064A.65.65,0,0,1,96.364,50.325Zm60.269-.954a15.693,15.693,0,0,1-2.461.83Zm-.641-.684a.838.838,0,0,0,.592.241,1.882,1.882,0,0,1-.527.114C155.83,49.042,155.842,48.9,155.992,48.687Zm99.389-.405,3.1-1.107c.569.184-.576.62-1.278,1.046a4.612,4.612,0,0,1-1.487.351C255.414,48.572,255.268,48.476,255.381,48.282Zm-64.495.09.167-.081-.093.114Zm76.29-1.489a3.119,3.119,0,0,0,1.588.35l-1.379.848ZM247.6,45.657a24.663,24.663,0,0,0-3.742,1.189l-.9.03A8.264,8.264,0,0,1,247.6,45.657Zm1.364.008c-.43-.008-.888-.018-1.364-.008a25.551,25.551,0,0,1,4.139-.557c-.2.491-.914.579-1.9.579C249.565,45.679,249.271,45.673,248.961,45.666Zm-91.614-1.432-.707,1.361-.615.068Zm-36.734.672-.092.081L120,45.42Zm79.126-.7.095-.118a32.322,32.322,0,0,1,2.145-2.611c.147-.125.181-.082.246-.041a.254.254,0,0,0,.18.041c-.627.538-1.349,2.122-2.046,2.678.874-1.306.309-.687-.252-.069a4.889,4.889,0,0,1-.692.7C199.377,44.792,199.459,44.634,199.739,44.211Zm-3.3.208.038.024A.069.069,0,0,1,196.442,44.419Zm.8-.6c-.025.04-.049.076-.072.105Zm-28-1.243c-.015.05-.03.1-.046.157l-.013.03C169.2,42.7,169.22,42.636,169.242,42.576Zm.166-.455c.192-.227-.018.042-.166.455A2.828,2.828,0,0,1,169.408,42.121ZM202.73,41.4a.98.98,0,0,1-.325.082C202.526,41.387,202.645,41.323,202.73,41.4Zm90.747-3.341c-.436.192-.78.382-.7.529L289.8,39.1C289.662,38.834,291.676,38.5,293.477,38.059Zm2.3-.778a9.473,9.473,0,0,1-2.3.778A21.015,21.015,0,0,1,295.776,37.281Zm3.77.065.911-.031-2.984.507Zm-6.145-.493a.841.841,0,0,0-.375.525C293.007,37.183,293.17,37.014,293.4,36.854Zm-11.355-.38c.874-.582,2.088-1.164,1.752-.579-.57-.183.061.906-.856.938a5.88,5.88,0,0,1-1.569.463C280.984,37.3,281.43,36.885,282.046,36.474ZM174.169,35.266c1-.775,2.074-1.559,3.2-2.335a20.744,20.744,0,0,0-3.141,3.665A4.718,4.718,0,0,1,174.169,35.266ZM131.2,34.774l-.3.3c-.875.727-1.46,1.206-1.471,1.206S129.932,35.844,131.2,34.774Zm172.254.429.9.773-1.719.26Zm-16.738-.041c-.056.045.055.064.3.058a17.24,17.24,0,0,0-1.963.428Zm1.9-.1a14.9,14.9,0,0,1-1.6.163A13.838,13.838,0,0,1,288.621,35.058Zm-1.9.1C286.885,35.022,287.9,34.792,286.719,35.162Zm26.166-3.9a4.773,4.773,0,0,1,1.166.093c.72.137,1.2.274,3.634-.665,1.427-.876-.55-.781-2.267-.688a13.2,13.2,0,0,1-1.843.038c2.56-1.154,2.48-1.455,2.475-1.8,2.632.769,4.981,2.773,2.528,4.025-2.853-.1-5.732,1.408-5.741,2.208-.915.035.123-.6.009-.8l-2.981,1.307C308.732,33.814,314.6,31.8,312.885,31.261Zm-23.541,3.275-1.068.2C289.3,34.309,289.46,34.36,289.345,34.536Zm12.876-.69c1.839-.865,3.684-1.735,3.429-.522l.322-.085a12.675,12.675,0,0,1-3.1.907A.687.687,0,0,1,302.221,33.846Zm5.844-1.211a13.607,13.607,0,0,0-1.678.466C307.358,32.727,308.164,32.15,308.064,32.635Zm-9.327-1.07c-.359.182.068.334.164.5a6.975,6.975,0,0,0-2.418.323Zm.282-.1-.282.1A1.627,1.627,0,0,1,299.02,31.462Zm24.965-1.2.215.4c-.345.211-.8.226-1.147.438a4.388,4.388,0,0,1-.628.062C321.686,31.16,322.635,30.647,323.985,30.264Zm-14.417-1.581-.012.8-1.362.044Zm5.962-1.814-.35,1.012-1.842.868Zm.255,1.283.283-.067-.016.153Zm2.387-1.58a15.812,15.812,0,0,0,4.075,0l-1.076.386.347-.212-5.449,1.34C316.128,27.8,316.435,27.423,318.171,26.571Zm9.016-1.319a39.371,39.371,0,0,1-4.941,1.319l5.1-1.835.023,0c.006.045-.025.093-.031.137a.466.466,0,0,0,.1-.045c.268-.01.178-.051-.073-.092v-.015l-.024.01-.132-.019c.892-.076,1.828-.2,2.794-.346-.861.264-1.772.553-2.759.963,1.653-.231,1.421.078,1,.387-.562.417-1.461.835,1.506-.078-1.837.866-.705,1.232-3.922,2.148C323.989,27.343,326.542,26.295,327.187,25.253Zm0,0a.821.821,0,0,0,.154-.37C326.893,25.1,325.632,25.482,327.187,25.249Zm8.165.4,4.243-1.558c-.222.406.45.785-2.068,1.278l.224.393Zm-10.268-.834c.159-.268,1.473-.192,2.133-.095-.7.056-1.371.1-1.982.1ZM333.79,22.9c1.652-.471,1.1.16.956.472a47.617,47.617,0,0,1-4.735,1A16.47,16.47,0,0,0,333.79,22.9Zm.956.472c.988-.271,1.9-.569,2.745-.882a4.858,4.858,0,0,1-2.446.962.882.882,0,0,1-.269.073C334.689,23.522,334.7,23.458,334.746,23.369Zm-3.693-1.211a21.066,21.066,0,0,1-2.1,1.221A10.8,10.8,0,0,1,331.054,22.158Zm7.85-.574a1.811,1.811,0,0,0,.451.118,17.754,17.754,0,0,1-1.864.785A9.364,9.364,0,0,1,338.9,21.584Zm10.419-.306a16.976,16.976,0,0,0,4.6.079l.341-.21c2.437-.228.675.636-.012,1.051.028.055.037.115.217.143-.638.148-.529.046-.217-.143-.127-.252.91-.686-.224-.643a3.541,3.541,0,0,0-1.837.87A7.263,7.263,0,0,1,349.323,21.278Zm-13.932-1.339c-1.041.638,1.595.343.671,1.177a12.926,12.926,0,0,0-5.008,1.042A19.035,19.035,0,0,1,335.391,19.939Zm3.964,1.763.249-.115c.046.095-.013.126-.119.126A.942.942,0,0,1,339.355,21.7Zm-.286-.2-.165.083C338.712,21.5,338.641,21.43,339.069,21.5Zm10.049-.365.2.142C349.127,21.231,349.045,21.182,349.118,21.137Zm-1.7-.542,1.023-.2L347.186,21Zm-1.75-.556.043.017-2.221.516Zm-121.89-5.081c-.087.057-.189.121-.292.189l1.467-2.228c.762-1.023,1.194-1.3,1.479-1.189-1.271,2.057-3.509,5.684-5.453,8.834A47.7,47.7,0,0,0,223.783,14.958Zm127.42,4.1c-.683.421-.113.6,0,.8l-2.755.538Zm-6.747.443a3.152,3.152,0,0,1,2.223.284l-1.007.255Zm-.7-1.269-1.269,1.048-1.039.639Zm14.207-.426c-2.074,1.279-.24,1.209-1.169,2.047-.137.005-.262.008-.376.008C353.845,19.859,356.644,18.618,357.963,17.8Zm-11.284,1.979.254-.064c-.041.074-.08.1-.128.1A.327.327,0,0,1,346.679,19.784Zm6.8-2.189c.228.278-.126.623-2.417,1.172Zm-1.246-.876c.228.393,1.936.131,2.863.093l-1.616.783C353.206,17.274,352.161,17.044,352.229,16.718Zm16.52-2.12-3.912,2.15-.8.229Zm-2.755.029-1.142.517C365.423,14.594,365.75,14.555,365.994,14.628Zm0,0,2.423-1.093c-1,.57-1.4,1.086-1.3.632-.295.516-.479.66-.64.66S366.187,14.691,365.994,14.628Zm3.912-1.273c4.361-1.367,5.262-.595.9.769C373,13.039,371.278,13.3,369.906,13.355Zm15.539-.575-1.376.851-1.833.069C382.018,13.306,384.759,13.2,385.445,12.78Zm-18.417-.414c-.408.246.114.19.736.135a4.026,4.026,0,0,1,1.2,0l-2.182,1.084C365.3,13.43,364.73,13.253,367.028,12.366Zm15.687-.286c2.634-.3,7.118-2.272,10.672-3.406l-1.048,1.44-.57-.176c-2.647.269-5.99,2.332-8.106,2.331A2.17,2.17,0,0,1,382.715,12.08Zm-9.635-.54c.851-.187,1.344-.317,1.7-.421-1.262-.135,1.74-.506,0,0l.409.033c-1.846.639-2.265.845-2.267.845S373.443,11.739,373.081,11.54Zm26.489-4.3-.229.406-2.182,1.085ZM417.257,0c-.124.187.472.871-.623,1.092.013.024,0,.036-.016.035C416.473,1.127,415.722.576,417.257,0Z" fill="#355e98"/>
</svg>
