<svg xmlns="http://www.w3.org/2000/svg" width="715.94" height="199.527" viewBox="0 0 715.94 199.527">
  <path id="Sketch-what-we-do-bottom" d="M714.781,197.662c1.879.375.855,1.549,1.069,1.865C712.839,198.4,714.953,197.33,714.781,197.662Zm-433.8-12.109-9.108-3.207-5.242-5.62-3.606-1.778c.627,1.052,4.569,5.012,6.522,5.679,1.343,1.617-.3.537-2.8-1.442-2.468-1.947-5.8-4.8-6.718-5.676-1.086.142,2.137,3.022,4.96,5.309,2.878,2.34,5.434,4.162,4.937,4.049l-2.246-1.174-.605-.809c-4.836-3.866-8.971-7.789-11.725-8.986-.032.891,5.107,5.412,4.833,5.507l-.009-.005c.734.705.488.636-2.3-1.47l-9.186-5.962-3.413-4.634c-7.565-6.234-8.2-5.484-11.849-10.336,2.548,3.588-5.076-1.228-13.151-6.675-8.393-5.661-17.027-11.838-17.829-11.749a155,155,0,0,0-20.512-15.333c1.14.285-1.378-4.032-6.248-7.006,4.053,5.439,2.086,4.694-1.235,2.845-3.154-1.757-7.234-4.31-8.9-3.742,1.2-1.358-18.309-12.885-12.534-12.5-2.632-1.539-2.274-.7-2.069.138.166.672.231,1.344-1.419.794a112.2,112.2,0,0,0-9.781-7.3l-5.193-3.357L129.4,87.955a201.742,201.742,0,0,1-17.784-11.183c.143-.612,2.635-.009.573-2.458L104.271,72.5c-2.186-1.828-.267-4.268-5.7-5.483.882,0,2.2-.005.734-1.224C74.418,52.411,53.028,31.665,26.373,20.12c3.839,1.224,1.766-.313-.656-2,1.744.85.775-1.227,1.533-1.673L16.112,11.58C15.543,8.529,5.58,4.276,5.726,1.826L8.649,4.262c-1.543-2.714,1.384-2.61,4.492-2.507,2.488.082,5.094.165,5.617-1.195,3.085,5.5,14.657,4.853,20.051,13.391,2.055.6-.867-1.828.452-1.83,1.176,2.449,3.361,4.271,8.051,6.7l-.3-.612C59.032,26.745,65.022,29.166,79.241,37.7l-1.9.622a22.409,22.409,0,0,0,5.564,2.433c1.021,2.137-1.068.764-3.211-.607s-4.341-2.743-3.538-.607c2.735-.011,7.627,3.208,12.5,6.427,5.293,3.5,10.559,6.995,13,6.35,4.546,3.05-2.352.617,2.191,3.665l1.756-.007.433,1.83c3.089,1.836,5.281,1.825,5.86,1.207a23.761,23.761,0,0,1-2.651-2.162c4.166,1.517,9.729,6.8,11.759,8.04l-4.273-2.221c5.927,4.567,12.85,9.137,19.645,13.784l3.852,2.687,3.232,2.408c2.149,1.665,4.284,3.467,6.555,5.609l-.441.6c3.641,3.3,5.1,4.037,6.328,4.506,1.287.512,2.376.778,6.371,3.864l-.464-.526a38.1,38.1,0,0,0,6.9,5.917c-3.051-3.119.871-1.461-2.952-5.213,4.385,3.861,5.9,5.236,7.289,6.72,1.47,1.54,2.754,3.149,8.321,8.586l-1.406-2.443c4.2,4.193,5.722,5.933,10.9,9.82-3.124-2.754-3.533-3.6-4.24-4.7-.669-1.073-1.665-2.419-5.063-5.564.307-1.424,4.425,2.185,8.414,5.519,3.824,3.221,7.2,5.949,2.006.051,9.635,9.091,7.123,7.65,4.929,6.208-1.328-.873-2.539-1.746-.865-.279C197.556,122.6,207.558,131.1,209.5,132c1.392.9-.978-1.887-3.282-4.671-2.5-3.022-4.92-6.042-2.369-4.359l.183.124c-.1-.076-.186-.139-.246-.186-.579-.455-1.395-1.214-1.805-1.478-.211-.294-.179-.351.025-.24.473.155,8.04,6.876,3.908,2.616,5.528,4.989,6.145,5.37,6.912,5.939.792.586,1.821,1.418,9,7.869l-7.934-6.1c4.311,3.625,9.185,7.727,14.352,12.075,5.325,4.412,10.2,8.187,8.685,6.262-2.58-2.157-8.37-6.991-12.349-10.314.16.162.322.322.512.512-4.474-3.752-3.442-2.937-.512-.512-1.535-1.506-.142-.413,1.251.68,1.412,1.11,2.825,2.219,1.163.609-8.248-7.174-10.3-8.733-12.145-10.061a101.482,101.482,0,0,1-9.709-7.846c-2.3-2.228.977.566,3.149,2.35s2.854,2.3-5.489-5.076c10.614,9.376,11.291,9.694,11.049,9.263-.1-.338-1.316-1.556,9.26,7.273l-10.549-9.045c1.968,1.633,7.857,6.518,8.444,6.866l-1.887-1.585-1.7-1.885c3.377,2.831,6.758,5.681,8.836,7.544,10.917,8.663,4.376,2.989-4.512-4.478-2.2-1.859-4.547-3.828-6.741-5.67q-.579-.595-1.169-1.179c2.023,1.669,4.247,3.485,6.355,5.175-1.353-1.219-4.073-3.558-8.507-7.225-.776-.71-1.576-1.411-2.41-2.1l-.021-.057c1.492,1.19,3.493,2.815,5.753,4.661,4.662,3.776,6.066,4.913,13.532,10.963-17.6-14.37,5.255,4,8.226,6.015L223.7,134.3c-5.751-4.869.12-.277,6,4.314,6.165,4.816,12.338,9.632,5.131,3.539L219.81,130.711l2.492,1.611L209.223,122.2c8.4,6.247,4.832,3.282-.064-.748,7.932,6.1,19.107,14.446,17,12.332-7.389-5.829-8.8-6.394-10.086-7.964-5.306-3.738-12.848-9.285-2.571-1.392-2.642-1.951-6.082-4.489-8.786-6.484l-4.289-3.794,2.5,1.965q5.315,3.6,9.308,5.915c-3.811-2.85-5.857-4.158-8.069-5.64.355.1,3.766,2.377,3.362,1.793-3.114-2.12-6.326-4.32-9.087-6.2l.665.576c-.314-.162-.511-.192-.629-.134l-2.028-1.794c-1.81-1.225-3.312-2.228-4.3-2.858q1.835,1.164,3.368,2.037l-2.552-2.257c-4.665-4.221-9.34-8.817-12.09-12.728l-5.1-3.574c2.071,4.5,3.508,6.532.131,3.938.643-.934.236-2.481-.708-4.342l-6.5-4.554c-3.574-3.834.766-.658,4.237,1.618.316.209.625.41.923.6-.838-1.343-1.818-2.769-2.8-4.195l-.4-.588,4.691,4.508,1.6,1.536c-.1-.424-.838-1.428-2.513-3.27a30.259,30.259,0,0,0-5.12-4.749c-2.372-3.519-4.266-6.617-3.693-7.51l-2.6-2.57c.647.821.64,1.044,1.277,1.86-5.028-5.1-1.945-5.191-7.963-11.949-2.1-2.379-3.588-4.082-2.372-2.328q-2.047-2.85-4.177-5.587c-1.217-1.491-1.1-1.27-.039.091l-2.959-3.778,2.5.663-.088-.058c.89.364,3.3,1.582,4.669,2.364.986.106-1.116-.639-1.133-.866q1.9.891,4.161,2.13c-.044-.784-3.659-2.707-5.215-2.921-.41-1.232-.11-1.336,1.239-.683,1.149.46,3.669,1.988,3.947.39q-1.493-.555-2.81-.938c-1.08-1.593-1.259-2.391-1.182-3.052.033-.7.38-1.211-.755-3.3.783.99,2.217,3.364,3.361,5.14a11.629,11.629,0,0,0,4.653,4.5c.247-.329.742-.6,4.276,1.7-3.429-3.3-1.32-2.339.657-1.771L159.47,48c2.946,1.39,5.9,4.349,9.828,7.278.489-.021.388-.493-.155-1.295.882-.23-1.216-2.745-2.734-4.767,5.9,3.3,5.432,3.795,5.756,4.865.294,1.052,1.5,2.753,8.545,7.166,7.122,3.275,16.45,9.822,28.417,18.4,3.013,1.292,1.6.023.152-1.248-1.048-.92-2.113-1.843-1.513-1.785l7.58,6.475c1.275.709.358-.443-.13-1.04,5.211,3.859,2.5,3.965,9.431,8.747,1.573,2.3,4.058,2.776,8.208,4.285a53.624,53.624,0,0,1,6.935,3.021c2.337,1.236,5.194,3.092,5.955,4.32,1.748.333-.028-1.538.833-1.988,7.121,6.26,6.221,5.17,11.6,11.1l6.319,2.119c-4.935-1.065-.639,3.688,3.178,7.763-1.855-.2-3.449-.358-4.45-.579L270,126.192c1.066.225.7-.845-.052-2.325.4.449.775.882,1.087,1.239,3.032.882,2.3-.987,1.018-3.131l-3.32-.438c.435.834.842,1.614,1.215,2.33-.691-.746-1.461-1.574-2.27-2.445.341.036.7.076,1.056.115-1.156-2.194-2.125-4.437-1.11-5.287-.388-.545-.239-.821,1.017-.415a1.439,1.439,0,0,0-1.017.415,10.831,10.831,0,0,0,2.118,1.927c-.3-.585-.44-1.036-.111-1.089.365-.045.891.816,1.817,2l2.883-1.054-.075,1.054,5.19,2.213a15.079,15.079,0,0,0,2.822.81,48.908,48.908,0,0,0,7.811,9.55A95.354,95.354,0,0,0,298.8,139.2a5.53,5.53,0,0,0,2.55,3.979,22.309,22.309,0,0,0,6.118,2.23,14.9,14.9,0,0,0-1.685.244c.831-.426-.4-.447-1.829-.233s-2.825,1.22-3.692-.291c-.263.8-1.273,1.831.624,2.287a11.849,11.849,0,0,0-3.589.788c-6.13-3.4-11.223-5.589-16.625-10.922-1.454.211,2.3,2.934,1.1,2.853-.987-.816-3.618-3.076-5-3.256-1.4-.2,1.518,1.8,3.465,3.418a66.983,66.983,0,0,1-7.357-5.031,6.553,6.553,0,0,1-2.123-2.784,5.99,5.99,0,0,1,.154-4.286c-4.382-1.133-6.157-2.393-7.968-5.5-1.745-.024-4.382-.528.044,2.46-2.644-1.42-16.407-8.248-15.583-10.239-1.084-.013-3.687-2-4.24-2.617l-5.343-2.957c-1.03-.567-2.006-1.148-3.873-2.372l1.03.205a5.394,5.394,0,0,0-2.956-3.254A17.133,17.133,0,0,1,228,102.015l.287.477a9.42,9.42,0,0,1-4.8-2.249c-.92-.767-2.294-1.763-3.764-1.405l-2.57-3.384c-3.47-4.058-4.777-4.244-5.327-3.672-.683.494-.064,2.07-4.05-1.061q-.611-.895-1.069-1.7c-1.944-1.6-2.019-1.213-.889.263,2.066,2.866,10.245,10.892,10.7,11.5.886.875,2.246,1.892,3.364,2.813,5.063,5.362-8.2-7.3-13.369-10.933,4.341,3.888,12.611,10.824,12.264,10.861,1.748,1.57-3.12-2.385-8.4-6.4-5.12-3.923-10.814-8-5.68-3.7-4.659-3.778-8.744-7.211-14.332-11.287-2.947-1.968,2.793,2.916,3.764,3.947l1.095.818-1.094-.817a1.457,1.457,0,0,1,.116.134c-.413-.328-1.618-1.25-3.85-2.911a104.253,104.253,0,0,0-10.183-6.5c9.753,6.4,9.382,6,8.327,5.587a2.229,2.229,0,0,0-.8-.2c-.625-.12-.746.269-.339.656a3.948,3.948,0,0,0,3.16.623l-.056.05-.007.046,0,.026,19.314,18.738,1.708,1.828,1.672.894c3.831,3.242,1.045,2.242-.842,2.119a8.825,8.825,0,0,0,3.069,1.455c7.537,5.873,5.813,4.5,6.871,9.062l2.739.354c-.089.58,2.674,2.355,5.02,3.9l.224.147.12.084.565.513,2.312,2.111q2.393,2.2,4.856,4.478c3.352,3.159,6.773,6.385,10.219,9.634,6.821,6.542,13.5,13.211,17.412,17.668.6.324,1.563.807.469-.577l4.3,4.537c-.128,1.236,7,7.577,9.987,10.9,3.227,3.483,3.29,4.6-3.322.574a2.044,2.044,0,0,0,.021,1.789c-3.037-3.213-4.6-4.19-5.589-4.608-1.05-.461-1.346-.242-4.038-2.543,1.132,1.219,4.1,3.819,6.1,5.512,2.034,1.714,3.25,2.625,2.07,1.268l-1.06-.9a31.377,31.377,0,0,1,6.677,5.813,39,39,0,0,0,4.685,4.718q3.014,3.742,5.989,7.439A119.217,119.217,0,0,0,280.985,185.553Zm-24.149-11.128-.134-.386-.449-.575-.656-.492a19.49,19.49,0,0,0-2.015-1.481C253.465,171.491,255.11,172.92,256.836,174.425Zm22.327-49.787c-.285-.788-2.222-1.632-4.192-2.091A13.457,13.457,0,0,0,279.162,124.638ZM179.78,92.5l1.1,1.061-.019-.034-.039-.068-.159-.271L180,92.108c-.468-.713-.977-1.419-1.529-2.107a27.314,27.314,0,0,0-3.811-3.872,41.24,41.24,0,0,0,3.3,4.618Zm-1.319-1.029Zm-1.705-1.451q-1.229-1.065-2.43-2.167.254.653.512,1.267A6.04,6.04,0,0,0,176.755,90.018Zm15.139-5.6c-.4-.3-.786-.585-1.152-.852Zm-2.546-1.884q-.744-.552-1.611-1.191ZM156.888,52.139c3.422,2.708,3,1.876,3.227,1.248a15.279,15.279,0,0,0-3.288-1.684C156.665,51.7,156.658,51.827,156.888,52.139ZM681.369,184.592l3.741,1.856.393.695Zm-24.78-5.727c3.31-1.585,10.234,3.127,15.532,3.664l.977-.3,1.8,2.462C668.8,182.751,661.109,179.38,656.589,178.865Zm-13.611,1.643c1.135.329,1.094.441.727.441C643.106,180.95,641.635,180.651,642.978,180.509Zm-2.918-.719c1.177-.645-3.082-1.649,3.621.664-.353.028-.482.039-.7.055C642.368,180.331,641.519,180.109,640.06,179.79ZM385.938,177.43l-2.518-3.811.5.323a81.614,81.614,0,0,0-4.8-9.589c3.335,5.388,7.177,11.591,9.355,15.111a.585.585,0,0,1-.208.037C387.781,179.5,387.074,178.949,385.938,177.43Zm243.309-1.13,3.743,1.854a7.016,7.016,0,0,1-2.05-.01c-1.066-.095-1.964-.191-1.265.232C625.733,176.858,626.709,176.555,629.248,176.3Zm5.366.383c2.353.091,5.3.54,1.545-1.314,4.723,1.473,5.849,2.543,4.156,2.543A22.711,22.711,0,0,1,634.614,176.683Zm21.154-.588,3.145.117,2.361,1.456C660.094,176.944,655.392,176.769,655.767,176.1ZM627.9,174.507c.671-.219.93-.95,1.927.788-.175-.775.51.108,2.23,1.084Zm-3.365-4.019,1.378.391,6.713,3.679Zm1.4,3.134,1.96.885a1.086,1.086,0,0,1-.318.048A2.553,2.553,0,0,1,625.943,173.622Zm-243.209-.413c-.452.33-1.2-.315-2.257-1.591a49.844,49.844,0,0,1-2.936-4.36l-.943-.614-1.614-1.4-3.026-2.751c1.376,2.535-1.344.38-3.926-1.655-2.639-2.076-5.1-4-5.014-2.254-3.851-4.2-16.23-12.569-20.145-17.994a38.969,38.969,0,0,1-9.211-6.6,11.705,11.705,0,0,1-1.626,1.356q-3.72-4.257-6.307-7.729c-4.093-1.331-5.731-1.588-3.457,1.907a58.342,58.342,0,0,0-5.919-6.139c-.648-.588-1.262-1.15-2.038-1.975a21.415,21.415,0,0,1-2.651-3.29l-.414,1.32a24.26,24.26,0,0,1-2.433-2.657,9.812,9.812,0,0,0-1.347-1.288,1.757,1.757,0,0,0-1.064.931,27.646,27.646,0,0,1-3.057,3.314c-.648.648-1.1,1.14-2.066,2.23a17.907,17.907,0,0,0-1.144,1.515,2.837,2.837,0,0,0-.489.779c.27.448-1.816-.458,3.072,3.371a48.724,48.724,0,0,0-3.462,7.827,13.846,13.846,0,0,0-.348,1.471c-.719-1.066-1.409-2.156-2.515-3.619-.17-.09-.349-.188-.53-.289-.041.5-1.213-.291-2.566-1.4-1.742-1.413-3.68-3.261-5.1-4.269a6.475,6.475,0,0,0-1.211-.7c1.539.647.392-1.179-.123-1.885l.361.359q2.192,2.163,5.255,4.844c-.613-.979-.758-1.435.36-.573a.448.448,0,0,1-.045-.309c-1.979-2.116-1.366-.9-1.137-.279.179.378.258.681.008.425-.081-.337-.663-1.179-1.394-2.8a10.919,10.919,0,0,1-.4-2.355c-.188-1.892.088-3.239-.605-2.993l-.251.775a8.614,8.614,0,0,1,.591-2.011c.044-.107.6-1.242,1.01-1.933q.766-1.016,1.562-2.077a24.908,24.908,0,0,1,3.886-3.868,38.025,38.025,0,0,1,9.848-5.9c1.626-1.384,3,.433,4.248,1.227a28.4,28.4,0,0,1,3.223,2.69c1.778,1.73,2.731,3.01,2.678,3.742.372-.19.557-3.779.014-4.857.657.942,1.41,1.949,1.84,2.734l1.05,2.184,2.1,4.368,4.2,8.735c.146-2.868,8.138-4.377,2.509-9.968a29.137,29.137,0,0,1,3.47,1.928,7.821,7.821,0,0,1,2.063,2.052c-.5.076-3.069,2.155-1.852,3.272,2.2-.124,2.571-.306,3.214-.239.116,0,.247.009.391.021a2.926,2.926,0,0,0,1.956-.411c-.227.268.087,1.705.85,3.368a12.423,12.423,0,0,0,3.517,4.721c-.664-1.123-2.166-5.726-3-7.066a106.76,106.76,0,0,0,7.45,9.451c-1.944-2.389-3.195-5.98-3.857-7.641.621,1.327,2.888,1.924,4.418,3.44a2.375,2.375,0,0,1-.057,1.018,22.859,22.859,0,0,1,4.435,3.966,45.949,45.949,0,0,0,4.5,4.381c1.869,1.59,3.107,1.978,1.171-2.221-.818-.155-8.009-7.642-9.913-10.939,1.432,1.11,4.752,3.537,6.883,3.171,2.5.048,3.438-3.4,1.958-9.148l-2.122-2.478-1.708-8.68c-.5,3.2-1.084,8.3-2.4,10.9-1.205,2.823-3.156,3.247-4.432,3.059-2.055-2.833-2.193-2.1-2.934-4.187-1.66-1.5-1.788-.444-1.734-.183l-2.119-3.645c1.33.407,1.694-.194,1.884-1.239a11.923,11.923,0,0,0,.2-2c0-1.035.16-1.717.647-1.721l.271,1.911.033,1.053-.035,1.712a10.643,10.643,0,0,1-.334,2.4c1.479.81,3.207,1.042,3.847-.839a9.6,9.6,0,0,0,.241-4.036,38.723,38.723,0,0,0-1.442-6.53c-1.475-2.238-3.406,2.818-4.141,2.843.258-1.377-.808-9.849-1.03-11.528a41.679,41.679,0,0,0-.7,5.243,11.905,11.905,0,0,1-.425-4.7,16.489,16.489,0,0,1,.529-2.778l.512-1.574A16.785,16.785,0,0,1,339,91.023a8.8,8.8,0,0,1,4.987-3.835,8.706,8.706,0,0,1,4.369-.025,14.788,14.788,0,0,0,4.754.329,14.246,14.246,0,0,0,3.58-.187c1.889-.254,3.6-.507,3.679.322-4.087,1.63-6.578,9.17-4.738,11.6.771.019,11.662.333,14.388-.246,3.974-1.058-4.058-5.97-.673-6.885-.021.626,1.718,1.849,2.461,2.29.883.022,1.038-.267,1.14-.556.17-.478.2-.957,3.167-.022.247,2.411,9.869,2.319,1.809,2.445,4.561,1.838,5.138.82,10.654,2.342-2.127.969,3.725,6.132,8.283,7.983-.134-.632,1.115-1.086,1.714-1.287,9.714,2.3,15.158,2.65,24.167,4.988.969-.317,5.481.174,3.878-1.256a14.928,14.928,0,0,0,4.953,2.563c5.873-.5-6.116-1.913-1.422-3.13.016,1.371,6.724,3.639,10.469,5.476-1.732,1.653-9.237-2.011-12.992-3.846-.73,2.723,5.424,7.368,14.5,11.1,4.315,1.56,4.821.958,4.762.354-.041-.417-.353-.834.136-.534,14.167,3.216,10.714,7.9,22.888,9,5.08-.514,1.116-3.4,2.471-4.378-5.915-2.263-9.639-1.358-13.747-2.513l5.3.515a21.568,21.568,0,0,0-8.084-2.671c4.288-.545,23.8,5.941,35.011,7.367,1.772,1.089,4.935,2.568,3.179,2.85l-3.363-1.146c-3.518.568,5.939,3.635,1.43,3.144,4.339,2.2,9.084,5.1,15.762,6.025l1.653-1.575c-.676.4-4.548-.084-6.114-1.108,2.465,1.592,10.628-.049,12.9,3.322l-4.9.169c4.352,2.217,9.5,5.824,15.4,6.72-1.577.636-1.884.484-2.4.333s-1.221-.3-3.538.3c4.083-1.819-12.978-3.59-8.981-5.038a14.938,14.938,0,0,1-6.248-.018,22.12,22.12,0,0,0-6.6-.168c.342-.607,2.265-.736-2.634-1.686.2.3-.07.387-1.833-.338l1.833.338a5.376,5.376,0,0,0-.9-.854c-.15-.015-.206-.023-.337-.036l.286-.007c-.184-.154-.2-.179.106,0a6.491,6.491,0,0,0,2.714-.345c-1.993-2.129-9.662-4.1-12.047-5.56-2.94-.443,1,1.064-.745,1.348l-3.562-2.179c-.764,1.347-8.223.4-1.717,3.027l-6.074-1.532a33.088,33.088,0,0,1-11.633-2.5c-2.941-.438-6.8-3.5-4.6-1.713l-9.267-3.395-.182.339c-9.42-2.287-18.672-7.464-30.074-7.646a42.158,42.158,0,0,0,6.419,2.035,14.208,14.208,0,0,1-7.961-2.087l1.542.052a54.514,54.514,0,0,0-11.594-3.457l-1.355.989c-3.939-1.487-12.495-1.895-13.9-3.653-5.245,2.223-19.849-4.31-27.124-5.523l.143-1.71a108.612,108.612,0,0,1-12.506-3.836c.459,1.446.951,2.985,1.377,4.481.379-.694-.321-2.579-.982-3.832a21.834,21.834,0,0,1,1.778,3.195c.286.638.42.954.759,1.879L356,110.954c1.419,4.166,2.643,8.373,3.862,12.278,2.457,8,4.349,14.093,10.106,23.658.688,2.774,2.225,5.659,4.3,9.215a3.289,3.289,0,0,1-.269-.762l.77,1.6c1.388,2.362,2.85,4.853,4.352,7.406-1.641-2.637-3.043-4.916-3.971-6.578,1.3,2.856,2.969,6.865,3.951,9.839l3.184,4.341,1.136,1.663ZM342.85,140.556a9.088,9.088,0,0,1-.745-1.208C342.182,139.841,341.447,139.545,342.85,140.556Zm126.836-8.391-.141-.118c-1.479-.117-2.113-.172-2.172-.172C467.293,131.875,468.3,131.979,469.686,132.165Zm136.739,37.266-4.148-2c3.931.94,4.538,1.53,4.148,2l2.773,1.34c-1.591-.064-4.519-.515-4.911.159C604.17,170.375,605.964,169.98,606.425,169.432Zm5.693-3.859c1.592,1.434-1.553,1.314,2.006,3.5C611.759,167.62,606.624,165.368,612.119,165.573Zm-26.328-.115,1.782,1.094,2.178,1.792Zm12-.814,4.728.919c-.189.339-1.167.648,0,1.368Zm-6.841,1.529,2.086-.92-3.736-.912,3.808.885-.072.027,1.728.437a4.481,4.481,0,0,1-2.451.578A10.811,10.811,0,0,1,590.952,166.173Zm3.814-.484c.2-.091.313-.11.436.11Zm-26.807-4.063a22.212,22.212,0,0,0,8.592,1.784c1.585,1.424-2.937.92-1.152,2.013A32.644,32.644,0,0,1,567.959,161.626ZM596.04,164.3l-.4-.7,2.158,1.042Zm11.741-.947L607.2,163a29.243,29.243,0,0,0-7.9.135,12.511,12.511,0,0,1,4.925-1.962,6.07,6.07,0,0,0,3.151,1.489c1.948.072.168-.668.386-1.1,1.045.627,3.538,1.86,1.179,1.86C608.638,163.419,608.256,163.4,607.782,163.355Zm-8.482-.223c-.116.078-.233.159-.351.242C598.824,163.3,598.965,163.212,599.3,163.132Zm-17.874-.523A16.1,16.1,0,0,1,579,161.065a30.337,30.337,0,0,1,3.2,1.343,3.045,3.045,0,0,0-.774.2l.283.141a3.009,3.009,0,0,1-.437.05C581.063,162.8,581.191,162.709,581.426,162.609Zm.774-.2c.306-.044.536-.024.426.2C582.489,162.541,582.331,162.466,582.2,162.407Zm-17.845-2.869a36.292,36.292,0,0,1,3.6,2.087A18.477,18.477,0,0,1,564.355,159.539Zm43.779,1.774c-.311.048-.325.151-.373.246C607.227,161.234,607.039,161.061,608.134,161.313Zm-33.842-1.757c.254.531,1.193,1.611-1.641.807a28.108,28.108,0,0,0-6.482-2.522,81.34,81.34,0,0,1,8.123,1.715c-.114-.239-.111-.376.515-.14a8.355,8.355,0,0,1,4.2,1.648C577.546,160.529,575.988,160.018,574.292,159.556Zm1.04-3.894,4.118-.194-.385.672c4.319.844,3.165,1.49,3.546,2.187Zm-13.957,1.586c.088-.012.151-.02.229-.032l-8.757-3.139a67.986,67.986,0,0,1,8.479,2.255c-1.108-1.781-5.486-3.577-2.31-4.343,5.517,1.568,3.576,2.191,6.728,3.674-5.088-1.563-3.546-.849-2.582-.135.714.529,1.112,1.057-1.725.664,1.7.7,3.256,1.194,4.733,1.649C564.514,157.582,562.907,157.379,561.375,157.248Zm.269-.016,0-.024-.037.008Zm-.056-.259c.012.075.066.159.053.235.432-.071.587-.143.126-.158a.816.816,0,0,0-.179-.077,1.367,1.367,0,0,0-.264-.632,9.237,9.237,0,0,0-1.127-.125C559.542,156.216,560.989,156.677,561.588,156.973Zm-3.871.115c1.116-.012,2.361.058,3.659.161a15.726,15.726,0,0,1-2.1.154C558.516,157.4,557.856,157.322,557.717,157.088Zm-11.861-3.01c-2.977-1.458-3.5-2.1-3.608-2.587l9.348,2.289-.6-.362,1.847.66A27.182,27.182,0,0,0,545.855,154.077Zm-8.291-3.724,3.161,1.486.6,1.731Zm4.2,1.022.458-.148.028.263Zm-3.788-3.23a22.536,22.536,0,0,1,3.167.061c2.946.162,6.33.323,3.884-1.173-4.185-1.61-5-1.375-6.236-1.141a8.271,8.271,0,0,1-2,.162c2.934-.926-7.125-4.365-5.181-6.355l5.115,2.236c.2-.337-1.583-1.431-.015-1.371.015,1.371,4.953,3.946,9.849,3.779,4.208,2.14.178,5.568-4.337,6.884C542.229,150.634,542.365,150.118,537.973,148.146Zm-9.233.871,2.336.076.021,1.373Zm25.492-2.682c.6.364,1.376.388,1.967.751l-.37.676C553.067,146.98,551.281,145.881,554.232,146.335Zm-41.715-.8.482.176A2.778,2.778,0,0,1,512.517,145.537Zm-3.867-1.409a12.04,12.04,0,0,0,4.149.552c-.166.286-.9.545-.282.857Zm16.99-1.22a23.136,23.136,0,0,0,2.878.8c.047.227-.022.318-.181.318A20.9,20.9,0,0,1,525.64,142.908Zm-7.149-1.273c.7-1.216,3.379-.031,6.436,1.038l-.553-.147c.155.735-.143,1.023-.731,1.023C522.57,143.549,520.528,142.591,518.491,141.635ZM298.8,139.2a8.064,8.064,0,0,1,.107-2.275,35.5,35.5,0,0,0,5.388,6.27C302.362,141.872,300.525,140.531,298.8,139.2Zm193.092.178c.815.254,1.023.342.961.342A3.173,3.173,0,0,1,491.9,139.382Zm.524-.1a25.069,25.069,0,0,1,2.741.278A24.278,24.278,0,0,1,492.42,139.284Zm-3.369-.733a30.493,30.493,0,0,0,3.369.733c-.429-.012-.62.022-.524.1Zm30.155-1.006,2.952.447-1.546,1.32Zm-35.324-.406c-1.653-1.1-2.6-2.2,1.537-.615,1.57.054.489,1.917,1.467,1.606.17.293.11.415-.1.415A8.684,8.684,0,0,1,483.883,137.139Zm19.456-.665.022.015Zm-.012-.008.012.008Zm-.609-.874a1.418,1.418,0,0,0,.609.874C502.949,136.2,502.687,135.917,502.719,135.591Zm.772-1.162a16.161,16.161,0,0,1,3.944,1.331A36.379,36.379,0,0,1,503.491,134.429Zm10.412,1.219-3.553-.815,5.118.869Zm-16.712-2.993,5.108.87c-.147.251.445.577,1.192.9C500.4,133.669,496.947,133.1,497.191,132.654ZM214.883,129.5c-1.467-1.225-3.05-2.56-4.663-3.939l.838,1.758c-2.873-2.789-3.347-3.533-3.089-3.7q-.54-.468-1.077-.938l1.1.925.016-.007q-.563-.464-1.27-1.052a134.247,134.247,0,0,1-10.138-9.572c2,1.6,1.867.959,1.785.351-.08-.418-.123-.8.088-.909l1.948,1.724-.362-.284c.187.187-.029.079-.249-.029-.55-.27-1.128-.54,4.467,3.788l.432.319,2.084,1.843a14.073,14.073,0,0,1,2.459,3.3c-1.464-1.167-2.438-1.914-2.687-2.041l2.484,2.039-.1-.228.322.286a.746.746,0,0,1,.027.147l2.207,1.812.176.146c.737.674,1.452,1.357,2.152,2.05-1.742-1.436-3.335-2.765-4.577-3.808a.249.249,0,0,1-.019.026l.09.188c1.574,1.33,3.555,2.993,5.676,4.773q.665.684,1.319,1.382l1.1,1.222c-1.762-1.477-3.523-2.949-5.1-4.274-.9-.76-1.759-1.479-2.536-2.135l.155.325c.7.654.91.893.142.3l.066.139,8.964,7.532.34.377Zm-6.366-5.89.037,0c-2.413-2.052-3.681-3.181-2.648-2.462-4.26-3.455-.373-.123,2.3,2.269l.2.176Zm.665-.039a.207.207,0,0,0,.059-.062l-.029-.067c-1.65-1.386-2.666-2.261-2.566-2.205a6.779,6.779,0,0,0-.816-.585C205.752,120.655,207.088,121.805,209.182,123.575ZM207,121.516Zm140.243,7.058a1.718,1.718,0,0,1,.557.14.215.215,0,0,1-.15.058A.766.766,0,0,1,347.247,128.573Zm-.73,0a55.255,55.255,0,0,1-3.681-4.466l-.162-.2c-1.195-1.8-.283-.8.631.2.965,1.057,1.931,2.115.432-.117,1.194.951,2.433,3.663,3.51,4.582a.44.44,0,0,0-.307.068.3.3,0,0,1-.16.073A.458.458,0,0,1,346.518,128.573Zm-55.88-1.093a4.9,4.9,0,0,1-.286-.778c.191.528.441.918.415.918A.787.787,0,0,1,290.638,127.48Zm-.388-1.1.024.053q.04.142.078.269C290.315,126.6,290.28,126.492,290.25,126.38Zm48.016-1.985c.039.05.079.11.122.179Zm-1.184-.886-.065.042A.119.119,0,0,1,337.083,123.509Zm-131.2-1.672.861.718.153.134Zm218.9-.406c.814.013,1.6,0,2.333-.017,2.451-.053,4.325-.106,4.768.969A44.007,44.007,0,0,1,424.779,121.431Zm33.952-4.143,2.365,1.45a5.37,5.37,0,0,0-2.724.6Zm-20.6-.348c-.41-.7,1.164-.649,3.135.1,1.2.729,3.168,1.476,2.191,1.791Zm-116.18-5.457a9.917,9.917,0,0,0,5.534,5.306l-4.455,1.985Zm5.534,5.306.127-.059.16.2ZM264.5,113.659a27.147,27.147,0,0,1,4.224,1.419Zm180.831.434c-.4-.7-7.489-3.674-.616-1.733.335.573,3.99,1.952,2.453,1.953A12.869,12.869,0,0,1,445.33,114.093Zm-279.773-.757a.4.4,0,0,1-.233.11A1.123,1.123,0,0,1,165.556,113.336Zm26.384-5.7.21.134ZM398.4,105.253c.683-.116.564-.091.179.042Zm-35.915-9.864,1.386.369-1.017,3.249ZM372.322,92a8.549,8.549,0,0,0-2.976.1C369.364,91.7,370.1,91.539,372.322,92ZM195.23,86.91l2.2,1.64Zm-.958-.643a.111.111,0,0,0-.02-.04,1.391,1.391,0,0,1,.165.139A1.435,1.435,0,0,1,194.272,86.267Zm-27.12-5.907c.7.41,1.417.862,2.159,1.394.437.648.89,1.31,1.346,1.975Zm-7.781-4.753a13.871,13.871,0,0,0-1.848-4.5l9.629,9.254C164.641,78.891,162.285,77.939,159.372,75.606Zm-3.941.064c-2.356-2.2-4-4.113-5.989-6.158,4.085,3.753,9.535,7.666,8.952,7.666A16.178,16.178,0,0,1,155.431,75.67ZM147.386,67.5c.745.694,1.419,1.361,2.057,2.016C148.7,68.827,148,68.147,147.386,67.5ZM121,64.89l.423.22A2.649,2.649,0,0,1,121,64.89Zm35.77-.87-.621-.839,1.705,1.212Zm-2.811-4.765,1.336,1.891C154.683,60.277,154.279,59.707,153.961,59.255ZM108.537,56.58c.049-.2.327-.029.707.27Zm41.208-2.821.23.294Zm-.966-3.438.421.266C148.719,50.375,148.516,50.282,148.78,50.321Zm6.261-5.62,1.33,1.172c1.2,1.368,1.014,1.513.657,1.816ZM22.556,15.845c.722.6,1.982,1.453,3.16,2.273A18.03,18.03,0,0,1,22.556,15.845Zm-18-9.118,2.936.607L8.506,8.546ZM0,0C.75.622,2.2,1.831,3.089,1.84L1.04,3.067Z" fill="#e8e7d9"/>
</svg>
