<svg xmlns="http://www.w3.org/2000/svg" width="288.513" height="80.904" viewBox="0 0 288.513 80.904">
  <path id="Sketch-blue" d="M228.868,80c1.222.174.659.753.818.908C227.692,80.369,228.953,79.832,228.868,80ZM206.68,73.774l2.514.889.3.338ZM190.524,71.1c1.983-.794,6.73,1.477,10.132,1.714l.6-.153,1.327,1.2C198.566,72.939,193.431,71.33,190.524,71.1Zm-8.517.878c.757.157.726.212.482.212C182.1,72.19,181.174,72.053,182.007,71.978Zm-1.905-.339c.7-.323-2.081-.792,2.346.306l-.441.032Zm-7.126-1.653,2.514.888a5.767,5.767,0,0,1-1.308,0c-.682-.041-1.254-.082-.78.123C170.788,70.277,171.384,70.124,172.977,69.986Zm3.436.16c1.5.033,3.406.237.882-.653,3.136.7,3.916,1.224,2.8,1.225A19.772,19.772,0,0,1,176.413,70.146Zm13.383-.4,2,.041,1.607.7C192.606,70.14,189.608,70.079,189.8,69.747Zm-17.806-.632c.409-.113.52-.471,1.281.375-.168-.38.333.05,1.5.521Zm-1.311-.425,1.311.425a.833.833,0,0,1-.2.024A2.111,2.111,0,0,1,170.68,68.689Zm-1.125-1.528.9.184,4.535,1.77Zm-11.576-.425-2.783-.961c2.566.441,3,.727,2.783.961l1.86.643c-1.015-.025-2.908-.229-3.106.1C156.617,67.209,157.726,67.007,157.979,66.736Zm3.327-1.919c1.118.694-.888.649,1.534,1.7C161.23,65.819,157.8,64.743,161.305,64.816Zm-16.722.073,1.213.528,1.517.866Zm7.56-.458,3.068.427c-.093.168-.691.324.105.672Zm-4.23.783,1.257-.462-2.44-.428c.314.053,1.061.179,2.484.415l-.044.013c.343.063.734.133,1.128.206a3.243,3.243,0,0,1-1.567.3C148.5,65.254,148.225,65.243,147.913,65.215Zm2.385-.256c.121-.045.191-.055.285.052ZM132.98,63.1a18.917,18.917,0,0,0,5.586.832c1.112.691-1.8.466-.581.993A27.083,27.083,0,0,1,132.98,63.1Zm18.025,1.173-.31-.34,1.448.5Zm1.983-.589c-.068.039-.136.079-.2.121C152.7,63.766,152.781,63.724,152.988,63.683Zm5.4.068-.4-.173a23.741,23.741,0,0,0-5,.1,8.268,8.268,0,0,1,2.98-.986,5,5,0,0,0,2.11.713c1.242.026.057-.329.164-.541.716.306,2.419.906.838.906C158.9,63.776,158.667,63.769,158.388,63.751ZM141.6,63.515a13.187,13.187,0,0,1-1.653-.745c.785.2,1.509.419,2.129.641a2.293,2.293,0,0,0-.476.1l.19.068a2.4,2.4,0,0,1-.278.026C141.387,63.609,141.462,63.565,141.6,63.515Zm.476-.1c.191-.024.339-.013.285.095Zm-11.542-1.319c.783.266,1.578.622,2.444,1.006A15.16,15.16,0,0,1,130.536,62.093Zm27.924.654c-.194.026-.194.076-.218.123C157.878,62.713,157.745,62.628,158.459,62.747Zm-21.612-.694c.2.259.877.785-.982.4a23.894,23.894,0,0,0-4.3-1.2c1.765.2,3.577.473,5.285.8-.091-.117-.1-.184.316-.071a7.029,7.029,0,0,1,2.786.788C138.985,62.515,137.958,62.272,136.847,62.053Zm.37-1.912,2.6-.116-.194.332c2.8.391,2.12.714,2.414,1.053Zm-8.742.845c.055-.008.1-.012.143-.018l-5.792-1.5c1.258.144,2.808.459,5.549,1.065-.834-.866-3.748-1.727-1.787-2.117,3.618.743,2.431,1.058,4.542,1.77-3.356-.745-2.31-.4-1.645-.053.49.255.773.509-1.051.332,1.128.336,2.157.57,3.127.786C130.493,61.133,129.457,61.042,128.475,60.985Zm.169-.011,0-.012c.269-.036.361-.073.067-.079a.985.985,0,0,0-.12-.037.72.72,0,0,0-.215-.308c-1.723-.184-.3.125.215.308.013.037.054.078.053.115l-.023,0Zm-2.5-.053c.709-.01,1.5.018,2.335.063a12.654,12.654,0,0,1-1.38.084A1.814,1.814,0,0,1,126.141,60.922Zm-10.235-2.671,6.1,1.078-.4-.174,1.221.314a22.357,22.357,0,0,0-4.439.033C116.39,58.8,116.008,58.488,115.906,58.251Zm-3.056-.535,2.116.713.51.846Zm2.739.481.28-.074c-.038-.291.01-.545-2.924-1.49a18.435,18.435,0,0,1,2,.014c1.886.066,4.068.131,2.4-.593-2.78-.771-3.279-.65-4.049-.528a6.642,6.642,0,0,1-1.253.088c1.794-.466-4.843-2.109-3.756-3.092l3.411,1.074c.1-.167-1.11-.7-.11-.672.11.672,3.435,1.911,6.529,1.806,2.83,1.029.525,2.728-2.244,3.394l.037.128Zm150.5-4.218-2.3.254c.649.036.741.175,1.382.21-4.493.647-3.116-1.873-8.818-2.078-1.991-.011-3.4.18-2.073.562l-4.363-.911c-1.044-.05-1.056.207-.34.338l-6.1-.656.044.07c-.932-.422-3.065-1.127-4.111-1.44-1.734.175.84.3.381.539l-3.686-.833c-1.563.442,1.483,1.243,4.063,1.371-2.1,1.09-2.791.661-4.44.231A16.856,16.856,0,0,0,229.5,51.3l3.5.544c-2.365,1.068-5.079.41-9.118.884.975-.333,8.119-1.347,4.113-2.2a13.633,13.633,0,0,1-4.814-.562c-.079.776-2.2.424-4.862.18l.107,1.043c-2.864-.514-2.6-1.025-4.261-1.609-3.226-.128-3.951.622-4.756,1.239-5.165-.2,3.65-1.024-2.434-1.654-4.314.088-7.292-.547-12.377-1.53-3.024.141.481.667-.615.884l-2.6-1.005c-.653-.024-.46.243-.362.378-2.219-.472-.114-1.042-3.618-1.563-.414-.569-2.088-.337-4.187-.1-2.33.255-5.187.513-7.434-.322-1.094.219.476.668.121,1.043a75.18,75.18,0,0,1-9.925-2.43l-4.233.4c3.128-.569-.741-1.744-4.133-2.725,1.116-.3,2.07-.565,2.706-.679l-5.459-.918c-.675.125-.145.516.728,1.005-.364-.114-.71-.225-.991-.314-1.99.251-1.011.912.358,1.581.674-.167,1.356-.338,2.022-.5,1.315.716,2.539,1.494,2.216,2.078a8.917,8.917,0,0,0-1.782-.4c.343.193.56.359.389.451-.193.1-.751-.169-1.632-.492l-1.325,1.065-.273-.474-7.234.239c-5.067-1.49-9.43-3.478-17.563-4.481,1.971.973.346,1.4.392,2.409,2.3-.913,6.294.858,10.539.917-2.215-.032-1.761.474-1.21.676L132,42.911c.118.827-1.642.508-3.634.719,1.592-1.516-5.555-1.443-8.594-2.128-.226.53.475,1.126,4.23,1.238a6.747,6.747,0,0,1-4.788-.7,6.859,6.859,0,0,0-4.556-.757c.915.072,1.413.019,1.756.318-2.105-.617-7.354-.565-6.154-.016l.912.068c-6.084-.2-18.487-1.153-19.308-2.576a5.4,5.4,0,0,0,1.043,2L82.36,35.792c.882,1.236-2.956,3.81,2.04,4.788a22.452,22.452,0,0,1-6.281-.443c1-.107,2.564-1.548,1.223-1.74-3.728,1.066-2.645.557-7.051,1.345,1.158-.306-.336-2.076-2.567-2.157.333.287-.253,1.685.437,2.016l-5.325-2.022c.956.477-.221,1.476-1.452,1.876.625-.319-5.03-.275-6.569-.547l2.49-.271c-6.583-.127-6.332-2.939-12.853-3.239.766.422,1.809,2.42-1.518,2.447-1.463-1.018-6.456-4.869-12.179-5.926l-1.137.465-4.389-.868a111.054,111.054,0,0,0,13.94,6.2A3.016,3.016,0,0,1,41.6,37.6c.108.672,4.529,1.765,7.039,2.653-.98.817-6.009-.96-8.524-1.847-.269,1.336,3.971,3.6,10,5.4,2.849.75,3.13.454,3.049.159-.056-.2-.285-.408.048-.264,9.23,1.525,7.377,3.834,15.188,4.331,3.189-.273.462-1.669,1.251-2.155-3.922-1.086-6.218-.631-8.911-1.181l3.4.234a18.344,18.344,0,0,0-5.326-1.282c2.683-.279,15.544,2.826,22.765,3.476,1.2.527,3.321,1.239,2.227,1.385l-2.219-.547c-2.192.291,4.037,1.758,1.138,1.534,2.915,1.059,6.141,2.465,10.45,2.888l.933-.78a8.751,8.751,0,0,1-3.964-.516c1.683.77,6.744-.071,8.433,1.571l-3.1.106c2.925,1.067,6.461,2.812,10.271,3.226a2.225,2.225,0,0,1-1.5.174,4.919,4.919,0,0,0-2.227.162c2.46-.91-8.514-1.7-6.068-2.431A12.271,12.271,0,0,1,92,53.914a18.235,18.235,0,0,0-4.214-.054c.172-.3,1.384-.371-1.8-.817.148.148-.018.191-1.189-.158l1.189.158a3.943,3.943,0,0,0-.637-.415c-.1-.006-.133-.009-.218-.016l.181,0c-.127-.075-.137-.086.067,0a4.99,4.99,0,0,0,1.7-.18c-1.422-1.036-6.436-1.97-8.056-2.676-1.9-.207.712.517-.376.663l-2.421-1.054c-.387.664-5.191.231-.869,1.492l-3.968-.727a28.1,28.1,0,0,1-7.571-1.184c-1.9-.2-4.57-1.692-3.049-.822l-6.131-1.632-.092.166c-6.15-1.084-12.4-3.6-19.654-3.654a36.541,36.541,0,0,0,4.224.979,12.079,12.079,0,0,1-5.209-1L34.89,43a46.644,46.644,0,0,0-7.615-1.665l-.79.487c-2.609-.722-8.078-.907-9.1-1.768C14.267,41.141,4.794,38.059,0,37.385L1.267,27.2h.264l.131.828c3.267.143,6.381.559,10.412,1.124l-.291.708a34.132,34.132,0,0,0,7.573.335c2.211-.045,4.583-.09,6.95.083a5.6,5.6,0,0,0-2.764-.2c3.506-.648,7.14-.064,10.676.521,3.211.53,6.342,1.06,9.225.668a9.812,9.812,0,0,0,3.616.209,1.763,1.763,0,0,1-.368-.06l.614.028,2.094-.259a12.973,12.973,0,0,1-1.765.282c1.148.085,2.887.279,4.585.563l.774-.732c.14.015.248.029.395.046,1.695-.185,1.327.449.4.977a16.706,16.706,0,0,1,2.233.6c.713-.578,1.813-.413,2.979-.247a5.058,5.058,0,0,0,3.42-.278c1.03.668,7.5.969,9.1,2.143a18.507,18.507,0,0,1,5.457.412l.869-.935,4.078,1.583c2.564-.444,3.634-.728,1.172-1.642,5.987,1.542,4.89.745,9.972,2.221l-.212-.654c1.841.139,4.732,1.177,5.875.718,2.292-.518,8.169-.138,14.765.241,5.478.315,11.452.631,16.283.434-1.124.9.241.731,1.869.56,1.52-.158,3.268-.317,3.426.4.644-.4,2.135-.559.447-1.056,5.369.784,8.157-.182,11.8,1.288.647-.4-1.112-.727-.545-.954a4.807,4.807,0,0,0,2.269.272c.567-.228-.766-.425-1.609-.675,5.51.439,5.977,1.845,6.293,3.156,2.835-.424,4.224-.246,6.185.73,1-.355,2.653-.687-.763-1.065,1.932.067,11.814.165,11.941,1.208a9.113,9.113,0,0,1,3.2.261c4.328.237,4.715.17,8.953.558l-1.188.088c1.021.87,2.178.836,3.78.8a22.449,22.449,0,0,1,3.143.1l-.089-.133a22.446,22.446,0,0,1,5.523.117c.867.158,1.587.315,5.65.07l-.476.742c.335.947,2.421.7,4.973.444a21.829,21.829,0,0,1,6.4.022l-1.654.324c2.412.745,7.025-1.772,9.506-1.787.548-.1-.831-.3-1.574-.459,6.528-.492.761,1.074,5.554,1.671.928-.478-1.039-1.472,2.2-1.33.777-.149,2.883.392,5.362.931,2.773.605,6.015,1.21,8.391.85-1.008.34-2.006.682.2,1.179a29.881,29.881,0,0,0,4.6.007c2.852-.127,5.9-.256,7.767.733.444-.08.618-.177.646-.279,2.589.547,8.459,1.331,9.969,2.184a2.113,2.113,0,0,1,.792-.444c-.747-.347-1.584-.747-2.567-1.221l-.836.611c-1.538-.885-10.838-1.484-17.777-4.157.048.106.159.293.7.544-7.837-2.917-19.837-2.575-22.11-6.117l-5.165-1.981c4.046.837,3.135.2,2.249-.437-.637-.457-1.262-.915-.028-.825-2.675-.82-7.222-.83-3.921.115l.555-.018c.467.952-2.088.437-4.557-.079-2.119-.442-4.174-.883-4.2-.4-13.564-3.307-27-5.6-39.755-8.513l1.736-.808-4.459-.971c-1.229,0-1.775.536,1.405,1.226-1.817.263-5.188-1.785-5.22-2.054-3.407-.529-2.525.067-1.289.662,1.056.509,2.37,1.017,1.49.827l-2.564-.688h.614c-1.986-.955-2.056-1.5-5.881-2.326-1.327-.176-1.632-.042-1.78.094-.127.117-.139.232-.582.152-.013.085-.342.048-1.463-.3l-5.624-1.2,2.45-.39c-2.351-1.009-5.21-1.167-2.552-1.586-4.317.616-20.949-4.264-23.375-4.3A54.532,54.532,0,0,0,107.2,10.169c1.1.053,1.968-.826-1.73-1.539.5,1.41-1.949.96-4.734.512a17.778,17.778,0,0,0-5.224-.35c.874-.307-2.835-1.136-5.213-1.859l.6-5.344c1.543.111,2.582.295,1.749.718q.246.063.473.117c1.371-.254-.483-.78,1.552-1.214A91.139,91.139,0,0,0,108.732,1.2c3.771-.184,7.69-.37,11.652-.248.145.284-1.4.717.579,1.142l4.88-1.419c1.825.139,1.679,1.636,5.014.653-.472.238-1.175.6.05.688,7.83-.6,15.807-.468,23.827-.336,10.521.173,21.117.343,31.55-1.13-2.491.551-.831.605,1.071.626-1.236.131.028.7-.215,1.086l7.7-1.068c1.4,1.068,8.252.071,9.056,1.092L201.454,2.1c3.242,1.207-4.535,2.678-4.062,4.224-1.71-.646-3.93-.234-6.424.178-2.8.463-5.949.927-9.1-.11-1.315.315,1.121.5.418.856-1.509-.664-3.333-.8-6.711-.5l.381.164c-9.49-.161-13.559.492-24.22.927l.789-.765a18.914,18.914,0,0,0-3.845.534c-2.629-1.159,6.434-.064,4.04-1.342-3.039,1.554-16.156.023-18.211,1.791-1.761,0-1.5-.218-1.246-.439s.519-.443-1.243-.437l-.935.478-.89-.615c-2.311.1-3.476.7-3.564,1.1a19.774,19.774,0,0,1,2.194.149,30.113,30.113,0,0,1-6.392.085c-1.2-.071-2.218-.141-2.782-.122l3.083-.267c-2.166-.1-4.44-.147-6.77-.17.4.244.932.551,1.691.949l1.275-.32a14.481,14.481,0,0,0,5.4,2.247c-3-1.215,2.626-.331-.707-1.794,8.253.554,11.52,4.008,15.6,2.987,1.92,1.437-.84.952-3.064.469-1.574-.341-2.878-.684-2.063-.345-1.835.133,2.738,1.9,5.272,2.318a10,10,0,0,0,3.283-.052,20.935,20.935,0,0,1,7.763.464c-.5-.127-.564-.25-1.149-.379,2.488.143,4.559,1.645,7.649,1.658,1.417,1.359,3.824.831,4.008,2.184l-5.8-1.651c3.249,1.1,6.027,3.277,11.665,3.85a15.717,15.717,0,0,0-3-1.506c1.686.007,3.026.963,4.773.974-.183-1.357-7.061-1.934-10.4-3.711a9.074,9.074,0,0,1,2.872.659c1.66.565,3.087,1.132,2.18.046,2.172,2.313,6.348,1.253,10.37,3.574l-.111-.812a18.414,18.414,0,0,0,3.258,1.237l-2.054-1.5c3.309,1.645,6.924.864,10.179,2.1-4.373-1.043-4-.586-3.84-.128.1.278.118.556-1.055.5,4.342,1.564,5.659,1.312,7.225,1.061,1.435-.231,3.078-.461,7.448.7-1.519-.353-4.456-.533-2.66.221a29.882,29.882,0,0,0,5.622.453c6.4,1.682-1.17.534,1.461,1.64,2.4-.389,3.071,1.121,5.821,2.08l.2-.752c7.445,1.264,1.566,2.041,8.3,3.032l-2.538-1.719,3.375,1.1-.5-1.031a29.044,29.044,0,0,0,8.518,2.292c-.98.327.148,1.489,3.385,2.3.786.029.917-.079.925-.186.016-.21-.441-.419,2.583.392a4.954,4.954,0,0,0-4.087-1.385c-.146-.3-.909-.722-1.062-1.017,2.51.058,6.02,1.334,7.684,1.747a10.713,10.713,0,0,0-1.844-.261l6.41,2.675c1.118-.027.342-.457-.428-.884,1.331.414,2.18.989,4.148,1.543-.354-.723-.1-1.318-2.648-2.26l6.008,2.185c.491-.164,3.441.076,2.674-.355,3.613.514,8.337,3.349,13.12,4.071A.379.379,0,0,1,259,39.3l.275.206-.156-.03a5.7,5.7,0,0,0,1.638.763c4.417,1,8.5,1.26,13.481,3.545l3.274-.248c4.031,1.456-4.417.18,2.279,2.617,2.957,1.185,3.062.77,3.162.357.061-.255.123-.508.836-.393l1.024.644c.47.317.711.43,1.729,1.177.178.138.351.284.514.437a4.936,4.936,0,0,1,1.129,1.6,4.407,4.407,0,0,1,.069,3.178,4.158,4.158,0,0,1-1.227,1.724,4.5,4.5,0,0,1-.823.557l-.288.124a5.247,5.247,0,0,1-.53.177,4.746,4.746,0,0,1-1.767.128c-.662-.071-1.213-.17-1.747-.27a22.45,22.45,0,0,0-6.579-.537c1.458.373,2.6.324,4.066.586l-3.543.234c3.885,1.5,7.551,1.467,3.819,2C279.136,55.592,266.427,56.181,266.085,53.979Zm-37.995-3.45c.985.236,2.934.889,3.7.487a2.312,2.312,0,0,0-1.709-.658C229.528,50.358,228.9,50.469,228.091,50.53ZM68.414,49.088l-.1-.057c-.943-.052-1.351-.075-1.391-.075C66.869,48.956,67.516,49,68.414,49.088Zm215.169-.149h0c0-.011-.008-.015-.01,0ZM149.919,43.188a6.519,6.519,0,0,0,3.2.047,13.185,13.185,0,0,0-1.78-.119A14.115,14.115,0,0,0,149.919,43.188Zm-107.2-4.054c2.98-.21-1.47-.68-1.775-1.175a5.228,5.228,0,0,0-.936.229A9.963,9.963,0,0,0,42.723,39.133Zm-5.7-.615a21.268,21.268,0,0,0,2.529-.241,18.149,18.149,0,0,1-2.344-.092c-.343.109-.378.219-.224.326Zm-2.206-.4c-.116-1.116-5.509-3.245-11.3-3.408-1.172.253-.014,1.241.587,1.873.517.08,1.015.154,1.5.224a.185.185,0,0,1-.045-.208l4.406.8C31.518,37.613,33.076,37.83,34.816,38.123ZM20.322,36.762c-.069-.165.113-.3.353-.415-.739-.085-1.434-.143-1.922-.152A15.839,15.839,0,0,0,20.322,36.762ZM71.8,34.845c.068-.172.554-.227-.277-.292A1,1,0,0,1,71.8,34.845ZM.833,34.688.84,34.7l.188-1.518a12.953,12.953,0,0,0,1.714-.123c1.268-.267.431-1.039-.376-1.782-.39.055-.768.11-1.123.167l.165-1.332a.313.313,0,0,1,0-.047l-.172,1.38-.218.036L.807,33.182l.214,0Zm6.749-2.967c.524.156.966.27,1.358.356a3.05,3.05,0,0,0-.064-.374C8.563,31.709,8.139,31.714,7.582,31.721Zm1.244-.2a1.738,1.738,0,0,0-.64-.934c-.143.016-.82.085-1.75.188A5.754,5.754,0,0,0,8.825,31.52ZM148.356,20.685l.925.006a6.864,6.864,0,0,0-1.332-.4C147.78,20.294,148.07,20.486,148.356,20.685ZM107.148,57.1l1.489.026.114.674Zm15.985-1.432c.408.176.9.184,1.3.359l-.186.333C122.441,55.99,121.227,55.46,123.134,55.668Zm-26.543-.2.32.083A2.41,2.41,0,0,1,96.591,55.466Zm-2.558-.673a9.11,9.11,0,0,0,2.282.248c.127,0,.256,0,.392,0-.083.141-.53.271-.115.421Zm10.7-.672c.624.149,1.262.289,1.885.378.047.111.009.156-.093.156A18.169,18.169,0,0,1,104.73,54.121Zm-4.633-.593c.355-.6,2.143-.031,4.163.481l-.361-.07c.154.363-.019.505-.4.505A15.135,15.135,0,0,1,100.1,53.528Zm156.9.7,1.281-.836-.638.872Zm-2.724-1.3,1.435.313A13.168,13.168,0,0,1,254.273,52.928ZM83.047,52.536a2.818,2.818,0,0,1,.634.165A2.653,2.653,0,0,1,83.047,52.536Zm.324-.05c.288,0,.824.034,1.761.126C84.61,52.6,84.015,52.557,83.371,52.486Zm-2.192-.346c.767.158,1.49.263,2.192.346-.273,0-.392.013-.324.05C82.654,52.452,82.1,52.336,81.179,52.14Zm168.391.216.616.066A4.7,4.7,0,0,1,249.57,52.355ZM100.252,51.52l1.907.2-.885.655Zm-22.468-.056c-1.125-.53-1.793-1.06.941-.3,1,.021.45.939,1.049.781.13.144.1.2-.035.2A7.314,7.314,0,0,1,77.784,51.464Zm165.963.639-.232-.333c.441.2.636.335.311.335Zm-23.656-.314a5.16,5.16,0,0,1,2.387-.157l-2.2.424ZM90.068,51.048l.046.023Zm-.429-.415a.864.864,0,0,0,.429.415C89.82,50.923,89.643,50.789,89.639,50.633Zm.4-.571a13.672,13.672,0,0,1,2.6.634C92.082,50.579,90.866,50.319,90.044,50.063Zm6.7.55-2.316-.382,3.314.4ZM85.915,49.218l3.306.406c-.075.123.326.281.823.439C88.027,49.7,85.793,49.438,85.915,49.218Zm199.073-3.959a12.906,12.906,0,0,1,1.3.563C285.815,45.619,285.387,45.432,284.988,45.259Zm-34.229-.083c.881.2,1.251.373,1.211.526C251.061,45.508,250.553,45.331,250.759,45.176Zm31.674-.484c-.767-.107-1.091-.2-.738-.706a30.759,30.759,0,0,1,3.292,1.272A11.923,11.923,0,0,0,282.433,44.692Zm-120.694.23a22.389,22.389,0,0,1-2.827.266Zm-2.552-.476c.384.157.383.306-.454.393A.742.742,0,0,0,159.187,44.446ZM39.114,43.977c.511,0,1-.006,1.463-.014,1.562-.033,2.758-.066,3.116.461A37.488,37.488,0,0,1,39.114,43.977Zm21.263-2.142,1.607.7a3.949,3.949,0,0,0-1.688.3Zm-13.1-.1c-.311-.341.691-.322,2,.041.817.353,2.119.712,1.521.869Zm108.307-.132,2.025.592-.636.17ZM84.6,40.567l1.75-1.912,3.078,2.793A8.247,8.247,0,0,0,84.6,40.567Zm-.2.013.2-.013-.05.055Zm-32.761-.264A10.13,10.13,0,0,0,50,39.591l-.063-.025c-.644-.261-1.079-.464-.423-.387-.183-.2-.536-.356-2.189-.247-.983-.449,3.194-.209,2.181-.606,2.564.564,3.938.417,2.683,1.423-.178.005-.343.009-.5.01.748.3,1.857.66,1.119.66A11.113,11.113,0,0,1,51.638,40.316Zm20.652-.575a1.2,1.2,0,0,1-.191.035Zm-2.13-.141.1.038A.606.606,0,0,1,70.161,39.6Zm187.356-1.419c2.593.667,1.362.725,1.48,1.114ZM48.195,38a8.47,8.47,0,0,1,1.308.329C49.09,38.236,48.656,38.13,48.195,38Zm188.943-4.488.175.064ZM1.237,31.441h.007l-.216,1.738H1.021ZM49.4,31.188c2.16-.468,4.591-1.248,4.29-.545l-.7.658A14.747,14.747,0,0,0,49.4,31.188ZM194.644,23.6c.152.036.29.072.408.111C194.913,23.671,194.777,23.634,194.644,23.6ZM163.5,18.893c-1.281-.6-.7-.415.3,0ZM95.508,8.792a1.592,1.592,0,0,1-.283.06Q95.361,8.818,95.508,8.792Zm33.318-.5.475-.084c.035.07-.073.091-.257.091C128.98,8.3,128.906,8.294,128.826,8.29Zm-9.174-.037-.3.026A2.306,2.306,0,0,1,119.652,8.254ZM205.945.514l1.66.949a6.2,6.2,0,0,0-2.311.1Zm-18.59.658a15.393,15.393,0,0,1,2.506.053C189.26,1.182,188.278,1.18,187.355,1.172ZM199.987.344,202.753,0l-1.786.553Z" fill="#355e98"/>
</svg>
