<svg xmlns="http://www.w3.org/2000/svg" width="489.224" height="137.03" viewBox="0 0 489.224 137.03">
  <path id="Sketch" d="M388.086,135.492c2.069.294,1.118,1.278,1.387,1.539C386.09,136.125,388.228,135.216,388.086,135.492Zm-37.623-10.536,4.263,1.506.511.573Zm-27.4-4.531c3.36-1.343,11.41,2.5,17.181,2.9l1.013-.258,2.249,2.027C336.7,123.541,328,120.814,323.067,120.425Zm-14.442,1.488c1.284.267,1.232.359.817.359C308.784,122.272,307.213,122.04,308.625,121.912Zm-3.233-.573c1.186-.547-3.526-1.341,3.981.519l-.749.053Zm-12.081-2.8,4.263,1.507a9.808,9.808,0,0,1-2.218.008c-1.155-.07-2.123-.14-1.32.205C289.6,119.033,290.612,118.772,293.312,118.538Zm5.826.272c2.543.055,5.776.4,1.5-1.1,5.316,1.19,6.64,2.073,4.747,2.073A33.565,33.565,0,0,1,299.137,118.81Zm22.693-.676,3.4.069,2.725,1.188C326.595,118.8,321.512,118.695,321.831,118.134Zm-30.192-1.073c.7-.187.882-.8,2.173.638-.285-.643.564.085,2.538.88Zm-2.222-.717,2.222.717a1.423,1.423,0,0,1-.347.042A3.58,3.58,0,0,1,289.417,116.344Zm-1.908-2.591,1.533.313,7.689,3Zm-19.63-.72-4.719-1.63c4.351.747,5.079,1.233,4.719,1.63l3.154,1.088c-1.721-.04-4.93-.388-5.266.175C265.571,113.836,267.453,113.492,267.88,113.034Zm5.641-3.252c1.9,1.176-1.5,1.1,2.6,2.889C273.393,111.484,267.581,109.658,273.521,109.782Zm-28.355.125,2.058.894,2.569,1.471Zm12.819-.775,5.2.724c-.16.284-1.175.547.177,1.136Zm-7.171,1.327,2.129-.783-4.136-.724,4.209.7-.073.023,1.914.348a5.537,5.537,0,0,1-2.66.5C251.8,110.526,251.34,110.506,250.813,110.459Zm4.043-.434c.205-.076.324-.093.482.087Zm-29.367-3.15a32.114,32.114,0,0,0,9.472,1.409c1.886,1.171-3.045.789-.985,1.682A46.063,46.063,0,0,1,225.489,106.874Zm30.565,1.989-.523-.578,2.454.846Zm3.362-1c-.115.066-.23.134-.347.2C258.924,108.005,259.065,107.934,259.416,107.865Zm9.158.112-.674-.292a40.385,40.385,0,0,0-8.485.18,13.977,13.977,0,0,1,5.054-1.67,8.518,8.518,0,0,0,3.578,1.207c2.105.044.1-.556.277-.916,1.215.518,4.1,1.535,1.424,1.535C269.436,108.021,269.049,108.008,268.574,107.977Zm-28.463-.4a22.043,22.043,0,0,1-2.8-1.262c1.332.348,2.56.711,3.612,1.088a3.72,3.72,0,0,0-.808.173l.322.115a3.862,3.862,0,0,1-.47.045C239.744,107.738,239.872,107.662,240.111,107.578Zm.808-.173c.323-.039.573-.024.482.16Zm-19.572-2.235c1.326.449,2.674,1.054,4.143,1.7A25.616,25.616,0,0,1,221.346,105.17Zm47.349,1.109c-.329.044-.331.129-.37.208C267.71,106.222,267.484,106.079,268.7,106.279ZM232.047,105.1c.339.438,1.486,1.329-1.665.683a40.758,40.758,0,0,0-7.3-2.04c2.992.339,6.065.8,8.96,1.357-.153-.2-.167-.311.535-.119a11.942,11.942,0,0,1,4.724,1.332C235.672,105.884,233.931,105.473,232.047,105.1Zm.629-3.24,4.41-.2-.33.561c4.754.665,3.6,1.211,4.092,1.786Zm-14.823,1.43.242-.028-9.822-2.537c2.134.243,4.763.779,9.41,1.806-1.415-1.471-6.355-2.926-3.031-3.587,6.136,1.257,4.124,1.791,7.7,3-5.689-1.261-3.916-.674-2.789-.087.83.432,1.311.864-1.782.561,1.912.57,3.656.966,5.3,1.331C221.273,103.545,219.516,103.389,217.853,103.293Zm.286-.016-.006-.021-.039.008Zm-.093-.216c.023.063.09.132.087.2.456-.062.614-.123.115-.131a1.3,1.3,0,0,0-.2-.064,1.234,1.234,0,0,0-.364-.522c-.628-.067-1.01-.095-1.213-.095C215.727,102.444,217.359,102.819,218.046,103.061Zm-4.154.128c1.2-.019,2.549.029,3.96.1a21.156,21.156,0,0,1-2.347.144A3.074,3.074,0,0,1,213.892,103.188Zm-17.353-4.525,10.349,1.828-.687-.3,2.071.533a37.961,37.961,0,0,0-7.526.056C197.359,99.6,196.711,99.062,196.539,98.663Zm-5.185-.906,3.589,1.208.863,1.432Zm4.648.814.473-.125c-.064-.494.018-.921-4.955-2.524a30.939,30.939,0,0,1,3.394.025c3.2.11,6.885.221,4.056-1-4.716-1.307-5.56-1.1-6.864-.9a11.115,11.115,0,0,1-2.125.149c3.043-.792-8.214-3.571-6.37-5.237l5.784,1.818c.17-.283-1.883-1.176-.186-1.138.186,1.138,5.825,3.236,11.074,3.059,4.8,1.744.89,4.621-3.808,5.749l.064.217Zm255.193-7.144-3.908.43c1.1.063,1.256.3,2.345.358-7.62,1.095-5.287-3.173-14.953-3.519-3.377-.021-5.76.3-3.515.951l-7.4-1.544c-1.775-.086-1.79.351-.566.575l-10.354-1.111.076.116c-1.58-.713-5.2-1.909-6.971-2.438-2.943.3,1.423.511.644.913l-6.25-1.41c-2.65.75,2.515,2.105,6.89,2.322-3.556,1.848-4.731,1.12-7.53.392a28.694,28.694,0,0,0-10.554-.567l5.936.92c-4.013,1.809-8.613.7-15.463,1.5,1.651-.563,13.768-2.28,6.974-3.719a23.16,23.16,0,0,1-8.164-.949c-.134,1.313-3.724.717-8.244.3l.18,1.767c-4.854-.871-4.4-1.735-7.225-2.724-5.469-.217-6.7,1.052-8.064,2.1-8.756-.347,6.19-1.735-4.127-2.8-7.315.148-12.365-.927-20.985-2.592-5.129.239.814,1.13-1.045,1.5l-4.413-1.7c-1.107-.042-.779.409-.614.637-3.763-.8-.192-1.764-6.134-2.647-.7-.963-3.538-.57-7.1-.178-3.951.436-8.795.871-12.6-.543-1.855.371.807,1.13.2,1.767-10.047-2.127-8.626-1.639-16.829-4.116l-7.176.673c5.305-.963-1.257-2.955-7.01-4.616,1.893-.508,3.511-.959,4.589-1.151l-9.256-1.553c-1.144.212-.245.874,1.233,1.7l-1.679-.531c-3.374.425-1.713,1.546.609,2.678l3.427-.853c2.231,1.212,4.305,2.527,3.758,3.516a15.2,15.2,0,0,0-3.021-.672c.581.326.949.609.659.766-.328.163-1.274-.288-2.768-.835l-2.247,1.8-.462-.806-12.266.409c-8.592-2.526-15.99-5.894-29.783-7.591,3.343,1.648.589,2.377.666,4.078,3.893-1.545,10.671,1.452,17.869,1.552-3.755-.053-2.985.8-2.051,1.148l-12.69-2.454c.2,1.4-2.784.862-6.162,1.217,2.7-2.566-9.42-2.441-14.573-3.6-.382.9.807,1.907,7.173,2.1-3.648.819-5.878-.184-8.119-1.189-2.146-.962-4.3-1.924-7.723-1.283,1.551.121,2.4.033,2.979.538-3.571-1.044-12.47-.957-10.437-.027l1.546.117c-10.316-.333-31.348-1.954-32.739-4.364a9.117,9.117,0,0,0,1.768,3.388l-17.891-8.945c1.5,2.092-5.011,6.452,3.458,8.108a38.089,38.089,0,0,1-10.649-.75c1.69-.18,4.348-2.621,2.073-2.946-6.322,1.8-4.483.942-11.955,2.277,1.961-.52-.573-3.518-4.353-3.654.565.484-.429,2.852.743,3.414l-9.03-3.425c1.62.808-.376,2.5-2.462,3.177,1.061-.539-8.53-.465-11.141-.929l4.224-.456c-11.164-.216-10.738-4.98-21.8-5.486,1.3.715,3.068,4.1-2.574,4.146-2.48-1.725-10.946-8.249-20.651-10.038l-1.929.786-7.44-1.47A188.693,188.693,0,0,0,69.8,63.889a5.133,5.133,0,0,1,.728-.2c.185,1.137,7.681,2.99,11.936,4.493-1.664,1.385-10.19-1.623-14.454-3.127C67.56,67.32,74.749,71.152,84.98,74.2c4.829,1.268,5.307.768,5.173.269-.095-.347-.485-.693.08-.448,15.649,2.585,12.508,6.493,25.752,7.334,5.409-.461.784-2.827,2.121-3.65-6.649-1.84-10.545-1.068-15.111-2l5.766.394a31.132,31.132,0,0,0-9.031-2.168c4.549-.473,26.358,4.784,38.6,5.888,2.042.892,5.63,2.1,3.775,2.344l-3.763-.929c-3.717.5,6.846,2.979,1.931,2.6,4.942,1.795,10.411,4.175,17.717,4.89l1.582-1.318c-.678.339-4.906-.037-6.72-.876,2.853,1.3,11.437-.12,14.3,2.662l-5.252.177c4.962,1.807,10.956,4.765,17.418,5.464a3.764,3.764,0,0,1-2.541.295A8.355,8.355,0,0,0,173,95.4c4.17-1.54-14.432-2.884-10.293-4.117a20.757,20.757,0,0,1-6.72.034,31.156,31.156,0,0,0-7.145-.093c.293-.506,2.348-.627-3.044-1.381.25.249-.028.321-2.017-.269l2.017.269a6.567,6.567,0,0,0-1.081-.7l-.368-.028.307-.007c-.216-.126-.233-.147.114,0a8.464,8.464,0,0,0,2.88-.3c-2.411-1.753-10.914-3.339-13.662-4.533-3.218-.349,1.206.876-.635,1.125L129.252,83.6c-.657,1.124-8.8.391-1.473,2.526L121.048,84.9a47.638,47.638,0,0,1-12.838-2c-3.22-.345-7.75-2.865-5.17-1.393l-10.4-2.764-.154.283C82.061,77.18,71.466,72.927,59.16,72.826a61.3,61.3,0,0,0,7.163,1.66,20.5,20.5,0,0,1-8.831-1.694l1.668.034A79.7,79.7,0,0,0,46.248,70.01l-1.341.825c-4.424-1.224-13.7-1.54-15.421-3C24.193,69.684,8.127,64.464,0,63.324L2.145,46.076H2.6l.223,1.4c5.539.242,10.819.946,17.654,1.9l-.494,1.2c3.345.773,7.851.67,12.842.568,3.748-.076,7.772-.154,11.785.141-.609-.506-2.99-.525-4.688-.342,5.947-1.1,12.109-.108,18.1.881,5.446.9,10.755,1.8,15.641,1.133a16.64,16.64,0,0,0,6.133.354,3.222,3.222,0,0,1-.624-.1l1.04.048,3.551-.439a21.591,21.591,0,0,1-2.994.476c1.947.143,4.895.474,7.776.955l1.314-1.239.668.078c2.872-.313,2.249.76.671,1.656a27.713,27.713,0,0,1,3.785,1.024c1.208-.982,3.076-.7,5.054-.42,2.012.286,4.138.571,5.8-.471,1.747,1.132,12.714,1.642,15.436,3.63,3.215-.067,6.422-.124,9.252.7L132,57.628l6.915,2.683c4.348-.751,6.162-1.233,1.985-2.782,10.154,2.615,8.293,1.262,16.909,3.763l-.359-1.105c3.122.234,8.024,1.991,9.963,1.216,3.888-.877,13.855-.234,25.043.409,9.286.534,19.413,1.068,27.6.733-1.905,1.527.411,1.238,3.171.949,2.577-.269,5.543-.539,5.81.674,1.093-.683,3.621-.948.757-1.789,9.105,1.331,13.832-.306,20.014,2.183,1.1-.686-1.886-1.233-.925-1.616.723.21,2.865.846,3.847.46.962-.386-1.3-.719-2.726-1.143,9.343.746,10.136,3.126,10.672,5.345,4.805-.716,7.16-.414,10.486,1.239,1.7-.6,4.5-1.164-1.295-1.8,3.275.113,20.035.279,20.248,2.047,1.055-.373,4.577.184,5.424.444,7.339.4,8,.284,15.183.943l-2.016.148c1.732,1.474,3.695,1.416,6.41,1.359a38.206,38.206,0,0,1,5.328.17l-.15-.227c6.44-.291,8.008-.046,9.365.2,1.469.266,2.69.533,9.58.118l-.808,1.256c.567,1.6,4.105,1.179,8.431.753,3.491-.343,7.493-.687,10.861.037l-2.8.551c4.09,1.261,11.91-3,16.118-3.027.93-.176-1.41-.5-2.668-.778,11.069-.834,1.291,1.82,9.416,2.832,1.574-.811-1.762-2.495,3.74-2.253,1.319-.251,4.888.664,9.091,1.579,4.7,1.024,10.2,2.047,14.23,1.439-1.709.576-3.4,1.154.342,2a50.689,50.689,0,0,0,7.8.012c4.837-.216,10-.432,13.169,1.24.754-.135,1.048-.3,1.094-.472,4.389.93,14.346,2.256,16.9,3.7a3.58,3.58,0,0,1,1.344-.753c-1.267-.587-2.686-1.266-4.354-2.069l-1.416,1.034c-2.608-1.5-18.377-2.513-30.144-7.039.081.178.271.5,1.189.92-13.288-4.939-33.636-4.36-37.492-10.36l-8.756-3.355c6.861,1.418,5.315.338,3.811-.74-1.081-.775-2.139-1.551-.047-1.4-4.535-1.388-12.246-1.4-6.65.2l.942-.029c.795,1.611-3.537.739-7.723-.134-3.594-.749-7.08-1.5-7.123-.675-23-5.6-45.792-9.494-67.414-14.421l2.944-1.368-7.56-1.643c-2.083-.007-3.011.905,2.383,2.076-3.085.444-8.8-3.023-8.854-3.483-5.775-.893-4.28.115-2.184,1.124,1.79.862,4.019,1.723,2.528,1.4l-4.349-1.162h1.041c-3.367-1.62-3.486-2.537-9.971-3.94-2.251-.3-2.768-.07-3.018.159-.216.2-.235.4-.987.259-.022.141-.581.079-2.481-.516l-9.534-2.029,4.153-.661c-3.986-1.711-8.833-1.975-4.328-2.686-7.322,1.041-35.521-7.224-39.634-7.29-5.64-2.473-11.467-3.786-18.711-5.3,1.866.09,3.336-1.4-2.934-2.6.851,2.388-3.3,1.627-8.022.866-3.139-.507-6.528-1.012-8.863-.592,1.488-.521-4.8-1.924-8.837-3.149l1.016-9.053c2.617.187,4.379.5,2.964,1.216.278.071.545.138.8.2,2.327-.43-.818-1.32,2.633-2.056,7.24.809,15.325.393,23.849-.024,6.4-.312,13.039-.625,19.758-.419.245.481-2.38,1.216.981,1.931l8.273-2.4c3.094.236,2.849,2.774,8.5,1.107-.8.4-1.99,1.014.085,1.167,13.276-1.013,26.8-.791,40.4-.569,17.841.292,35.808.584,53.5-1.914-4.223.932-1.408,1.024,1.816,1.06-2.1.223.047,1.188-.364,1.838l13.05-1.809c2.378,1.808,13.993.123,15.354,1.85L341.6,3.554c5.5,2.041-7.692,4.535-6.887,7.153-2.9-1.093-6.665-.4-10.894.3-4.753.784-10.089,1.568-15.431-.188-2.229.533,1.9.842.709,1.45-2.559-1.122-5.65-1.356-11.378-.853l.648.278c-16.092-.274-22.993.833-41.071,1.57l1.338-1.3a31.682,31.682,0,0,0-6.521.9c-4.459-1.963,10.91-.11,6.849-2.275-5.153,2.634-27.4.039-30.878,3.032-2.989.009-2.551-.366-2.112-.74s.877-.749-2.11-.74l-1.585.809-1.51-1.043c-3.918.172-5.895,1.185-6.042,1.871a34.455,34.455,0,0,1,3.721.251c-2.967.556-7.353.352-10.838.147-2.032-.119-3.758-.238-4.715-.207l5.225-.455c-3.675-.171-7.532-.249-11.483-.286.672.414,1.581.933,2.869,1.608l2.165-.544c2.656,1.55,2.788,2.075,9.16,3.808-5.079-2.059,4.451-.562-1.2-3.039,13.993.939,19.534,6.789,26.455,5.057,3.257,2.437-1.424,1.616-5.2.8-2.668-.58-4.881-1.161-3.5-.586-3.112.225,4.643,3.221,8.939,3.924a17.059,17.059,0,0,0,5.567-.085,35.556,35.556,0,0,1,13.177.788c-.867-.218-.963-.426-1.962-.645,4.219.243,7.731,2.785,12.97,2.809,2.4,2.3,6.482,1.405,6.794,3.7l-9.829-2.8c5.509,1.86,10.218,5.553,19.781,6.521a26.7,26.7,0,0,0-5.081-2.549c2.86.011,5.13,1.63,8.093,1.648-.308-2.3-11.974-3.275-17.638-6.284a15.344,15.344,0,0,1,4.871,1.115c2.815.959,5.235,1.919,3.695.079,3.684,3.918,10.767,2.12,17.586,6.053l-.188-1.376a31.233,31.233,0,0,0,5.525,2.1l-3.485-2.543c5.613,2.786,11.741,1.461,17.261,3.56-7.416-1.767-6.781-.991-6.508-.215.166.471.2.943-1.79.845,7.364,2.646,9.6,2.22,12.252,1.795,2.433-.391,5.223-.781,12.643,1.194-2.57-.6-7.577-.909-4.527.374a51.02,51.02,0,0,0,9.534.767c10.849,2.847-1.984.9,2.477,2.776,4.081-.656,5.208,1.9,9.872,3.525l.34-1.275c12.627,2.139,2.657,3.455,14.083,5.134l-4.3-2.909,5.724,1.854-.853-1.746c6.085,2.6,8.127,2.8,14.443,3.885-1.662.554.25,2.52,5.742,3.891,1.332.048,1.554-.133,1.568-.315.025-.356-.75-.711,4.379.661-1.564-1.229-3.25-2.7-6.93-2.344-.246-.5-1.541-1.223-1.8-1.723,4.256.1,10.207,2.261,13.027,2.96a18.325,18.325,0,0,0-3.126-.443l10.869,4.533c1.9-.046.581-.778-.723-1.5,2.255.7,3.694,1.676,7.032,2.614-.6-1.225-.161-2.232-4.476-3.825l10.174,3.694c.831-.274,5.835.13,4.533-.6,6.126.871,14.136,5.673,22.249,6.9a.631.631,0,0,1-.2-.3l.465.349-.263-.053a9.688,9.688,0,0,0,2.777,1.293c7.489,1.689,14.42,2.134,22.858,6l5.551-.421c6.835,2.467-7.488.306,3.866,4.434,5.016,2,5.194,1.3,5.363.6.1-.43.205-.859,1.414-.666l1.739,1.093c.8.535,1.205.727,2.93,1.992.3.233.593.482.871.743a8.3,8.3,0,0,1,1.916,2.7,7.457,7.457,0,0,1,.117,5.382,7.072,7.072,0,0,1-2.081,2.919,7.641,7.641,0,0,1-1.4.944l-.487.21c-.294.114-.595.215-.9.3a8.045,8.045,0,0,1-3,.217c-1.124-.121-2.055-.291-2.963-.46a38.16,38.16,0,0,0-11.156-.906c2.473.631,4.413.551,6.895.993l-6.007.4c6.585,2.547,12.8,2.485,6.476,3.392C473.323,94.159,451.774,95.156,451.195,91.428Zm-64.428-5.844c1.671.4,4.975,1.508,6.271.825a3.928,3.928,0,0,0-2.9-1.116C389.2,85.293,388.137,85.482,386.767,85.584Zm-270.76-2.44-.166-.1c-1.6-.087-2.288-.128-2.358-.128C113.386,82.918,114.482,83,116.007,83.144Zm364.858-.255h.007c-.007-.019-.014-.025-.016,0Zm-226.65-9.74c1.23.519,3.191.433,5.421.08a22.667,22.667,0,0,0-3.029-.2A23.689,23.689,0,0,0,254.214,73.149ZM72.442,66.283c5.054-.357-2.488-1.154-3.009-1.991a8.876,8.876,0,0,0-1.586.387A16.9,16.9,0,0,0,72.442,66.283ZM62.775,65.24c.736-.195,3.571-.04,4.29-.407a31.215,31.215,0,0,1-3.977-.155c-.58.183-.641.37-.38.549Zm-3.74-.669c-.2-1.89-9.34-5.5-19.168-5.77-1.987.428-.025,2.1.994,3.17.876.135,1.721.261,2.545.38A.315.315,0,0,1,43.329,62l7.485,1.357C53.451,63.708,56.089,64.076,59.035,64.57Zm-24.577-2.3c-.117-.278.192-.516.6-.7-1.255-.145-2.436-.243-3.264-.258A26.73,26.73,0,0,0,34.458,62.267Zm87.3-3.248c.115-.289.938-.384-.471-.494A1.7,1.7,0,0,1,121.756,59.018ZM1.411,58.753l.011.011L1.742,56.2a22.293,22.293,0,0,0,2.907-.208c2.151-.453.732-1.76-.637-3.02-.662.093-1.3.187-1.9.282L2.387,51a.53.53,0,0,1,0-.088l-.291,2.338-.368.059L1.366,56.2l.363-.008Zm11.444-5.025c.889.264,1.638.457,2.3.6a5.241,5.241,0,0,0-.109-.633C14.518,53.707,13.8,53.716,12.855,53.728Zm2.108-.34a2.94,2.94,0,0,0-1.085-1.582c-.242.027-1.391.143-2.966.317C11.66,52.8,13.625,53.174,14.963,53.388Zm236.6-18.353,1.568.008a11.731,11.731,0,0,0-2.257-.67C250.587,34.373,251.078,34.7,251.563,35.035ZM181.688,96.715l2.524.045.193,1.14Zm27.105-2.426c.692.3,1.53.311,2.212.609l-.313.563C207.621,94.832,205.561,93.936,208.793,94.289Zm-45.01-.344.545.144A4.03,4.03,0,0,1,163.783,93.945Zm-4.336-1.14a15.373,15.373,0,0,0,3.868.423c.218,0,.437,0,.666,0-.142.238-.9.458-.2.712Zm18.139-1.138c1.058.255,2.143.491,3.2.641.079.188.015.264-.158.264A30.9,30.9,0,0,1,177.586,91.667Zm-7.854-1c.6-1.014,3.633-.051,7.059.814l-.613-.118c.26.614-.032.855-.678.855A25.693,25.693,0,0,1,169.732,90.662Zm266.051,1.183,2.171-1.414-1.082,1.476Zm-4.619-2.2,2.433.528A22.765,22.765,0,0,1,431.164,89.648Zm-290.345-.664a4.885,4.885,0,0,1,1.076.279A4.584,4.584,0,0,1,140.819,88.984Zm.551-.085c.489,0,1.4.057,2.985.213C143.47,89.091,142.461,89.02,141.37,88.9Zm-3.717-.586c1.3.268,2.527.447,3.717.586-.464-.007-.664.023-.551.085Zm285.547.366,1.034.111A8.022,8.022,0,0,1,423.2,88.679ZM169.993,87.262l3.234.348-1.5,1.107Zm-38.1-.092c-1.907-.9-3.042-1.8,1.592-.515,1.7.034.764,1.59,1.779,1.324.22.244.168.345-.059.345A12.447,12.447,0,0,1,131.9,87.17Zm281.419,1.081-.394-.567c.75.336,1.079.57.526.57Q413.389,88.254,413.317,88.251ZM373.2,87.717c.757-.405,1.853-.358,4.047-.264l-3.723.717ZM152.76,86.481l.042.02Zm-.762-.72a1.5,1.5,0,0,0,.762.72C152.321,86.264,152,86.033,152,85.761Zm.687-.969a23.452,23.452,0,0,1,4.413,1.075C156.139,85.669,154.079,85.228,152.685,84.792Zm11.361.934-3.928-.649,5.618.682Zm-18.363-2.363,5.606.687c-.126.209.551.476,1.4.741C149.265,84.185,145.476,83.737,145.683,83.363Zm337.565-6.7a21.768,21.768,0,0,1,2.194.952C484.65,77.268,483.925,76.952,483.249,76.66ZM425.2,76.518c1.5.336,2.121.63,2.054.889C425.718,77.079,424.856,76.782,425.2,76.518Zm53.711-.82c-1.3-.18-1.851-.335-1.251-1.194a51.834,51.834,0,0,1,5.584,2.155A20.173,20.173,0,0,0,478.915,75.7Zm-204.658.389a37.8,37.8,0,0,1-4.8.449Zm-4.329-.808c.652.266.649.522-.77.667A1.267,1.267,0,0,0,269.928,75.279Zm-203.6-.794c.871.007,1.709-.008,2.491-.024,2.644-.056,4.667-.11,5.273.781A63.353,63.353,0,0,1,66.323,74.486Zm36.056-3.627,2.725,1.189a6.7,6.7,0,0,0-2.861.513Zm-22.22-.165c-.527-.579,1.174-.546,3.388.068,1.386.6,3.592,1.206,2.58,1.473Zm183.655-.225c1.04.3,2.207.646,3.434,1l-1.077.291C265.326,71.3,264.535,70.865,263.813,70.469ZM143.458,68.711l2.967-3.242,5.221,4.735A13.984,13.984,0,0,0,143.458,68.711Zm-.346.021.346-.021-.085.095C143.272,68.777,143.206,68.757,143.112,68.732ZM87.56,68.289a16.582,16.582,0,0,0-2.75-1.216c-.064-.022-.122-.046-.174-.07-1.075-.435-1.786-.771-.685-.642-.311-.344-.91-.6-3.712-.42-1.667-.76,5.414-.354,3.7-1.028,4.348.957,6.677.706,4.549,2.411q-.453.014-.842.017c1.268.511,3.153,1.118,1.9,1.119A18.939,18.939,0,0,1,87.56,68.289Zm35.02-.976a2.182,2.182,0,0,1-.325.058Zm-3.61-.239.167.063A1.063,1.063,0,0,1,118.97,67.074Zm317.694-2.4c4.4,1.131,2.309,1.227,2.509,1.889ZM81.722,64.356a14.582,14.582,0,0,1,2.217.557C83.241,64.763,82.5,64.583,81.722,64.356Zm320.387-7.6.31.112ZM2.095,53.252l.013,0L1.742,56.2H1.729Zm81.668-.427c3.663-.791,7.783-2.113,7.274-.925l-1.178,1.116A25,25,0,0,0,83.763,52.825Zm246.3-12.852c.252.059.48.12.675.183ZM277.239,32c-2.171-1.011-1.188-.7.511,0ZM161.948,14.894a2.591,2.591,0,0,1-.478.1Q161.7,14.938,161.948,14.894Zm56.5-.853.8-.142c.057.118-.12.154-.427.154C218.714,14.053,218.587,14.048,218.447,14.041Zm-15.554-.06-.518.045A3.809,3.809,0,0,1,202.894,13.981ZM349.215.871l2.816,1.605c-1.059-.078-3.115-.232-3.919.169ZM317.692,1.985a26.148,26.148,0,0,1,4.248.091C320.922,2,319.258,2,317.692,1.985Zm21.421-1.4L343.8,0l-3.025.936Z" fill="#e8e7d9"/>
</svg>
