<svg xmlns="http://www.w3.org/2000/svg" width="489.225" height="137.032" viewBox="0 0 489.225 137.032">
  <path id="Sketch-form-right" d="M388.086,135.493c2.07.295,1.118,1.277,1.388,1.539C386.091,136.126,388.23,135.216,388.086,135.493Zm-37.623-10.537,4.264,1.506.511.572Zm-27.4-4.53c3.362-1.343,11.411,2.5,17.181,2.9l1.015-.256,2.247,2.027C336.7,123.541,328,120.816,323.067,120.426Zm-14.441,1.488c1.283.267,1.231.357.818.357C308.787,122.272,307.213,122.04,308.626,121.914Zm-3.231-.575c1.184-.546-3.529-1.34,3.979.522-.385.025-.514.034-.748.053C307.941,121.791,307,121.625,305.4,121.34Zm-12.084-2.8,4.264,1.5a9.943,9.943,0,0,1-2.219.008c-1.153-.07-2.123-.139-1.32.206C289.6,119.032,290.612,118.773,293.312,118.54Zm5.828.272c2.544.053,5.775.4,1.5-1.106,5.316,1.192,6.64,2.074,4.746,2.074A33.606,33.606,0,0,1,299.139,118.812Zm22.694-.678,3.4.07,2.725,1.187C326.6,118.8,321.513,118.7,321.833,118.134Zm-30.194-1.07c.7-.19.881-.8,2.173.637-.285-.642.564.083,2.539.88Zm-2.221-.718,2.221.718a1.449,1.449,0,0,1-.343.041A3.584,3.584,0,0,1,289.418,116.346Zm-1.906-2.592,1.531.312,7.689,3Zm-19.631-.72-4.717-1.627c4.349.746,5.08,1.229,4.717,1.627l3.153,1.09c-1.72-.043-4.928-.39-5.266.172C265.573,113.837,267.452,113.492,267.88,113.034Zm5.641-3.252c1.9,1.176-1.5,1.1,2.6,2.888C273.393,111.485,267.583,109.659,273.522,109.783Zm-28.353.126,2.055.9,2.571,1.468Zm12.816-.776,5.2.723c-.159.284-1.174.546.179,1.135Zm-7.17,1.325,2.128-.78c-2.078-.364-3.518-.618-4.135-.726l4.208.7-.073.024c.584.105,1.244.226,1.914.349a5.534,5.534,0,0,1-2.651.5C251.806,110.525,251.346,110.506,250.815,110.457Zm4.042-.431c.2-.077.325-.1.481.085C255.162,110.08,255.031,110.057,254.857,110.027Zm-29.368-3.153a32.063,32.063,0,0,0,9.472,1.41c1.886,1.171-3.045.788-.985,1.68A45.823,45.823,0,0,1,225.49,106.874Zm30.566,1.99-.524-.577,2.453.846Zm3.362-1c-.115.066-.23.134-.347.2C258.925,108,259.066,107.934,259.418,107.864Zm9.157.113-.675-.293a40.574,40.574,0,0,0-8.482.179,13.959,13.959,0,0,1,5.052-1.667,8.577,8.577,0,0,0,3.579,1.208c2.105.04.1-.559.277-.917,1.215.516,4.1,1.533,1.429,1.533C269.442,108.021,269.053,108.007,268.575,107.977Zm-28.464-.4a22.12,22.12,0,0,1-2.8-1.263c1.332.348,2.559.711,3.611,1.089a3.67,3.67,0,0,0-.808.174l.322.115a3.893,3.893,0,0,1-.468.044C239.746,107.739,239.873,107.663,240.112,107.579Zm.808-.174c.323-.038.572-.023.481.162C241.25,107.513,241.064,107.454,240.92,107.405Zm-19.573-2.234c1.327.449,2.674,1.053,4.143,1.7A25.746,25.746,0,0,1,221.347,105.171Zm47.349,1.108c-.328.045-.33.129-.37.209C267.711,106.224,267.485,106.081,268.7,106.279ZM232.048,105.1c.34.439,1.488,1.33-1.665.685a40.305,40.305,0,0,0-7.293-2.039c2.992.337,6.064.8,8.958,1.354-.151-.2-.166-.309.536-.118a11.988,11.988,0,0,1,4.725,1.332C235.672,105.884,233.932,105.474,232.048,105.1Zm.629-3.238,4.41-.2-.33.561c4.755.665,3.594,1.211,4.09,1.786Zm-14.824,1.428c.093-.01.161-.021.242-.028l-9.822-2.539c2.136.245,4.765.781,9.411,1.809-1.415-1.471-6.357-2.926-3.032-3.589,6.137,1.26,4.125,1.793,7.7,3-5.689-1.261-3.916-.675-2.788-.088.829.433,1.31.863-1.783.561,1.914.57,3.657.965,5.3,1.333C221.274,103.544,219.518,103.388,217.854,103.292Zm.287-.014-.005-.021c.456-.063.612-.124.113-.131a1.076,1.076,0,0,0-.2-.066,1.231,1.231,0,0,0-.365-.521c-2.919-.312-.511.214.365.521.023.063.091.134.088.2l-.04.007Zm-4.246-.089c1.2-.021,2.549.028,3.959.1a20.76,20.76,0,0,1-2.343.145A3.1,3.1,0,0,1,213.895,103.189ZM196.54,98.663l10.348,1.828-.685-.3,2.07.53a38.032,38.032,0,0,0-7.525.059C197.361,99.6,196.711,99.064,196.54,98.663Zm-5.186-.906,3.591,1.208.861,1.431Zm4.647.816.476-.126c-.066-.493.018-.922-4.956-2.527a30.873,30.873,0,0,1,3.382.026c3.2.113,6.9.225,4.067-1-4.717-1.307-5.561-1.1-6.865-.9a11.176,11.176,0,0,1-2.123.149c3.042-.791-8.215-3.571-6.372-5.237l5.785,1.817c.171-.283-1.881-1.174-.186-1.139.186,1.139,5.825,3.236,11.074,3.06,4.8,1.743.889,4.621-3.805,5.75l.063.216ZM451.2,91.428l-3.909.431c1.1.063,1.257.3,2.345.357-7.618,1.093-5.286-3.174-14.952-3.519-3.377-.023-5.76.3-3.513.95l-7.4-1.544c-1.777-.085-1.791.354-.562.577l-10.358-1.11.076.115c-1.579-.715-5.2-1.912-6.971-2.437-2.941.294,1.425.511.645.911l-6.251-1.41c-2.649.751,2.516,2.105,6.89,2.323-3.556,1.848-4.732,1.121-7.53.392a28.642,28.642,0,0,0-10.553-.567l5.933.92c-4.012,1.81-8.613.7-15.461,1.5,1.652-.563,13.766-2.282,6.974-3.719a23.139,23.139,0,0,1-8.165-.95c-.133,1.312-3.725.718-8.243.3l.179,1.769c-4.853-.871-4.4-1.736-7.223-2.724-5.47-.217-6.7,1.053-8.067,2.1-8.754-.347,6.19-1.737-4.128-2.8-7.313.149-12.363-.926-20.984-2.592-5.127.239.814,1.131-1.045,1.5l-4.412-1.7c-1.106-.045-.781.408-.615.634-3.762-.8-.191-1.763-6.132-2.647-.7-.964-3.541-.569-7.1-.176-3.951.436-8.8.871-12.605-.542-1.854.371.808,1.129.207,1.767-10.049-2.129-8.628-1.641-16.831-4.116l-7.175.673c5.3-.964-1.257-2.954-7.011-4.614,1.894-.512,3.511-.96,4.591-1.154l-9.258-1.554c-1.143.211-.244.874,1.234,1.7-.617-.194-1.2-.38-1.68-.531-3.375.426-1.715,1.546.61,2.677,1.138-.282,2.294-.572,3.428-.851,2.229,1.211,4.3,2.528,3.758,3.515a15.052,15.052,0,0,0-3.022-.673c.582.328.949.61.657.766-.327.161-1.272-.288-2.768-.834l-2.246,1.8-.461-.807-12.267.411c-8.593-2.526-15.992-5.9-29.783-7.593,3.342,1.649.587,2.377.665,4.08,3.894-1.544,10.673,1.453,17.869,1.552-3.755-.054-2.984.805-2.05,1.147l-12.688-2.456c.2,1.4-2.785.862-6.163,1.22,2.7-2.566-9.422-2.44-14.574-3.6-.38.9.808,1.909,7.172,2.1-3.649.819-5.878-.183-8.119-1.189-2.146-.962-4.3-1.924-7.722-1.282,1.551.122,2.4.033,2.979.54-3.574-1.045-12.471-.959-10.439-.028l1.546.115c-10.316-.332-31.347-1.954-32.74-4.364a9.132,9.132,0,0,0,1.77,3.391l-17.891-8.949c1.5,2.1-5.012,6.454,3.458,8.109a38.116,38.116,0,0,1-10.648-.748c1.69-.181,4.347-2.625,2.07-2.947-6.32,1.8-4.482.941-11.953,2.276,1.962-.519-.571-3.517-4.354-3.654.565.485-.43,2.856.744,3.418l-9.033-3.428c1.62.809-.374,2.5-2.461,3.178,1.06-.539-8.533-.466-11.142-.929l4.224-.455c-11.162-.217-10.736-4.982-21.795-5.488,1.3.715,3.067,4.1-2.576,4.148-2.478-1.725-10.945-8.247-20.649-10.039l-1.929.786-7.442-1.468A188.841,188.841,0,0,0,69.806,63.891a5.092,5.092,0,0,1,.728-.2c.184,1.138,7.681,2.989,11.938,4.492-1.665,1.386-10.192-1.624-14.456-3.127-.456,2.261,6.734,6.1,16.964,9.139,4.828,1.266,5.306.768,5.173.269-.1-.347-.486-.692.081-.446,15.65,2.584,12.509,6.493,25.754,7.334,5.407-.464.783-2.827,2.12-3.651-6.649-1.838-10.545-1.068-15.111-2l5.765.395a31.162,31.162,0,0,0-9.031-2.17c4.551-.473,26.358,4.784,38.6,5.889,2.043.891,5.631,2.1,3.775,2.344l-3.763-.929c-3.717.5,6.845,2.979,1.929,2.6,4.944,1.792,10.414,4.173,17.717,4.887l1.581-1.318c-.68.34-4.907-.036-6.719-.872,2.853,1.3,11.436-.124,14.3,2.66l-5.251.178c4.961,1.807,10.955,4.763,17.418,5.463a3.763,3.763,0,0,1-2.541.293,8.379,8.379,0,0,0-3.778.276c4.172-1.542-14.437-2.885-10.29-4.118a20.8,20.8,0,0,1-6.725.036,31.032,31.032,0,0,0-7.142-.093c.292-.507,2.35-.627-3.042-1.38.249.246-.03.322-2.017-.27l2.017.27a6.371,6.371,0,0,0-1.08-.7c-.166-.013-.227-.019-.37-.028l.307-.01c-.217-.127-.232-.146.113,0a8.574,8.574,0,0,0,2.881-.3c-2.413-1.755-10.915-3.339-13.662-4.535-3.219-.348,1.206.876-.635,1.126L129.255,83.6c-.657,1.124-8.8.39-1.473,2.527L121.049,84.9a47.7,47.7,0,0,1-12.839-2c-3.219-.345-7.749-2.867-5.17-1.394L92.646,78.735l-.156.284c-10.426-1.839-21.024-6.095-33.329-6.193a60.991,60.991,0,0,0,7.163,1.659,20.469,20.469,0,0,1-8.83-1.7c.572.013,1.1.026,1.667.036a79.784,79.784,0,0,0-12.909-2.816l-1.342.824c-4.425-1.225-13.7-1.539-15.421-3C24.195,69.686,8.13,64.465,0,63.324L2.146,46.076c.166,0,.31,0,.451,0l.224,1.4c5.538.242,10.819.945,17.654,1.9l-.5,1.2c3.347.774,7.852.67,12.844.567,3.748-.075,7.772-.153,11.784.141-.61-.506-2.989-.523-4.687-.343,5.946-1.1,12.106-.107,18.1.882,5.445.9,10.754,1.8,15.642,1.134a16.64,16.64,0,0,0,6.132.354,3.178,3.178,0,0,1-.625-.1l1.04.048c1.131-.139,2.312-.284,3.551-.439a21.51,21.51,0,0,1-2.995.476c1.949.143,4.9.474,7.777.955l1.314-1.239c.234.028.421.05.667.078,2.874-.313,2.249.76.67,1.657a27.891,27.891,0,0,1,3.785,1.022c1.209-.982,3.077-.7,5.055-.42,2.012.287,4.138.572,5.8-.469,1.747,1.131,12.718,1.643,15.438,3.63,3.213-.067,6.421-.126,9.25.7L132,57.628l6.916,2.684c4.349-.753,6.163-1.234,1.987-2.782,10.152,2.613,8.291,1.261,16.909,3.762l-.36-1.105c3.12.234,8.024,1.99,9.963,1.213,3.886-.876,13.851-.234,25.036.411,9.288.534,19.42,1.068,27.612.732-1.906,1.527.41,1.237,3.168.95,2.579-.269,5.543-.539,5.81.673,1.093-.683,3.621-.947.758-1.788,9.107,1.33,13.831-.307,20.014,2.184,1.1-.688-1.886-1.231-.924-1.617.723.212,2.866.847,3.848.461.959-.385-1.3-.721-2.728-1.143,9.344.745,10.134,3.125,10.671,5.344,4.805-.715,7.16-.413,10.487,1.239,1.7-.6,4.5-1.164-1.294-1.8,3.274.113,20.034.276,20.248,2.045,1.055-.37,4.576.183,5.425.443,7.339.4,7.993.287,15.181.945l-2.015.148c1.733,1.474,3.695,1.416,6.412,1.36a37.853,37.853,0,0,1,5.327.17l-.149-.228c6.437-.291,8.006-.044,9.361.2,1.471.267,2.69.53,9.583.117l-.808,1.257c.567,1.6,4.1,1.179,8.429.753,3.491-.342,7.5-.687,10.865.038l-2.805.549c4.09,1.262,11.91-3,16.118-3.027.929-.176-1.41-.5-2.67-.778,11.069-.833,1.292,1.82,9.417,2.833,1.574-.811-1.76-2.495,3.743-2.254,1.317-.249,4.883.665,9.084,1.579,4.7,1.023,10.2,2.045,14.234,1.438-1.707.577-3.4,1.157.343,2a50.622,50.622,0,0,0,7.8.012c4.838-.216,10-.433,13.169,1.242.756-.136,1.05-.3,1.1-.474,4.39.929,14.345,2.257,16.9,3.7a3.567,3.567,0,0,1,1.341-.752c-1.267-.587-2.686-1.266-4.353-2.068l-1.415,1.034c-2.609-1.5-18.377-2.513-30.144-7.041.081.178.27.5,1.189.922-13.287-4.939-33.637-4.359-37.492-10.361l-8.757-3.355c6.86,1.418,5.314.338,3.81-.741-1.078-.776-2.138-1.551-.045-1.4-4.536-1.387-12.247-1.4-6.651.2l.942-.028c.793,1.609-3.536.737-7.721-.136-3.594-.748-7.082-1.5-7.125-.673-23-5.606-45.793-9.495-67.414-14.422l2.944-1.369-7.56-1.642c-2.083-.007-3.009.9,2.385,2.076-3.085.446-8.8-3.022-8.855-3.48-5.775-.894-4.281.113-2.186,1.121,1.791.861,4.019,1.725,2.528,1.4l-4.347-1.164,1.04,0c-3.367-1.619-3.486-2.536-9.971-3.939-2.251-.3-2.768-.073-3.02.159-.214.2-.234.393-.985.258-.023.14-.582.08-2.483-.514l-9.532-2.03,4.153-.662c-3.984-1.71-8.832-1.976-4.328-2.686-7.322,1.042-35.52-7.222-39.634-7.29-5.639-2.472-11.466-3.786-18.709-5.3,1.866.091,3.334-1.395-2.934-2.6.849,2.388-3.3,1.627-8.026.864-3.137-.506-6.523-1.011-8.858-.592,1.481-.52-4.808-1.922-8.839-3.146l1.015-9.053c2.616.185,4.377.5,2.965,1.214q.418.108.8.2c2.325-.43-.818-1.319,2.631-2.057,7.243.809,15.33.392,23.855-.026,6.394-.311,13.036-.624,19.752-.417.244.481-2.38,1.216.982,1.931l8.273-2.4c3.093.234,2.848,2.773,8.5,1.105-.8.4-1.99,1.015.086,1.168C235.259,2.4,248.79,2.617,262.4,2.839c17.836.293,35.8.584,53.482-1.912-4.224.932-1.408,1.023,1.816,1.058-2.1.225.048,1.19-.365,1.839l13.051-1.808c2.38,1.808,14,.121,15.355,1.851l-4.13-.312c5.5,2.039-7.691,4.535-6.888,7.153-2.9-1.094-6.666-.4-10.895.3-4.752.784-10.089,1.569-15.431-.186-2.229.534,1.9.844.71,1.45-2.561-1.123-5.651-1.358-11.381-.854l.65.277c-16.093-.272-22.994.833-41.071,1.572l1.337-1.295a31.739,31.739,0,0,0-6.52.9c-4.458-1.962,10.91-.111,6.848-2.274-5.153,2.635-27.393.04-30.876,3.032-2.989.007-2.554-.368-2.116-.741s.877-.751-2.108-.741l-1.584.811-1.511-1.042c-3.916.171-5.893,1.184-6.039,1.868a34.825,34.825,0,0,1,3.72.252c-2.967.556-7.351.35-10.837.146-2.025-.119-3.745-.239-4.7-.208l5.213-.452c-3.674-.171-7.53-.249-11.481-.286.672.413,1.58.931,2.868,1.606l2.163-.542c2.657,1.549,2.788,2.076,9.16,3.809-5.077-2.061,4.453-.564-1.2-3.044,14,.94,19.536,6.79,26.456,5.061,3.256,2.435-1.423,1.614-5.193.8-2.669-.58-4.883-1.162-3.5-.585-3.113.225,4.641,3.219,8.941,3.924a17.093,17.093,0,0,0,5.563-.087,35.578,35.578,0,0,1,13.187.791c-.873-.218-.967-.427-1.97-.647,4.221.242,7.732,2.785,12.97,2.808,2.405,2.3,6.483,1.408,6.795,3.7l-9.83-2.8c5.51,1.86,10.217,5.553,19.782,6.52a26.735,26.735,0,0,0-5.082-2.549c2.861.01,5.133,1.63,8.094,1.647-.307-2.3-11.973-3.273-17.637-6.283a15.356,15.356,0,0,1,4.868,1.113c2.816.959,5.236,1.919,3.7.08,3.682,3.919,10.764,2.123,17.584,6.055l-.186-1.378a31.193,31.193,0,0,0,5.525,2.1L296.21,32.8c5.614,2.785,11.741,1.461,17.259,3.559-7.414-1.769-6.78-.993-6.508-.217.166.474.2.945-1.788.847,7.364,2.646,9.6,2.219,12.252,1.793,2.434-.389,5.221-.781,12.646,1.2-2.57-.6-7.581-.912-4.532.371a51.124,51.124,0,0,0,9.535.768c10.85,2.845-1.985.9,2.476,2.775,4.082-.657,5.211,1.9,9.875,3.526l.337-1.274c12.628,2.138,2.657,3.453,14.083,5.133l-4.3-2.909,5.722,1.854-.851-1.746c6.085,2.6,8.127,2.8,14.443,3.886-1.662.554.249,2.518,5.742,3.89,1.332.048,1.554-.133,1.569-.314.025-.355-.751-.713,4.377.659-1.564-1.229-3.249-2.7-6.931-2.344-.244-.5-1.541-1.224-1.8-1.722,4.254.1,10.2,2.261,13.025,2.959a18.515,18.515,0,0,0-3.125-.444l10.87,4.534c1.9-.046.582-.777-.725-1.5,2.256.7,3.694,1.678,7.031,2.614-.6-1.227-.159-2.231-4.488-3.828l10.188,3.7c.834-.275,5.835.131,4.533-.6,6.128.874,14.136,5.674,22.251,6.9a.617.617,0,0,1-.2-.3l.464.35-.262-.053a9.75,9.75,0,0,0,2.775,1.295c7.49,1.687,14.423,2.133,22.86,6l5.553-.423c6.833,2.468-7.49.307,3.863,4.432,5.014,2,5.193,1.305,5.364.6.1-.431.2-.859,1.415-.665.529.333,1.113.7,1.738,1.094.8.534,1.2.724,2.929,1.992.3.232.594.48.871.74a8.331,8.331,0,0,1,1.917,2.7,7.465,7.465,0,0,1,.116,5.384,7.063,7.063,0,0,1-2.08,2.917,7.5,7.5,0,0,1-1.4.945l-.486.211c-.292.113-.594.214-.9.3a8.03,8.03,0,0,1-2.994.216c-1.123-.121-2.055-.289-2.964-.458a38.163,38.163,0,0,0-11.157-.908c2.473.631,4.415.551,6.9.992l-6.007.4c6.586,2.546,12.8,2.483,6.475,3.39C473.326,94.158,451.775,95.158,451.2,91.428Zm-64.427-5.846c1.67.4,4.974,1.509,6.271.827a3.936,3.936,0,0,0-2.9-1.116C389.2,85.294,388.137,85.481,386.769,85.582ZM116.007,83.145l-.166-.1c-1.6-.085-2.286-.127-2.357-.127C113.386,82.919,114.483,83,116.007,83.145Zm364.858-.254h.008c-.007-.02-.014-.027-.016,0ZM254.215,73.15c1.232.518,3.191.433,5.422.08a22.66,22.66,0,0,0-3.029-.2A23.738,23.738,0,0,0,254.215,73.15ZM72.443,66.283c5.057-.357-2.493-1.154-3.009-1.99a9,9,0,0,0-1.585.386A16.824,16.824,0,0,0,72.443,66.283Zm-9.666-1.042c.736-.2,3.569-.041,4.289-.408a31.132,31.132,0,0,1-3.977-.157c-.583.184-.642.372-.377.552Zm-3.742-.668c-.188-1.889-9.335-5.5-19.166-5.771-1.988.428-.028,2.1.992,3.169.875.135,1.721.261,2.544.38A.314.314,0,0,1,43.33,62l7.489,1.357C53.455,63.709,56.091,64.078,59.036,64.573ZM34.46,62.266c-.118-.277.191-.514.6-.7-1.254-.145-2.433-.242-3.261-.259A26.257,26.257,0,0,0,34.46,62.266Zm87.3-3.249c.115-.286.937-.383-.47-.492A1.7,1.7,0,0,1,121.757,59.018ZM1.413,58.754l.011.012L1.743,56.2a21.961,21.961,0,0,0,2.905-.209c2.151-.452.733-1.759-.636-3.019-.662.093-1.3.187-1.9.283L2.389,51a.5.5,0,0,1,0-.082L2.1,53.255l-.369.06-.36,2.89.363-.007Zm11.444-5.024c.889.264,1.638.457,2.3.6a5.206,5.206,0,0,0-.109-.633C14.52,53.708,13.8,53.718,12.857,53.729Zm2.107-.342a2.939,2.939,0,0,0-1.085-1.582c-.242.026-1.391.143-2.967.316C11.66,52.8,13.626,53.174,14.964,53.387Zm236.6-18.352,1.569.009a11.72,11.72,0,0,0-2.258-.671C250.588,34.374,251.078,34.7,251.563,35.035ZM181.689,96.714l2.524.046.194,1.138Zm27.106-2.425c.693.3,1.529.313,2.211.61l-.312.563C207.621,94.833,205.563,93.937,208.795,94.289Zm-45.007-.341.541.142A3.987,3.987,0,0,1,163.788,93.948Zm-4.34-1.142a15.4,15.4,0,0,0,3.871.423c.217,0,.436,0,.665,0-.143.239-.9.46-.2.715Zm18.14-1.138c1.058.254,2.141.491,3.2.64.079.19.015.265-.158.265A30.711,30.711,0,0,1,177.589,91.667Zm-7.855-1c.6-1.016,3.632-.051,7.059.813l-.615-.116c.261.614-.03.854-.675.854A25.745,25.745,0,0,1,169.734,90.663Zm266.049,1.184,2.173-1.415-1.083,1.477Zm-4.616-2.2,2.43.528A22.188,22.188,0,0,1,431.167,89.648Zm-290.347-.662a4.921,4.921,0,0,1,1.077.277A4.619,4.619,0,0,1,140.819,88.985Zm.551-.085c.489,0,1.4.056,2.984.214C143.471,89.09,142.461,89.02,141.371,88.9Zm-3.717-.587c1.3.27,2.528.446,3.717.587-.463-.008-.662.023-.551.085C140.154,88.842,139.212,88.645,137.654,88.313Zm285.552.368,1.03.111A8.09,8.09,0,0,1,423.206,88.68ZM170,87.262l3.234.348-1.5,1.108Zm-38.1-.093c-1.909-.9-3.045-1.8,1.592-.514,1.7.036.766,1.589,1.781,1.325.22.244.168.344-.058.344A12.455,12.455,0,0,1,131.9,87.169Zm281.419,1.083-.4-.567c.751.337,1.08.571.524.571C413.408,88.256,413.365,88.255,413.318,88.252ZM373.2,87.718c.758-.4,1.854-.361,4.047-.265l-3.722.718ZM152.727,86.465l.075.037Zm-.728-.7a1.481,1.481,0,0,0,.728.7C152.305,86.252,152.006,86.026,152,85.761Zm.688-.969a23.485,23.485,0,0,1,4.412,1.075C156.141,85.671,154.081,85.23,152.686,84.792Zm11.361.934-3.926-.65,5.616.683Zm-18.362-2.362,5.606.687c-.126.206.552.476,1.4.741C149.266,84.185,145.478,83.736,145.685,83.364Zm337.557-6.708a21.661,21.661,0,0,1,2.2.955C484.648,77.268,483.92,76.95,483.242,76.657Zm-58.036-.138c1.5.338,2.12.63,2.055.889C425.719,77.08,424.858,76.784,425.205,76.519Zm53.711-.819c-1.3-.181-1.851-.337-1.249-1.2a52.051,52.051,0,0,1,5.574,2.153A20.21,20.21,0,0,0,478.917,75.7Zm-204.657.388a38.437,38.437,0,0,1-4.8.451Zm-4.329-.809c.65.268.647.524-.773.667A1.27,1.27,0,0,0,269.93,75.28ZM66.323,74.487c.866.007,1.7-.01,2.483-.025,2.649-.056,4.674-.111,5.284.783A63.529,63.529,0,0,1,66.323,74.487ZM102.38,70.86l2.725,1.189a6.693,6.693,0,0,0-2.861.514Zm-22.22-.166c-.526-.577,1.174-.545,3.387.068,1.385.6,3.594,1.206,2.581,1.476Zm183.656-.225c1.04.3,2.206.645,3.433,1.005-.348.093-.715.191-1.075.289C265.326,71.3,264.536,70.865,263.815,70.469ZM143.458,68.711l2.967-3.242,5.223,4.736A13.974,13.974,0,0,0,143.458,68.711Zm-.345.021c.108-.005.247-.014.345-.021l-.083.1C143.275,68.777,143.207,68.76,143.114,68.732Zm-55.552-.444a17.117,17.117,0,0,0-2.78-1.226c-.042-.015-.08-.031-.117-.047-1.09-.44-1.822-.784-.711-.654-.311-.344-.91-.6-3.71-.419-1.67-.76,5.412-.355,3.7-1.028,4.347.958,6.676.706,4.548,2.41q-.454.014-.843.016c1.268.512,3.153,1.12,1.9,1.12A18.829,18.829,0,0,1,87.561,68.288Zm35.021-.974a2.239,2.239,0,0,1-.324.059Zm-3.609-.236.165.063A1.058,1.058,0,0,1,118.973,67.078Zm317.691-2.405c4.4,1.13,2.309,1.226,2.511,1.888ZM81.724,64.357a14.436,14.436,0,0,1,2.216.556C83.242,64.763,82.5,64.584,81.724,64.357Zm320.385-7.6.3.108ZM2.1,53.255l.013,0L1.743,56.2H1.731Zm81.667-.43c3.662-.791,7.784-2.113,7.276-.924l-1.179,1.116A25.01,25.01,0,0,0,83.764,52.825Zm246.308-12.85c.25.059.477.119.672.182C330.515,40.094,330.291,40.034,330.072,39.975ZM277.239,32c-2.171-1.013-1.186-.7.511,0C277.591,32,277.423,32,277.239,32ZM161.951,14.892a2.619,2.619,0,0,1-.481.1C161.625,14.956,161.786,14.922,161.951,14.892Zm56.5-.851c.264-.048.554-.1.806-.141.057.117-.118.153-.421.153C218.72,14.054,218.59,14.049,218.448,14.041Zm-15.542-.062-.529.046A3.918,3.918,0,0,1,202.906,13.98ZM349.216.872l2.816,1.607c-1.058-.081-3.113-.232-3.919.166ZM317.693,1.985a26.469,26.469,0,0,1,4.249.092C320.924,2,319.259,2,317.693,1.985Zm21.422-1.4L343.8,0l-3.025.937Z" fill="#355e98"/>
</svg>
