<svg xmlns="http://www.w3.org/2000/svg" width="716.066" height="200.201" viewBox="0 0 716.066 200.201">
  <path id="Sketch-who-we-are" d="M1.04,197.122l2.049,1.232C2.2,198.362.75,199.575,0,200.2Zm12.1,1.316c-3.11.1-6.037.207-4.493-2.515l-2.924,2.443c-.146-2.456,9.818-6.724,10.387-9.784L27.254,183.7c-.757-.449.211-2.532-1.533-1.679,2.424-1.695,4.5-3.237.656-2.01,26.661-11.583,48.055-32.4,72.949-45.828,1.47-1.223.148-1.229-.734-1.227,5.43-1.218,3.51-3.668,5.7-5.5l7.919-1.821c2.061-2.456-.432-1.851-.574-2.465a200.944,200.944,0,0,1,17.788-11.221l5.163-3.17,5.193-3.368a112.484,112.484,0,0,0,9.784-7.321c1.651-.555,1.584.121,1.42.795-.206.841-.566,1.682,2.068.139-5.776.388,13.735-11.178,12.536-12.541,1.665.57,5.743-1.993,8.9-3.755,3.321-1.856,5.288-2.6,1.235,2.855,4.872-2.986,7.389-7.317,6.25-7.029a155.26,155.26,0,0,0,20.514-15.386c.8.088,9.438-6.11,17.831-11.79,8.078-5.466,15.7-10.3,13.153-6.7,3.652-4.869,4.285-4.115,11.851-10.371l3.413-4.65,9.189-5.982c2.786-2.112,3.032-2.182,2.3-1.474l.01-.005c.273.095-4.866,4.631-4.834,5.524,2.755-1.2,6.89-5.137,11.728-9.015l.6-.812,2.246-1.179c.5-.114-2.059,1.714-4.939,4.061-2.824,2.3-6.047,5.186-4.961,5.327.925-.877,4.253-3.741,6.72-5.694,2.5-1.986,4.148-3.069,2.8-1.447-1.953.669-5.9,4.643-6.522,5.7l3.606-1.785,5.243-5.639,9.11-3.217A119.167,119.167,0,0,0,292.1,9.045l-5.99,7.464a39.162,39.162,0,0,0-4.686,4.734,31.392,31.392,0,0,1-6.679,5.832l1.06-.9c1.18-1.36-.035-.448-2.07,1.273-2,1.7-4.968,4.307-6.1,5.53,2.694-2.309,2.988-2.089,4.038-2.55.99-.421,2.553-1.4,5.591-4.626a2.055,2.055,0,0,0-.022,1.8c6.613-4.045,6.55-2.918,3.323.575-2.988,3.333-10.117,9.7-9.988,10.936l-4.3,4.552c1.1-1.39.135-.905-.468-.579-3.908,4.472-10.593,11.162-17.415,17.727l-10.222,9.668q-2.458,2.276-4.856,4.491L231,77.088l-.563.516-.122.083-.224.148c-2.347,1.546-5.112,3.328-5.022,3.911l-2.74.354c-1.059,4.575.668,3.2-6.871,9.093a8.8,8.8,0,0,0-3.07,1.46c1.887-.124,4.674-1.127.842,2.125l-1.672.9-1.71,1.833-19.317,18.8v.029l.006.045.056.05a3.94,3.94,0,0,0-3.16.624c-.406.389-.287.779.339.659a2.228,2.228,0,0,0,.8-.2c1.055-.409,1.427-.821-8.329,5.607a103.715,103.715,0,0,0,10.228-6.552c2.206-1.649,3.4-2.565,3.808-2.891a1.367,1.367,0,0,1-.114.133l3.287-2.464-3.288,2.465c-.966,1.028-6.716,5.938-3.766,3.96,5.589-4.089,9.674-7.536,14.334-11.325-5.135,4.32.56.227,5.682-3.71,5.276-4.026,10.145-7.994,8.4-6.42.348.038-7.922,7-12.265,10.9,5.167-3.644,18.434-16.351,13.371-10.971-1.119.925-2.48,1.946-3.366,2.822-.459.609-8.639,8.663-10.706,11.538-1.13,1.481-1.055,1.874.888.265q.458-.806,1.071-1.7c3.986-3.139,3.367-1.56,4.049-1.064.552.573,1.859.387,5.328-3.685l2.57-3.394c1.471.36,2.846-.642,3.766-1.409a9.407,9.407,0,0,1,4.8-2.257l-.287.479a17.177,17.177,0,0,1,4.027-1.923,5.407,5.407,0,0,0,2.957-3.265l-1.031.207c1.866-1.229,2.841-1.811,3.873-2.38l5.344-2.968c.554-.617,3.156-2.613,4.24-2.626-.824-2,12.941-8.848,15.585-10.274-4.425,3-1.789,2.493-.044,2.468,1.812-3.113,3.587-4.378,7.968-5.515a6.032,6.032,0,0,1-.152-4.3,6.575,6.575,0,0,1,2.123-2.793,67.084,67.084,0,0,1,7.358-5.047c-1.946,1.625-4.868,3.627-3.465,3.43,1.381-.181,4.013-2.448,5-3.268,1.206-.081-2.553,2.651-1.1,2.863,5.4-5.351,10.5-7.549,16.627-10.959a11.874,11.874,0,0,0,3.591.792c-1.9.456-.887,1.491-.624,2.292.867-1.516,2.258-.5,3.693-.292s2.66.195,1.829-.233a14.984,14.984,0,0,0,1.686.244,22.281,22.281,0,0,0-6.12,2.238,5.549,5.549,0,0,0-2.551,3.992,95.414,95.414,0,0,0-8.729,7.572,49.031,49.031,0,0,0-7.813,9.582,15.026,15.026,0,0,0-2.823.813L274.3,80.714l.075,1.057-2.884-1.057c-.926,1.185-1.453,2.05-1.818,2-.329-.054-.185-.506.111-1.093a10.884,10.884,0,0,0-2.118,1.933c-1.014-.853-.045-3.1,1.111-5.305l3.32-.44c1.278-2.15,2.014-4.025-1.017-3.14-.313.357-.692.792-1.089,1.243.752-1.487,1.119-2.56.054-2.334l-6.775,5.367c1-.22,2.6-.379,4.452-.58-3.817,4.088-8.114,8.857-3.178,7.79l-6.32,2.125c-5.379,5.951-4.48,4.858-11.6,11.139-.861-.452.915-2.328-.833-2-.76,1.231-3.619,3.1-5.957,4.334a53.247,53.247,0,0,1-6.935,3.031c-4.152,1.515-6.636,1.993-8.211,4.3-6.927,4.8-4.218,4.9-9.432,8.776.488-.6,1.405-1.754.13-1.042l-7.582,6.5c-.6.057.465-.867,1.514-1.792,1.445-1.275,2.861-2.549-.153-1.253-11.969,8.613-21.3,15.182-28.422,18.468-7.049,4.428-8.253,6.135-8.548,7.19-.324,1.075.147,1.567-5.756,4.883,1.517-2.031,3.616-4.554,2.734-4.784.543-.805.645-1.277.156-1.3-3.925,2.94-6.883,5.908-9.83,7.3l5.6-5.305c-1.977.571-4.087,1.537-.658-1.778-3.533,2.314-4.029,2.039-4.276,1.709a11.658,11.658,0,0,0-4.654,4.517c-1.144,1.784-2.577,4.165-3.362,5.158,1.136-2.094.79-2.6.757-3.309-.077-.663.1-1.463,1.181-3.061q1.318-.385,2.811-.94c-.277-1.605-2.8-.072-3.947.39-1.348.655-1.649.551-1.239-.685,1.556-.214,5.171-2.144,5.216-2.931q-2.26,1.241-4.161,2.137c.017-.226,2.12-.975,1.132-.867-1.369.784-3.779,2.006-4.669,2.37l.088-.057-2.5.665,2.918-3.738c-1.024,1.318-1.122,1.517.08.039q2.132-2.747,4.177-5.6c-1.214,1.759.276.05,2.373-2.338,6.018-6.781,2.935-6.876,7.965-11.99-.638.819-.631,1.041-1.278,1.866l2.6-2.579c-.574-.9,1.321-4.005,3.695-7.537a30.277,30.277,0,0,0,5.121-4.765c1.674-1.846,2.414-2.853,2.513-3.279l-1.6,1.539-4.691,4.523.4-.589c.979-1.431,1.96-2.861,2.8-4.209-.3.191-.607.393-.923.6-3.473,2.282-7.814,5.469-4.238,1.623l6.5-4.57c.944-1.866,1.35-3.418.707-4.356,3.376-2.6,1.94-.567-.131,3.951l5.1-3.586c2.751-3.925,7.427-8.535,12.092-12.771l2.552-2.265q-1.514.863-3.322,2.014c.985-.632,2.467-1.627,4.249-2.836l2.031-1.8c.118.058.315.028.628-.134l-.668.581c2.763-1.885,5.976-4.094,9.092-6.222.4-.587-3.007,1.7-3.362,1.8,2.212-1.487,4.259-2.8,8.071-5.658q-3.993,2.322-9.311,5.934l-2.5,1.97,4.285-3.8,8.79-6.508c-10.279,7.92-2.736,2.355,2.571-1.4,1.29-1.574,2.7-2.142,10.088-7.99,2.11-2.12-9.067,6.247-17,12.373,4.9-4.043,8.464-7.018.063-.751l13.081-10.156-2.493,1.617,15.02-11.481c7.209-6.115,1.034-1.284-5.132,3.548-5.881,4.608-11.753,9.216-6,4.33l13.073-10.457c-2.97,2.024-25.831,20.454-8.226,6.036-7.467,6.068-8.871,7.211-13.534,11-2.26,1.854-4.261,3.484-5.754,4.677.007-.019.014-.037.02-.056l-.322.286.1-.228L206.6,78.75c.249-.128,1.224-.879,2.688-2.05a14.161,14.161,0,0,1-2.459,3.309l-2.087,1.851-.429.318c-5.6,4.341-5.019,4.071-4.47,3.8.22-.109.436-.217.249-.028l.365-.287-1.951,1.731c-.212-.1-.168-.492-.087-.912.082-.609.211-1.25-1.786.354a134.352,134.352,0,0,1,10.14-9.606q.709-.593,1.271-1.057l-.016-.006-1.108.934q.54-.473,1.084-.947c-.26-.163.213-.907,3.088-3.708l-.838,1.762c1.612-1.383,3.2-2.723,4.663-3.952l4.577-3.847-.341.38-8.964,7.556-.066.138c.766-.6.56-.356-.142.3l-.155.327c.777-.659,1.63-1.379,2.534-2.141,1.574-1.329,3.335-2.8,5.1-4.286l-1.1,1.223q-.661.707-1.331,1.4c-2.117,1.783-4.092,3.446-5.663,4.778l-.09.188a.218.218,0,0,0-.059-.062c-2.933,2.487-4.38,3.754-2.536,2.343-.105.06.912-.818,2.566-2.213l.03-.068a.321.321,0,0,1,.019.027c1.239-1.044,2.828-2.372,4.565-3.81-.7.695-1.414,1.379-2.151,2.055l-.164.136L209.34,76.5a.747.747,0,0,1-.027.148c.83-.693,1.627-1.394,2.4-2.1,4.441-3.685,7.164-6.035,8.52-7.258-2.113,1.7-4.342,3.526-6.369,5.2q.591-.586,1.168-1.183c2.2-1.851,4.549-3.831,6.757-5.7,8.89-7.493,15.431-13.185,4.512-4.494-2.079,1.871-5.461,4.73-8.839,7.572l1.7-1.891,1.889-1.592c-.586.348-6.477,5.25-8.445,6.888l10.55-9.076c-10.577,8.859-9.365,7.637-9.262,7.3.242-.434-.434-.113-11.05,9.294,8.346-7.4,7.662-6.882,5.49-5.093s-5.45,4.593-3.15,2.358A101.151,101.151,0,0,1,214.89,69c1.848-1.334,3.9-2.9,12.146-10.1,1.662-1.617.252-.5-1.162.611-1.392,1.1-2.788,2.192-1.251.683l12.351-10.348c1.511-1.932-3.361,1.854-8.686,6.282L213.933,68.244l7.936-6.124c-7.182,6.472-8.211,7.307-9,7.9-.767.571-1.385.953-6.914,5.959,4.133-4.275-3.435,2.47-3.909,2.626-.2.111-.235.054-.024-.242.41-.264,1.226-1.024,1.806-1.482l.246-.186-.183.124c-2.55,1.689-.13-1.343,2.369-4.374,2.3-2.795,4.675-5.588,3.282-4.686-1.942.9-11.946,9.432-13.46,11.814-1.674,1.47-.462.594.866-.282,2.194-1.446,4.708-2.892-4.93,6.23,5.191-5.917,1.818-3.18-2.006.051-3.988,3.346-8.108,6.968-8.416,5.537,3.4-3.156,4.395-4.507,5.064-5.582.707-1.1,1.117-1.95,4.24-4.715-5.175,3.9-6.7,5.647-10.9,9.855l1.405-2.452c-5.567,5.456-6.851,7.071-8.321,8.616-1.39,1.49-2.9,2.869-7.291,6.742,3.824-3.765-.1-2.1,2.953-5.228a37.989,37.989,0,0,0-6.906,5.937l.464-.53c-3.995,3.1-5.085,3.366-6.372,3.879-1.225.471-2.688,1.214-6.328,4.52l.44.6c-2.272,2.15-4.407,3.958-6.557,5.629l-3.233,2.416-3.852,2.7c-6.8,4.662-13.72,9.248-19.649,13.831l4.278-2.231c-2.026,1.246-7.6,6.547-11.765,8.071a23.779,23.779,0,0,1,2.653-2.171c-.58-.62-2.772-.631-5.862,1.212l-.433,1.836-1.756-.007c-4.545,3.058,2.354.616-2.191,3.677-2.441-.648-7.708,2.86-13,6.371-4.871,3.229-9.764,6.458-12.5,6.448-.8,2.143,1.4.768,3.538-.608s4.232-2.752,3.212-.608a22.252,22.252,0,0,0-5.565,2.441l1.9.624c-14.221,8.562-20.213,10.99-32.236,19.554l.3-.615c-4.691,2.438-6.876,4.266-8.051,6.724-1.319,0,1.6-2.443-.453-1.838-5.4,8.569-16.969,7.915-20.054,13.438C18.238,198.273,15.633,198.356,13.144,198.439Zm143.771-50.552c-.9,1.228,1.86-.434,3.228-1.253-.1-.295-.069-.634-.351-.634C159.471,146,158.737,146.44,156.915,147.886Zm30.855-29.3q1.044-.773,1.908-1.417Zm3.046-2.262c.353-.26.722-.534,1.111-.826Zm-16.13-2.542a27.228,27.228,0,0,0,3.812-3.888c.551-.689,1.061-1.4,1.529-2.112l.672-1.083.158-.272.039-.067.019-.035-1.1,1.066-1.829,1.764A41.1,41.1,0,0,0,174.687,113.782Zm-.331-1.729q1.2-1.1,2.431-2.174a6.049,6.049,0,0,0-1.919.9Q174.611,111.4,174.356,112.052Zm33.891-35.695c-2.677,2.4-6.566,5.743-2.3,2.276-1.034.722.235-.41,2.649-2.471l-.037,0-.107.012Zm66.771.882c1.97-.461,3.908-1.308,4.193-2.1A13.4,13.4,0,0,0,275.018,77.24Zm-19.377-50.6c.165-.126.4-.3.657-.493l.448-.578.134-.387C254.217,27.517,251.748,29.665,255.642,26.644ZM8.507,191.625l-1.018,1.216-2.936.61Zm17.213-9.6c-1.178.823-2.438,1.68-3.161,2.28A18.1,18.1,0,0,1,25.721,182.021Zm131.335-29.67c.357.3.543.449-.658,1.821l-1.33,1.175Zm-7.83-2.909-.421.268a.642.642,0,0,1-.086.008C148.608,149.718,148.816,149.625,149.226,149.442Zm.775-3.476-.271.347Zm-41.446-2.536.707-.27a1.464,1.464,0,0,1-.6.358A.1.1,0,0,1,108.556,143.43Zm46.769-4.582-1.337,1.9C154.306,140.292,154.71,139.72,155.325,138.847Zm1.475-2.883,1.085-.373-1.706,1.214Zm-35.353-1.095-.42.219A2.637,2.637,0,0,1,121.447,134.87Zm28.023-4.418c-.638.657-1.313,1.327-2.059,2.023C148.022,131.823,148.723,131.14,149.47,130.452Zm5.989-6.178c7.4-4.194-.517,1.136-5.989,6.178C151.462,128.4,153.1,126.479,155.459,124.275Zm3.941.063c2.914-2.341,5.271-3.3,7.783-4.769l-9.631,9.286A13.955,13.955,0,0,0,159.4,124.338Zm11.289-8.15c-.457.667-.91,1.332-1.347,1.982-.742.535-1.457.987-2.16,1.4Zm23.617-2.544c.194-.142.2-.136-.02.038A.107.107,0,0,0,194.306,113.644Zm149.744-.926a8.807,8.807,0,0,1-4.989-3.849,16.743,16.743,0,0,1-1.024-2.035l-.512-1.579a16.423,16.423,0,0,1-.528-2.789,11.983,11.983,0,0,1,.425-4.721,41.841,41.841,0,0,0,.7,5.264c.22-1.685,1.289-10.185,1.031-11.568.735.024,2.665,5.1,4.141,2.853a39.082,39.082,0,0,0,1.443-6.552,9.66,9.66,0,0,0-.242-4.05c-.639-1.888-2.368-1.655-3.846-.842a10.789,10.789,0,0,1,.333,2.409l.035,1.719-.034,1.056-.271,1.916c-.485,0-.647-.689-.647-1.726a11.711,11.711,0,0,0-.2-2.006c-.19-1.05-.555-1.652-1.884-1.243l2.12-3.659c-.054.263.075,1.323,1.734-.182.742-2.1.88-1.358,2.936-4.2,1.275-.19,3.227.235,4.433,3.069,1.317,2.609,1.9,7.724,2.4,10.935l1.708-8.709,2.122-2.487c1.481-5.764.545-9.226-1.957-9.177-2.133-.368-5.452,2.068-6.884,3.182,1.9-3.311,9.1-10.822,9.915-10.978,1.936-4.212.7-3.823-1.172-2.228a46.315,46.315,0,0,0-4.5,4.395,22.849,22.849,0,0,1-4.435,3.981,2.4,2.4,0,0,1,.057,1.022c-1.529,1.521-3.8,2.121-4.418,3.452.662-1.668,1.914-5.273,3.86-7.67a107.21,107.21,0,0,0-7.454,9.486c.831-1.344,2.333-5.963,3-7.091a12.449,12.449,0,0,0-3.518,4.737c-.764,1.67-1.078,3.111-.85,3.381a2.9,2.9,0,0,0-1.957-.414c-.142.011-.274.022-.391.022-.644.067-1.018-.115-3.215-.241-1.218,1.121,1.357,3.208,1.853,3.285a7.884,7.884,0,0,1-2.064,2.057,29.262,29.262,0,0,1-3.471,1.935c5.629-5.61-2.364-7.126-2.51-10l-4.2,8.764-2.1,4.382-1.05,2.192c-.431.786-1.183,1.8-1.841,2.741.544-1.081.359-4.682-.012-4.87.054.731-.9,2.016-2.679,3.754a28.539,28.539,0,0,1-3.222,2.7c-1.25.8-2.625,2.619-4.25,1.23a37.962,37.962,0,0,1-9.85-5.916,24.868,24.868,0,0,1-3.885-3.88q-.8-1.062-1.562-2.084c-.413-.694-.967-1.833-1.011-1.941a8.667,8.667,0,0,1-.591-2.018l.251.778c.695.245.417-1.1.607-3a10.939,10.939,0,0,1,.4-2.366c.731-1.626,1.313-2.47,1.394-2.806.251-.26.17.045-.009.426-.229.619-.842,1.842,1.138-.28a.448.448,0,0,1,.044-.31c-1.117.865-.971.406-.359-.575q-3.063,2.688-5.256,4.86l-.361.361c.515-.707,1.663-2.541.124-1.892a6.47,6.47,0,0,0,1.211-.7c1.42-1.014,3.358-2.867,5.1-4.285,1.355-1.109,2.526-1.907,2.566-1.4.181-.1.36-.2.529-.29,1.107-1.468,1.8-2.562,2.517-3.633a13.885,13.885,0,0,0,.348,1.477,48.94,48.94,0,0,0,3.463,7.854c-4.89,3.843-2.8,2.934-3.072,3.383a2.868,2.868,0,0,0,.488.781,18.246,18.246,0,0,0,1.145,1.521c.969,1.092,1.416,1.587,2.066,2.238a27.788,27.788,0,0,1,3.058,3.325,1.757,1.757,0,0,0,1.063.933,9.814,9.814,0,0,0,1.347-1.292,24.149,24.149,0,0,1,2.433-2.666l.414,1.325a21.545,21.545,0,0,1,2.652-3.3c.776-.829,1.39-1.392,2.039-1.981a58.847,58.847,0,0,0,5.919-6.161c-2.275,3.508-.636,3.249,3.458,1.913q2.586-3.481,6.308-7.754a11.6,11.6,0,0,1,1.627,1.361,38.967,38.967,0,0,1,9.211-6.626c3.916-5.442,16.3-13.841,20.151-18.054-.088,1.751,2.374-.179,5.014-2.262,2.582-2.042,5.3-4.205,3.925-1.66q1.442-1.316,3.028-2.762l1.613-1.4.944-.619A50.2,50.2,0,0,1,380.544,28c1.06-1.281,1.806-1.929,2.257-1.6l.688-.411-1.136,1.669-3.184,4.358c-.983,2.983-2.652,7-3.952,9.871.928-1.669,2.33-3.954,3.971-6.6-1.5,2.561-2.964,5.061-4.352,7.43-.293.612-.576,1.2-.77,1.611a3.319,3.319,0,0,1,.269-.765c-2.077,3.569-3.615,6.463-4.3,9.248-5.758,9.6-7.648,15.709-10.106,23.736-1.22,3.92-2.444,8.14-3.863,12.32l-1.04,3.037c-.339.93-.475,1.246-.76,1.884A21.966,21.966,0,0,1,352.484,97c.661-1.257,1.362-3.149.982-3.845-.426,1.5-.918,3.046-1.377,4.5A108.544,108.544,0,0,1,364.6,93.8l-.144-1.716c7.277-1.219,21.883-7.773,27.129-5.541,1.4-1.764,9.961-2.173,13.9-3.666l1.355.992a54.347,54.347,0,0,0,11.6-3.468c11.4-.182,20.658-5.378,30.079-7.672l.182.34,9.267-3.406c-2.191,1.795,1.665-1.279,4.605-1.718A32.959,32.959,0,0,1,474.2,65.434l6.074-1.538c-6.506,2.633.954,1.685,1.718,3.038l3.563-2.187c1.744.285-2.194,1.8.746,1.353,2.385-1.464,10.055-3.443,12.049-5.58a6.486,6.486,0,0,0-2.715-.347c-.3.179-.29.153-.106,0l-.286-.006c.131-.016.187-.022.337-.038a5.294,5.294,0,0,0,.905-.856c4.9-.951,2.975-1.083,2.634-1.691a22.09,22.09,0,0,0,6.6-.17,14.9,14.9,0,0,1,6.248-.017c-3.989-1.453,13.067-3.229,8.984-5.054,2.318.6,3.031.451,3.539.3s.825-.305,2.4.335c-5.9.9-11.049,4.519-15.4,6.742l4.9.169c-2.272,3.384-10.436,1.737-12.9,3.334,1.567-1.026,5.437-1.516,6.114-1.112l-1.651-1.579c-6.679.927-11.426,3.84-15.764,6.045,4.509-.494-4.95,2.585-1.431,3.155l3.364-1.151c1.756.283-1.408,1.767-3.179,2.859-11.212,1.432-30.729,7.939-35.018,7.393a21.533,21.533,0,0,0,8.085-2.682l-5.3.517c4.109-1.16,7.832-.251,13.75-2.523-1.355-.983,2.61-3.875-2.472-4.392-12.176,1.107-8.723,5.8-22.892,9.031-.489.3-.178-.119-.136-.538.06-.605-.447-1.21-4.762.357-9.077,3.744-15.231,8.4-14.5,11.136,3.754-1.84,11.261-5.516,12.994-3.858-3.746,1.843-10.454,4.12-10.471,5.495-4.7-1.219,7.294-2.64,1.422-3.14a14.889,14.889,0,0,0-4.953,2.572c1.6-1.436-2.91-.943-3.88-1.261-9.01,2.346-14.454,2.7-24.171,5,.386.133.5.159-.179.042l.179-.042c-.6-.2-1.848-.657-1.714-1.291-4.558,1.857-10.412,7.038-8.284,8.009-5.518,1.529-6.095.509-10.656,2.351,8.061.128-1.562.036-1.809,2.453-2.971.938-3,.459-3.167-.022-.1-.29-.257-.578-1.141-.556-.742.441-2.482,1.669-2.462,2.3-3.385-.919,4.649-5.847.674-6.91-2.727-.58-13.619-.264-14.39-.247-1.841,2.441.65,10.007,4.739,11.642-.078.831-1.79.576-3.681.323a14.059,14.059,0,0,0-3.58-.187,14.731,14.731,0,0,0-4.755.33,6.476,6.476,0,0,1-2.085.26A8.764,8.764,0,0,1,344.049,112.718ZM469.628,67.707l.14-.117C467.367,67.911,466.117,67.986,469.628,67.707ZM509.7,62.192ZM342.164,60.381a9.1,9.1,0,0,1,.744-1.21C341.508,60.185,342.242,59.888,342.164,60.381Zm170.557-2.774ZM369.411,107.793a8.554,8.554,0,0,0,2.977.1,11.067,11.067,0,0,1-2.1.281C369.666,108.173,369.421,108.023,369.411,107.793Zm-6.5-6.933,1.017,3.261-1.386.37ZM192.23,92.033l-.256.163ZM323.09,81.024l4.455,1.992a9.935,9.935,0,0,0-5.534,5.325Zm122.319,4.7c5.129-.863-.209,1.039-.617,1.74a15.378,15.378,0,0,1-2.818.649C440.928,88.111,445.106,86.255,445.409,85.722Zm-280.057.649a.406.406,0,0,1,.233.111A1.072,1.072,0,0,1,165.352,86.372Zm103.417-1.638a27.043,27.043,0,0,1-4.223,1.425Zm-1.1-1.175a1.438,1.438,0,0,0,1.018.416,3.242,3.242,0,0,1-.9.2C267.39,84.17,267.409,83.925,267.668,83.559Zm170.543-.694,5.327-1.9c.977.317-.989,1.066-2.193,1.8a7.932,7.932,0,0,1-2.552.6C438.266,83.362,438.016,83.2,438.211,82.865Zm-110.667.151.288-.138-.159.2Zm130.907-2.554a5.349,5.349,0,0,0,2.727.6l-2.367,1.455Zm-33.6-2.1a41.888,41.888,0,0,0-6.421,2.04l-1.543.053A14.158,14.158,0,0,1,424.854,78.361Zm2.336.015c-.735-.015-1.522-.031-2.336-.015a43.642,43.642,0,0,1,7.1-.957c-.346.846-1.579.994-3.281.994C428.212,78.4,427.714,78.387,427.191,78.376Zm-157.2-2.46c-.372.718-.779,1.5-1.214,2.337-.355.04-.715.079-1.055.116C268.533,77.494,269.3,76.664,269.993,75.916ZM206.924,77.1l-.147.129-.861.721Zm135.81-1.225.163-.2a55.3,55.3,0,0,1,3.682-4.481c.252-.214.309-.143.422-.07a.45.45,0,0,0,.308.07c-1.078.922-2.315,3.642-3.51,4.6,1.5-2.241.532-1.18-.433-.119a8.382,8.382,0,0,1-1.187,1.2C342.114,76.875,342.254,76.6,342.734,75.877Zm-5.658.356.065.042A.126.126,0,0,1,337.076,76.234Zm1.371-1.027c-.042.068-.083.129-.122.179ZM290.4,73.067q-.039.127-.079.27l-.025.055C290.331,73.28,290.367,73.171,290.4,73.067Zm.285-.778c.329-.386-.029.072-.285.778A4.952,4.952,0,0,1,290.689,72.289Zm57.177-1.237a1.7,1.7,0,0,1-.557.141C347.516,71.032,347.721,70.921,347.866,71.052Zm155.713-5.735c-.746.329-1.338.657-1.191.907l-5.11.872C497.034,66.648,500.49,66.079,503.579,65.317Zm3.946-1.335a16.132,16.132,0,0,1-3.946,1.335A36.474,36.474,0,0,1,507.525,63.982Zm6.468.113,1.565-.054-5.119.87Zm-10.578-.82a1.421,1.421,0,0,0-.608.877C502.775,63.826,503.037,63.543,503.415,63.276ZM483.969,62.6c1.5-1,3.581-2,3-.994-.978-.313.1,1.558-1.467,1.612a10.086,10.086,0,0,1-2.693.793C482.143,64.009,482.91,63.3,483.969,62.6Zm19.461.668-.014.01Zm.021-.014-.021.014ZM298.858,60.526c1.72-1.331,3.558-2.676,5.5-4.008a35.58,35.58,0,0,0-5.389,6.289A8.1,8.1,0,0,1,298.858,60.526Zm-73.724-.845-.511.512c-1.5,1.247-2.5,2.069-2.525,2.069S222.952,61.516,225.134,59.681Zm295.57.739,1.546,1.324-2.952.448Zm-28.721-.072c-.1.076.094.111.523.1a29.976,29.976,0,0,0-3.368.737Zm3.264-.18a24.982,24.982,0,0,1-2.741.278A23.834,23.834,0,0,1,495.248,60.168Zm-3.264.18C492.269,60.106,494.018,59.713,491.983,60.348Zm44.9-6.7a8.171,8.171,0,0,1,2,.162c1.235.236,2.051.472,6.237-1.142,2.447-1.5-.938-1.342-3.884-1.18a22.543,22.543,0,0,1-3.167.063c4.391-1.979,4.255-2.5,4.245-3.091,4.517,1.32,8.548,4.759,4.339,6.907-4.9-.169-9.836,2.416-9.851,3.792-1.57.06.21-1.038.015-1.376L531.7,60.028C529.757,58.032,539.817,54.582,536.883,53.651ZM496.49,59.274c-.541.1-1.107.2-1.834.341C496.42,58.884,496.689,58.971,496.49,59.274Zm22.092-1.186c3.154-1.485,6.321-2.978,5.884-.9l.554-.146c-2.139.751-4.093,1.558-5.313,1.557A1.179,1.179,0,0,1,518.583,58.087Zm10.028-2.077a22.943,22.943,0,0,0-2.879.8C527.4,56.168,528.781,55.177,528.611,56.01Zm-16-1.838c-.616.313.117.573.282.86a11.977,11.977,0,0,0-4.149.554ZM513.09,54l-.484.177A2.8,2.8,0,0,1,513.09,54Zm42.837-2.056.37.678c-.591.365-1.366.389-1.968.754a7.47,7.47,0,0,1-1.077.107C551.983,53.478,553.612,52.6,555.927,51.939Zm-24.738-2.712-.021,1.376-2.335.076Zm10.232-3.115-.6,1.736-3.161,1.49Zm.436,2.2.487-.115-.029.264Zm4.1-2.711a27.185,27.185,0,0,0,6.991,0l-1.847.662.6-.364-9.349,2.3C542.447,47.715,542.974,47.065,545.952,45.6Zm15.472-2.265a67.848,67.848,0,0,1-8.481,2.265l8.759-3.15.038.009c.011.077-.043.161-.053.236a.854.854,0,0,0,.179-.078c.461-.015.307-.088-.125-.158l0-.025-.04.016-.229-.032c1.532-.13,3.139-.335,4.8-.594-1.477.455-3.038.949-4.734,1.653,2.837-.4,2.44.135,1.725.665-.965.716-2.507,1.433,2.583-.133-3.153,1.487-1.211,2.112-6.73,3.684C555.937,46.929,560.317,45.127,561.424,43.339Zm0-.007a1.378,1.378,0,0,0,.265-.634C560.918,43.078,558.755,43.735,561.422,43.332Zm14.011.681,7.281-2.674c-.38.7.773,1.347-3.546,2.194l.384.674Zm-17.618-1.431c.274-.459,2.528-.329,3.66-.162-1.207.1-2.367.163-3.422.163ZM572.752,39.3c2.835-.808,1.894.276,1.641.809a81.516,81.516,0,0,1-8.124,1.721A28.179,28.179,0,0,0,572.752,39.3Zm1.641.809c1.7-.465,3.254-.976,4.711-1.514a8.337,8.337,0,0,1-4.2,1.652,1.512,1.512,0,0,1-.461.125C574.3,40.369,574.321,40.258,574.393,40.106Zm-6.334-2.077a36.079,36.079,0,0,1-3.605,2.094A18.519,18.519,0,0,1,568.059,38.029Zm13.469-.987a3.03,3.03,0,0,0,.774.2,30.358,30.358,0,0,1-3.2,1.347A16.193,16.193,0,0,1,581.529,37.042Zm17.878-.524a29.162,29.162,0,0,0,7.9.135l.584-.359c4.182-.392,1.158,1.091-.021,1.8.047.1.062.2.372.247-1.1.254-.906.078-.372-.247-.218-.433,1.562-1.175-.386-1.1a6.074,6.074,0,0,0-3.151,1.493A12.484,12.484,0,0,1,599.406,36.518Zm-23.905-2.3c-1.786,1.1,2.736.59,1.15,2.021a22.118,22.118,0,0,0-8.591,1.79A32.6,32.6,0,0,1,575.5,34.218Zm6.8,3.027c.13-.06.29-.133.426-.2.081.162-.021.217-.2.217A1.592,1.592,0,0,1,582.3,37.245Zm-.49-.344-.284.141C581.2,36.9,581.078,36.778,581.812,36.9Zm17.244-.625c.118.083.234.164.35.242C599.07,36.438,598.93,36.354,599.056,36.276Zm-2.91-.932L597.9,35l-2.158,1.046Zm-3-.953.072.027-3.808.886ZM383.99,25.671l-.5.323,2.519-3.824c1.307-1.755,2.048-2.224,2.537-2.04l-9.357,15.162A81.833,81.833,0,0,0,383.99,25.671Zm218.642,7.035c-1.172.723-.192,1.032,0,1.373L597.9,35Zm-11.575.761c2.539-.325,3.4.279,3.813.485l-1.728.439Zm-1.2-2.179-2.178,1.8-1.783,1.1Zm24.377-.732c-3.558,2.2-.414,2.073-2.005,3.513-.236.009-.452.013-.65.013C607.168,34.082,611.97,31.953,614.232,30.556Zm-19.362,3.4.436-.11c-.071.127-.138.175-.22.175A.552.552,0,0,1,594.87,33.952ZM606.531,30.2c.392.477-.217,1.067-4.148,2.013Zm-2.138-1.5c.392.675,3.32.225,4.912.159L606.531,30.2C606.07,29.647,604.277,29.251,604.394,28.692Zm28.347-3.638-6.713,3.691-1.379.394Zm-4.726.051-1.961.887C627.032,25.046,627.594,24.978,628.014,25.1Zm0,0,4.156-1.879c-1.718.979-2.4,1.865-2.23,1.087-.506.886-.822,1.134-1.1,1.134S628.344,25.214,628.014,25.1Zm6.711-2.185c7.483-2.347,9.03-1.022,1.544,1.32C640.03,22.379,637.079,22.83,634.726,22.92Zm26.665-.988-2.362,1.461-3.146.117C655.508,22.836,660.211,22.658,661.391,21.932Zm-31.6-.711c-.7.425.2.329,1.267.232a6.976,6.976,0,0,1,2.048-.008L629.357,23.3C626.819,23.05,625.844,22.745,629.787,21.221Zm26.918-.489c4.52-.519,12.214-3.9,18.311-5.847l-1.8,2.471-.977-.3c-4.544.462-10.282,4-13.912,4A3.729,3.729,0,0,1,656.705,20.732ZM640.173,19.8c1.459-.32,2.307-.544,2.919-.723-2.166-.23,2.986-.867,0,0l.7.056c-3.168,1.1-3.887,1.45-3.89,1.45S640.794,20.146,640.173,19.8Zm45.451-7.379-.393.7-3.743,1.861ZM715.975,0c-.213.318.81,1.5-1.068,1.873.022.041.007.061-.028.061C714.63,1.933,713.342.988,715.975,0Z" fill="#e8e7d9"/>
</svg>
