<svg xmlns="http://www.w3.org/2000/svg" width="122.211" height="122.211" viewBox="0 0 122.211 122.211">
  <g id="what-they-say" transform="translate(250.734 -5624.789)">
    <g id="Shape" transform="translate(-1392.217 -153.7)" fill="#375c8d">
      <path d="M 1199.049560546875 5898.7041015625 L 1195.217529296875 5891.041015625 L 1194.593383789062 5889.79296875 L 1193.612182617188 5890.78515625 L 1187.586303710938 5896.87744140625 L 1185.323120117188 5888.6142578125 L 1184.95458984375 5887.2685546875 L 1183.798583984375 5888.0498046875 L 1176.697387695312 5892.8505859375 L 1176.089477539062 5884.3037109375 L 1175.990478515625 5882.91162109375 L 1174.704345703125 5883.45263671875 L 1166.805908203125 5886.77392578125 L 1167.877197265625 5878.275390625 L 1168.051635742188 5876.89111328125 L 1166.684692382812 5877.1708984375 L 1158.289916992188 5878.88720703125 L 1160.999267578125 5870.7587890625 L 1161.440551757812 5869.4345703125 L 1160.044921875 5869.4423828125 L 1151.475219726562 5869.490234375 L 1155.718139648438 5862.0458984375 L 1156.4091796875 5860.83349609375 L 1155.038940429688 5860.56884765625 L 1146.624755859375 5858.9443359375 L 1152.238525390625 5852.470703125 L 1153.15283203125 5851.41650390625 L 1151.860595703125 5850.8896484375 L 1143.92529296875 5847.654296875 L 1150.694091796875 5842.3994140625 L 1151.79638671875 5841.54345703125 L 1150.631591796875 5840.77490234375 L 1143.479858398438 5836.0546875 L 1151.14404296875 5832.2216796875 L 1152.39208984375 5831.59716796875 L 1151.400024414062 5830.6162109375 L 1145.30712890625 5824.59033203125 L 1153.5712890625 5822.32763671875 L 1154.917602539062 5821.958984375 L 1154.135498046875 5820.80322265625 L 1149.333251953125 5813.703125 L 1157.881958007812 5813.09375 L 1159.273681640625 5812.99462890625 L 1158.732543945312 5811.70849609375 L 1155.409301757812 5803.8115234375 L 1163.9091796875 5804.8828125 L 1165.293579101562 5805.05712890625 L 1165.013916015625 5803.6904296875 L 1163.296508789062 5795.29443359375 L 1171.426513671875 5798.00341796875 L 1172.750366210938 5798.4443359375 L 1172.74267578125 5797.04931640625 L 1172.694946289062 5788.47998046875 L 1180.13916015625 5792.72412109375 L 1181.351806640625 5793.41552734375 L 1181.616333007812 5792.044921875 L 1183.240234375 5783.63037109375 L 1189.713989257812 5789.24365234375 L 1190.768310546875 5790.15771484375 L 1191.295166015625 5788.86572265625 L 1194.530517578125 5780.9306640625 L 1199.785888671875 5787.69970703125 L 1200.641723632812 5788.8017578125 L 1201.410400390625 5787.63720703125 L 1206.130249023438 5780.48583984375 L 1209.96337890625 5788.150390625 L 1210.587646484375 5789.39892578125 L 1211.568969726562 5788.40625 L 1217.593872070312 5782.31201171875 L 1219.858032226562 5790.576171875 L 1220.226806640625 5791.92236328125 L 1221.3828125 5791.14013671875 L 1228.47998046875 5786.33984375 L 1229.089721679688 5794.888671875 L 1229.18896484375 5796.28076171875 L 1230.475219726562 5795.7392578125 L 1238.372680664062 5792.4140625 L 1237.302001953125 5800.91748046875 L 1237.127685546875 5802.3017578125 L 1238.494750976562 5802.02197265625 L 1246.890747070312 5800.3037109375 L 1244.181884765625 5808.4306640625 L 1243.74072265625 5809.7548828125 L 1245.13623046875 5809.7470703125 L 1253.705688476562 5809.69970703125 L 1249.461547851562 5817.14453125 L 1248.7705078125 5818.3564453125 L 1250.140502929688 5818.62158203125 L 1258.554443359375 5820.248046875 L 1252.94140625 5826.71875 L 1252.027099609375 5827.77294921875 L 1253.318969726562 5828.2998046875 L 1261.254028320312 5831.53759765625 L 1254.485961914062 5836.79052734375 L 1253.383666992188 5837.64599609375 L 1254.548095703125 5838.4150390625 L 1261.698364257812 5843.13671875 L 1254.035766601562 5846.9677734375 L 1252.787475585938 5847.591796875 L 1253.77978515625 5848.5732421875 L 1259.872680664062 5854.59912109375 L 1251.609497070312 5856.86279296875 L 1250.263916015625 5857.2314453125 L 1251.045166015625 5858.38720703125 L 1255.84423828125 5865.48681640625 L 1247.297973632812 5866.09521484375 L 1245.906127929688 5866.1943359375 L 1246.447265625 5867.48046875 L 1249.770385742188 5875.37841796875 L 1241.269775390625 5874.3056640625 L 1239.885009765625 5874.130859375 L 1240.164794921875 5875.49853515625 L 1241.88330078125 5883.89453125 L 1233.75439453125 5881.18603515625 L 1232.4306640625 5880.7451171875 L 1232.438232421875 5882.14013671875 L 1232.485107421875 5890.708984375 L 1225.041870117188 5886.46630859375 L 1223.82958984375 5885.775390625 L 1223.564819335938 5887.14501953125 L 1221.938232421875 5895.560546875 L 1215.467041015625 5889.94580078125 L 1214.412841796875 5889.03125 L 1213.8857421875 5890.3232421875 L 1210.648071289062 5898.259765625 L 1205.39501953125 5891.490234375 L 1204.539306640625 5890.3876953125 L 1203.770385742188 5891.552734375 L 1199.049560546875 5898.7041015625 Z" stroke="none"/>
      <path d="M 1199.169311523438 5896.70751953125 L 1204.473754882812 5888.671875 L 1210.376342773438 5896.27880859375 L 1214.01416015625 5887.361328125 L 1221.28515625 5893.669921875 L 1223.112548828125 5884.21533203125 L 1231.4755859375 5888.982421875 L 1231.423095703125 5879.35546875 L 1240.556274414062 5882.3984375 L 1238.62548828125 5872.96435546875 L 1248.1767578125 5874.16943359375 L 1244.443115234375 5865.2958984375 L 1254.046020507812 5864.6123046875 L 1248.654052734375 5856.63525390625 L 1257.938110351562 5854.09228515625 L 1251.091918945312 5847.32177734375 L 1259.7021484375 5843.01708984375 L 1251.668212890625 5837.71142578125 L 1259.27294921875 5831.8095703125 L 1250.357421875 5828.17138671875 L 1256.664184570312 5820.90087890625 L 1247.210693359375 5819.07373046875 L 1251.97900390625 5810.708984375 L 1242.350708007812 5810.7626953125 L 1245.394287109375 5801.630859375 L 1235.961181640625 5803.5615234375 L 1237.164184570312 5794.0078125 L 1228.290893554688 5797.74365234375 L 1227.605712890625 5788.138671875 L 1219.631103515625 5793.5322265625 L 1217.087158203125 5784.24658203125 L 1210.317626953125 5791.09423828125 L 1206.0107421875 5782.482421875 L 1200.707641601562 5790.517578125 L 1194.802612304688 5782.912109375 L 1191.16748046875 5791.82763671875 L 1183.893920898438 5785.52099609375 L 1182.069091796875 5794.9755859375 L 1173.70458984375 5790.20703125 L 1173.758178710938 5799.83447265625 L 1164.623168945312 5796.79052734375 L 1166.552978515625 5806.22412109375 L 1157.002807617188 5805.02001953125 L 1160.736694335938 5813.892578125 L 1151.131958007812 5814.57763671875 L 1156.528076171875 5822.55517578125 L 1147.241943359375 5825.09716796875 L 1154.08740234375 5831.86767578125 L 1145.476318359375 5836.17431640625 L 1153.511962890625 5841.4775390625 L 1145.906616210938 5847.3818359375 L 1154.822509765625 5851.01708984375 L 1148.51513671875 5858.29052734375 L 1157.969116210938 5860.1162109375 L 1153.201782226562 5868.48046875 L 1162.830444335938 5868.4267578125 L 1159.786254882812 5877.560546875 L 1169.21826171875 5875.6318359375 L 1168.0146484375 5885.18115234375 L 1176.889038085938 5881.44921875 L 1177.572021484375 5891.05224609375 L 1185.550415039062 5885.65869140625 L 1188.09326171875 5894.94287109375 L 1194.86376953125 5888.09765625 L 1199.169311523438 5896.70751953125 M 1198.929931640625 5900.70068359375 L 1194.323120117188 5891.48828125 L 1187.079345703125 5898.81201171875 L 1184.358642578125 5888.87841796875 L 1175.82275390625 5894.64892578125 L 1175.092041015625 5884.37451171875 L 1165.59716796875 5888.3671875 L 1166.885009765625 5878.150390625 L 1156.793701171875 5880.2138671875 L 1160.050537109375 5870.4423828125 L 1149.748779296875 5870.5 L 1154.849365234375 5861.55078125 L 1144.734497070312 5859.59765625 L 1151.483032226562 5851.8154296875 L 1141.944091796875 5847.92626953125 L 1150.080810546875 5841.609375 L 1141.483276367188 5835.93505859375 L 1150.69677734375 5831.3271484375 L 1143.372314453125 5824.0830078125 L 1153.307250976562 5821.36328125 L 1147.53466796875 5812.8291015625 L 1157.810791015625 5812.09619140625 L 1153.815673828125 5802.6025390625 L 1164.0341796875 5803.890625 L 1161.9697265625 5793.79833984375 L 1171.74267578125 5797.0546875 L 1171.685302734375 5786.75341796875 L 1180.634399414062 5791.85546875 L 1182.586669921875 5781.740234375 L 1190.369140625 5788.48828125 L 1194.25830078125 5778.94970703125 L 1200.575805664062 5787.08642578125 L 1206.249877929688 5778.4892578125 L 1210.857788085938 5787.703125 L 1218.1005859375 5780.376953125 L 1220.822509765625 5790.31201171875 L 1229.354248046875 5784.54150390625 L 1230.087158203125 5794.8173828125 L 1239.581298828125 5790.8203125 L 1238.294189453125 5801.04248046875 L 1248.387084960938 5798.9765625 L 1245.130615234375 5808.7470703125 L 1255.432250976562 5808.68994140625 L 1250.330322265625 5817.6396484375 L 1260.44482421875 5819.5947265625 L 1253.69677734375 5827.3740234375 L 1263.235107421875 5831.26611328125 L 1255.09912109375 5837.58056640625 L 1263.694702148438 5843.2568359375 L 1254.48291015625 5847.8623046875 L 1261.807373046875 5855.10595703125 L 1251.873657226562 5857.8271484375 L 1257.642333984375 5866.361328125 L 1247.369018554688 5867.0927734375 L 1251.364013671875 5876.58740234375 L 1241.14453125 5875.2978515625 L 1243.210205078125 5885.390625 L 1233.438232421875 5882.134765625 L 1233.494506835938 5892.435546875 L 1224.546630859375 5887.3349609375 L 1222.59130859375 5897.451171875 L 1214.811645507812 5890.701171875 L 1210.919799804688 5900.2412109375 L 1204.60498046875 5892.103515625 L 1198.929931640625 5900.70068359375 Z" stroke="none" fill="#115c90"/>
    </g>
    <text id="What_They_Say" data-name="What
They Say" transform="translate(-188.447 5683.137) rotate(23.197)" fill="#eae8d7" font-size="20" font-family="SegoeUI, Segoe UI" letter-spacing="-0.04em"><tspan x="-22.277" y="0">What</tspan><tspan x="-36.145" y="23">They Say</tspan></text>
  </g>
</svg>
